# WaveFront *.obj file (generated by Autodesk ATF)

mtllib Wheel.mtl

g Wheel

v -0.025165 0.043587 0.070000
v -0.022584 0.039116 0.070000
v -0.022584 0.039116 0.120000
v -0.025165 0.043587 0.120000
v -0.008740 0.049565 0.070000
v -0.008740 0.049565 0.120000
v -0.007843 0.044481 0.070000
v -0.007843 0.044481 0.120000
v 0.007843 0.044481 0.070000
v 0.007843 0.044481 0.120000
v 0.008740 0.049565 0.070000
v 0.008740 0.049565 0.120000
v 0.025165 0.043587 0.070000
v 0.025165 0.043587 0.120000
v 0.022584 0.039116 0.070000
v 0.022584 0.039116 0.120000
v 0.034600 0.029033 0.070000
v 0.034600 0.029033 0.120000
v 0.038555 0.032351 0.070000
v 0.038555 0.032351 0.120000
v 0.047294 0.017214 0.070000
v 0.047294 0.017214 0.120000
v 0.042443 0.015448 0.070000
v 0.042443 0.015448 0.120000
v 0.045167 -0.000000 0.070000
v 0.045167 -0.000000 0.120000
v 0.050330 -0.000000 0.070000
v 0.050330 -0.000000 0.120000
v 0.047294 -0.017214 0.070000
v 0.047294 -0.017214 0.120000
v 0.042443 -0.015448 0.070000
v 0.042443 -0.015448 0.120000
v 0.034600 -0.029033 0.070000
v 0.034600 -0.029033 0.120000
v 0.038555 -0.032351 0.070000
v 0.038555 -0.032351 0.120000
v 0.025165 -0.043587 0.070000
v 0.025165 -0.043587 0.120000
v 0.022584 -0.039116 0.070000
v 0.022584 -0.039116 0.120000
v 0.007843 -0.044481 0.070000
v 0.007843 -0.044481 0.120000
v 0.008740 -0.049565 0.070000
v 0.008740 -0.049565 0.120000
v -0.008740 -0.049565 0.070000
v -0.008740 -0.049565 0.120000
v -0.007843 -0.044481 0.070000
v -0.007843 -0.044481 0.120000
v -0.022584 -0.039116 0.070000
v -0.022584 -0.039116 0.120000
v -0.025165 -0.043587 0.070000
v -0.025165 -0.043587 0.120000
v -0.038555 -0.032351 0.070000
v -0.038555 -0.032351 0.120000
v -0.034600 -0.029033 0.070000
v -0.034600 -0.029033 0.120000
v -0.042443 -0.015448 0.070000
v -0.042443 -0.015448 0.120000
v -0.047294 -0.017214 0.070000
v -0.047294 -0.017214 0.120000
v -0.050330 0.000000 0.070000
v -0.050330 0.000000 0.120000
v -0.045167 0.000000 0.070000
v -0.045167 0.000000 0.120000
v -0.042443 0.015448 0.070000
v -0.042443 0.015448 0.120000
v -0.047294 0.017214 0.070000
v -0.047294 0.017214 0.120000
v -0.038555 0.032351 0.070000
v -0.038555 0.032351 0.120000
v -0.034600 0.029033 0.070000
v -0.034600 0.029033 0.120000
vt 0.000000 0.000000 0.000000
vt 0.516254 0.000000 0.000000
vt 0.000000 5.000000 0.000000
vt 0.516254 5.000000 0.000000
vt -0.000000 0.000000 0.000000
vt 1.747931 0.000000 0.000000
vt -0.000000 5.000000 0.000000
vt 1.747931 5.000000 0.000000
vt 0.000000 0.000000 0.000000
vt 0.516254 0.000000 0.000000
vt 0.000000 5.000000 0.000000
vt 0.516254 5.000000 0.000000
vt 0.000000 0.000000 0.000000
vt 1.568638 0.000000 0.000000
vt 0.000000 5.000000 0.000000
vt 1.568638 5.000000 0.000000
vt 0.000000 0.000000 0.000000
vt 0.516254 0.000000 0.000000
vt 0.000000 5.000000 0.000000
vt 0.516254 5.000000 0.000000
vt 0.000000 0.000000 0.000000
vt 1.747931 0.000000 0.000000
vt 0.000000 5.000000 0.000000
vt 1.747931 5.000000 0.000000
vt 0.000000 0.000000 0.000000
vt 0.516254 0.000000 0.000000
vt -0.000000 5.000000 0.000000
vt 0.516254 5.000000 0.000000
vt 0.000000 0.000000 0.000000
vt 1.568638 0.000000 0.000000
vt 0.000000 5.000000 0.000000
vt 1.568638 5.000000 0.000000
vt 0.000000 0.000000 0.000000
vt 0.516254 0.000000 0.000000
vt 0.000000 5.000000 0.000000
vt 0.516254 5.000000 0.000000
vt 0.000000 0.000000 0.000000
vt 1.747931 0.000000 0.000000
vt 0.000000 5.000000 0.000000
vt 1.747931 5.000000 0.000000
vt 0.000000 0.000000 0.000000
vt 0.516254 0.000000 0.000000
vt 0.000000 5.000000 0.000000
vt 0.516254 5.000000 0.000000
vt 0.000000 0.000000 0.000000
vt 1.568638 0.000000 0.000000
vt -0.000000 5.000000 0.000000
vt 1.568638 5.000000 0.000000
vt 0.000000 0.000000 0.000000
vt 0.516254 0.000000 0.000000
vt 0.000000 5.000000 0.000000
vt 0.516254 5.000000 0.000000
vt 0.000000 0.000000 0.000000
vt 1.747931 0.000000 0.000000
vt 0.000000 5.000000 0.000000
vt 1.747931 5.000000 0.000000
vt 0.000000 0.000000 0.000000
vt 0.516254 0.000000 0.000000
vt -0.000000 5.000000 0.000000
vt 0.516254 5.000000 0.000000
vt 0.000000 0.000000 0.000000
vt 1.568638 0.000000 0.000000
vt -0.000000 5.000000 0.000000
vt 1.568638 5.000000 0.000000
vt 0.000000 0.000000 0.000000
vt 0.516254 0.000000 0.000000
vt 0.000000 5.000000 0.000000
vt 0.516254 5.000000 0.000000
vt 0.000000 0.000000 0.000000
vt 1.747931 0.000000 0.000000
vt -0.000000 5.000000 0.000000
vt 1.747931 5.000000 0.000000
vt 0.000000 0.000000 0.000000
vt 0.516254 0.000000 0.000000
vt 0.000000 5.000000 0.000000
vt 0.516254 5.000000 0.000000
vt 0.000000 0.000000 0.000000
vt 1.568638 0.000000 0.000000
vt 0.000000 5.000000 0.000000
vt 1.568638 5.000000 0.000000
vt 0.000000 0.000000 0.000000
vt 0.516254 0.000000 0.000000
vt -0.000000 5.000000 0.000000
vt 0.516254 5.000000 0.000000
vt 0.000000 0.000000 0.000000
vt 1.747931 0.000000 0.000000
vt 0.000000 5.000000 0.000000
vt 1.747931 5.000000 0.000000
vt -0.000000 0.000000 0.000000
vt 0.516254 0.000000 0.000000
vt -0.000000 5.000000 0.000000
vt 0.516254 5.000000 0.000000
vt 0.000000 0.000000 0.000000
vt 1.568638 0.000000 0.000000
vt 0.000000 5.000000 0.000000
vt 1.568638 5.000000 0.000000
vt 0.000000 0.000000 0.000000
vt 0.516254 0.000000 0.000000
vt 0.000000 5.000000 0.000000
vt 0.516254 5.000000 0.000000
vt 0.000000 0.000000 0.000000
vt 1.747931 0.000000 0.000000
vt 0.000000 5.000000 0.000000
vt 1.747931 5.000000 0.000000
vt -0.000000 0.000000 0.000000
vt 0.516254 0.000000 0.000000
vt -0.000000 5.000000 0.000000
vt 0.516254 5.000000 0.000000
vt 0.000000 0.000000 0.000000
vt 1.568638 0.000000 0.000000
vt -0.000000 5.000000 0.000000
vt 1.568638 5.000000 0.000000
vt 0.000000 0.000000 0.000000
vt 0.516254 0.000000 0.000000
vt 0.000000 5.000000 0.000000
vt 0.516254 5.000000 0.000000
vt 0.000000 0.000000 0.000000
vt 1.747931 0.000000 0.000000
vt 0.000000 5.000000 0.000000
vt 1.747931 5.000000 0.000000
vt -0.000000 0.000000 0.000000
vt 0.516254 0.000000 0.000000
vt -0.000000 5.000000 0.000000
vt 0.516254 5.000000 0.000000
vt 0.000000 0.000000 0.000000
vt 1.568638 0.000000 0.000000
vt 0.000000 5.000000 0.000000
vt 1.568638 5.000000 0.000000
vt 0.000000 0.000000 0.000000
vt 0.516254 0.000000 0.000000
vt 0.000000 5.000000 0.000000
vt 0.516254 5.000000 0.000000
vt -0.000000 0.000000 0.000000
vt 1.747931 0.000000 0.000000
vt -0.000000 5.000000 0.000000
vt 1.747931 5.000000 0.000000
vt 0.000000 0.000000 0.000000
vt 0.516254 0.000000 0.000000
vt 0.000000 5.000000 0.000000
vt 0.516254 5.000000 0.000000
vt 0.000000 0.000000 0.000000
vt 1.568638 0.000000 0.000000
vt 0.000000 5.000000 0.000000
vt 1.568638 5.000000 0.000000
vt -3.460003 2.903287 0.000000
vt 3.460003 2.903287 0.000000
vt -2.258357 3.911588 0.000000
vt 2.258357 3.911588 0.000000
vt -0.784319 4.448094 0.000000
vt 0.784319 4.448094 0.000000
vt 2.516484 4.358677 0.000000
vt 0.873966 4.956505 0.000000
vt -3.855477 3.235129 0.000000
vt -4.729442 1.721376 0.000000
vt -4.244322 1.544807 0.000000
vt 4.244322 1.544807 0.000000
vt 4.516713 -0.000000 0.000000
vt -4.516713 0.000000 0.000000
vt 4.244322 -1.544807 0.000000
vt -4.244322 -1.544807 0.000000
vt 3.460003 -2.903287 0.000000
vt -3.460003 -2.903287 0.000000
vt 2.258357 -3.911588 0.000000
vt -2.258357 -3.911588 0.000000
vt 0.784319 -4.448094 0.000000
vt -0.784319 -4.448094 0.000000
vt 0.873966 -4.956505 0.000000
vt -0.873966 -4.956505 0.000000
vt -5.032967 0.000000 0.000000
vt -4.729442 -1.721376 0.000000
vt -3.855477 -3.235129 0.000000
vt -2.516484 -4.358677 0.000000
vt 2.516484 -4.358677 0.000000
vt 3.855477 -3.235129 0.000000
vt 4.729442 -1.721376 0.000000
vt 5.032967 -0.000000 0.000000
vt 4.729442 1.721376 0.000000
vt 3.855477 3.235129 0.000000
vt -0.873966 4.956505 0.000000
vt -2.516484 4.358677 0.000000
vt 2.258357 3.911588 0.000000
vt -2.258357 3.911588 0.000000
vt 3.460003 2.903287 0.000000
vt -3.460003 2.903287 0.000000
vt 4.244322 1.544807 0.000000
vt -4.244322 1.544807 0.000000
vt 4.516713 0.000000 0.000000
vt -4.516713 -0.000000 0.000000
vt 4.244322 -1.544807 0.000000
vt -4.244322 -1.544807 0.000000
vt 3.460003 -2.903287 0.000000
vt -3.460003 -2.903287 0.000000
vt 2.258357 -3.911588 0.000000
vt -2.258357 -3.911588 0.000000
vt 0.784319 -4.448094 0.000000
vt -0.784319 -4.448094 0.000000
vt 0.873966 -4.956505 0.000000
vt -0.873966 -4.956505 0.000000
vt 2.516484 4.358677 0.000000
vt 0.784319 4.448094 0.000000
vt -0.784319 4.448094 0.000000
vt -2.516484 4.358677 0.000000
vt -0.873966 4.956505 0.000000
vt 0.873966 4.956505 0.000000
vt -3.855477 3.235129 0.000000
vt -4.729442 1.721376 0.000000
vt -5.032967 -0.000000 0.000000
vt -4.729442 -1.721376 0.000000
vt -3.855477 -3.235129 0.000000
vt -2.516484 -4.358677 0.000000
vt 2.516484 -4.358677 0.000000
vt 3.855477 -3.235129 0.000000
vt 4.729442 -1.721376 0.000000
vt 5.032967 0.000000 0.000000
vt 4.729442 1.721376 0.000000
vt 3.855477 3.235129 0.000000
vn -86.602540 -50.000000 0.000000
vn -86.602540 -50.000000 0.000000
vn -86.602540 -50.000000 0.000000
vn -86.602540 -50.000000 0.000000
vn -34.202014 93.969262 0.000000
vn -34.202014 93.969262 0.000000
vn -34.202014 93.969262 0.000000
vn -34.202014 93.969262 0.000000
vn 98.480775 17.364818 0.000000
vn 98.480775 17.364818 0.000000
vn 98.480775 17.364818 0.000000
vn 98.480775 17.364818 0.000000
vn 0.000000 100.000000 0.000000
vn 0.000000 100.000000 0.000000
vn 0.000000 100.000000 0.000000
vn 0.000000 100.000000 0.000000
vn -98.480775 17.364818 0.000000
vn -98.480775 17.364818 0.000000
vn -98.480775 17.364818 0.000000
vn -98.480775 17.364818 0.000000
vn 34.202014 93.969262 0.000000
vn 34.202014 93.969262 0.000000
vn 34.202014 93.969262 0.000000
vn 34.202014 93.969262 0.000000
vn 86.602540 -50.000000 0.000000
vn 86.602540 -50.000000 0.000000
vn 86.602540 -50.000000 0.000000
vn 86.602540 -50.000000 0.000000
vn 64.278761 76.604444 0.000000
vn 64.278761 76.604444 0.000000
vn 64.278761 76.604444 0.000000
vn 64.278761 76.604444 0.000000
vn -64.278761 76.604444 0.000000
vn -64.278761 76.604444 0.000000
vn -64.278761 76.604444 0.000000
vn -64.278761 76.604444 0.000000
vn 86.602540 50.000000 0.000000
vn 86.602540 50.000000 0.000000
vn 86.602540 50.000000 0.000000
vn 86.602540 50.000000 0.000000
vn 34.202014 -93.969262 0.000000
vn 34.202014 -93.969262 0.000000
vn 34.202014 -93.969262 0.000000
vn 34.202014 -93.969262 0.000000
vn 98.480775 17.364818 0.000000
vn 98.480775 17.364818 0.000000
vn 98.480775 17.364818 0.000000
vn 98.480775 17.364818 0.000000
vn 0.000000 100.000000 0.000000
vn 0.000000 100.000000 0.000000
vn 0.000000 100.000000 0.000000
vn 0.000000 100.000000 0.000000
vn 98.480775 -17.364818 0.000000
vn 98.480775 -17.364818 0.000000
vn 98.480775 -17.364818 0.000000
vn 98.480775 -17.364818 0.000000
vn -34.202014 -93.969262 0.000000
vn -34.202014 -93.969262 0.000000
vn -34.202014 -93.969262 0.000000
vn -34.202014 -93.969262 0.000000
vn 86.602540 -50.000000 0.000000
vn 86.602540 -50.000000 0.000000
vn 86.602540 -50.000000 0.000000
vn 86.602540 -50.000000 0.000000
vn 64.278761 76.604444 0.000000
vn 64.278761 76.604444 0.000000
vn 64.278761 76.604444 0.000000
vn 64.278761 76.604444 0.000000
vn 64.278761 -76.604444 0.000000
vn 64.278761 -76.604444 0.000000
vn 64.278761 -76.604444 0.000000
vn 64.278761 -76.604444 0.000000
vn -86.602540 -50.000000 0.000000
vn -86.602540 -50.000000 0.000000
vn -86.602540 -50.000000 0.000000
vn -86.602540 -50.000000 0.000000
vn 34.202014 -93.969262 0.000000
vn 34.202014 -93.969262 0.000000
vn 34.202014 -93.969262 0.000000
vn 34.202014 -93.969262 0.000000
vn 98.480775 17.364818 0.000000
vn 98.480775 17.364818 0.000000
vn 98.480775 17.364818 0.000000
vn 98.480775 17.364818 0.000000
vn 0.000000 -100.000000 0.000000
vn 0.000000 -100.000000 0.000000
vn 0.000000 -100.000000 0.000000
vn 0.000000 -100.000000 0.000000
vn -98.480775 17.364818 0.000000
vn -98.480775 17.364818 0.000000
vn -98.480775 17.364818 0.000000
vn -98.480775 17.364818 0.000000
vn -34.202014 -93.969262 0.000000
vn -34.202014 -93.969262 0.000000
vn -34.202014 -93.969262 0.000000
vn -34.202014 -93.969262 0.000000
vn 86.602540 -50.000000 0.000000
vn 86.602540 -50.000000 0.000000
vn 86.602540 -50.000000 0.000000
vn 86.602540 -50.000000 0.000000
vn -64.278761 -76.604444 0.000000
vn -64.278761 -76.604444 0.000000
vn -64.278761 -76.604444 0.000000
vn -64.278761 -76.604444 0.000000
vn -64.278761 76.604444 0.000000
vn -64.278761 76.604444 0.000000
vn -64.278761 76.604444 0.000000
vn -64.278761 76.604444 0.000000
vn -86.602540 -50.000000 0.000000
vn -86.602540 -50.000000 0.000000
vn -86.602540 -50.000000 0.000000
vn -86.602540 -50.000000 0.000000
vn 34.202014 -93.969262 0.000000
vn 34.202014 -93.969262 0.000000
vn 34.202014 -93.969262 0.000000
vn 34.202014 -93.969262 0.000000
vn -98.480775 -17.364818 0.000000
vn -98.480775 -17.364818 0.000000
vn -98.480775 -17.364818 0.000000
vn -98.480775 -17.364818 0.000000
vn 0.000000 100.000000 0.000000
vn 0.000000 100.000000 0.000000
vn 0.000000 100.000000 0.000000
vn 0.000000 100.000000 0.000000
vn -98.480775 17.364818 0.000000
vn -98.480775 17.364818 0.000000
vn -98.480775 17.364818 0.000000
vn -98.480775 17.364818 0.000000
vn -34.202014 -93.969262 0.000000
vn -34.202014 -93.969262 0.000000
vn -34.202014 -93.969262 0.000000
vn -34.202014 -93.969262 0.000000
vn -86.602540 50.000000 0.000000
vn -86.602540 50.000000 0.000000
vn -86.602540 50.000000 0.000000
vn -86.602540 50.000000 0.000000
vn 64.278761 76.604444 0.000000
vn 64.278761 76.604444 0.000000
vn 64.278761 76.604444 0.000000
vn 64.278761 76.604444 0.000000
vn -64.278761 76.604444 0.000000
vn -64.278761 76.604444 0.000000
vn -64.278761 76.604444 0.000000
vn -64.278761 76.604444 0.000000
vn 0.000000 0.000000 100.000000
vn 0.000000 0.000000 100.000000
vn 0.000000 0.000000 100.000000
vn 0.000000 0.000000 100.000000
vn 0.000000 0.000000 100.000000
vn 0.000000 0.000000 100.000000
vn 0.000000 0.000000 100.000000
vn 0.000000 0.000000 100.000000
vn 0.000000 0.000000 100.000000
vn 0.000000 0.000000 100.000000
vn 0.000000 0.000000 100.000000
vn 0.000000 0.000000 100.000000
vn 0.000000 0.000000 100.000000
vn 0.000000 0.000000 100.000000
vn 0.000000 0.000000 100.000000
vn 0.000000 0.000000 100.000000
vn 0.000000 0.000000 100.000000
vn 0.000000 0.000000 100.000000
vn 0.000000 0.000000 100.000000
vn 0.000000 0.000000 100.000000
vn 0.000000 0.000000 100.000000
vn 0.000000 0.000000 100.000000
vn 0.000000 0.000000 100.000000
vn 0.000000 0.000000 100.000000
vn 0.000000 0.000000 100.000000
vn 0.000000 0.000000 100.000000
vn 0.000000 0.000000 100.000000
vn 0.000000 0.000000 100.000000
vn 0.000000 0.000000 100.000000
vn 0.000000 0.000000 100.000000
vn 0.000000 0.000000 100.000000
vn 0.000000 0.000000 100.000000
vn 0.000000 0.000000 100.000000
vn 0.000000 0.000000 100.000000
vn 0.000000 0.000000 100.000000
vn 0.000000 0.000000 100.000000
vn 0.000000 0.000000 -100.000000
vn 0.000000 0.000000 -100.000000
vn 0.000000 0.000000 -100.000000
vn 0.000000 0.000000 -100.000000
vn 0.000000 0.000000 -100.000000
vn 0.000000 0.000000 -100.000000
vn 0.000000 0.000000 -100.000000
vn 0.000000 0.000000 -100.000000
vn 0.000000 0.000000 -100.000000
vn 0.000000 0.000000 -100.000000
vn 0.000000 0.000000 -100.000000
vn 0.000000 0.000000 -100.000000
vn 0.000000 0.000000 -100.000000
vn 0.000000 0.000000 -100.000000
vn 0.000000 0.000000 -100.000000
vn 0.000000 0.000000 -100.000000
vn 0.000000 0.000000 -100.000000
vn 0.000000 0.000000 -100.000000
vn 0.000000 0.000000 -100.000000
vn 0.000000 0.000000 -100.000000
vn 0.000000 0.000000 -100.000000
vn 0.000000 0.000000 -100.000000
vn 0.000000 0.000000 -100.000000
vn 0.000000 0.000000 -100.000000
vn 0.000000 0.000000 -100.000000
vn 0.000000 0.000000 -100.000000
vn 0.000000 0.000000 -100.000000
vn 0.000000 0.000000 -100.000000
vn 0.000000 0.000000 -100.000000
vn 0.000000 0.000000 -100.000000
vn 0.000000 0.000000 -100.000000
vn 0.000000 0.000000 -100.000000
vn 0.000000 0.000000 -100.000000
vn 0.000000 0.000000 -100.000000
vn 0.000000 0.000000 -100.000000
vn 0.000000 0.000000 -100.000000
usemtl Steel_-_Satin
f 1/1/1 2/2/2 4/3/3
f 4/3/3 2/2/2 3/4/4
f 5/5/5 1/6/6 6/7/7
f 6/7/7 1/6/6 4/8/8
f 7/9/9 5/10/10 8/11/11
f 8/11/11 5/10/10 6/12/12
f 9/13/13 7/14/14 10/15/15
f 10/15/15 7/14/14 8/16/16
f 11/17/17 9/18/18 12/19/19
f 12/19/19 9/18/18 10/20/20
f 13/21/21 11/22/22 14/23/23
f 14/23/23 11/22/22 12/24/24
f 15/25/25 13/26/26 16/27/27
f 16/27/27 13/26/26 14/28/28
f 17/29/29 15/30/30 18/31/31
f 18/31/31 15/30/30 16/32/32
f 19/33/33 17/34/34 20/35/35
f 20/35/35 17/34/34 18/36/36
f 21/37/37 19/38/38 22/39/39
f 22/39/39 19/38/38 20/40/40
f 23/41/41 21/42/42 24/43/43
f 24/43/43 21/42/42 22/44/44
f 25/45/45 23/46/46 26/47/47
f 26/47/47 23/46/46 24/48/48
f 27/49/49 25/50/50 28/51/51
f 28/51/51 25/50/50 26/52/52
f 29/53/53 27/54/54 30/55/55
f 30/55/55 27/54/54 28/56/56
f 31/57/57 29/58/58 32/59/59
f 32/59/59 29/58/58 30/60/60
f 33/61/61 31/62/62 34/63/63
f 34/63/63 31/62/62 32/64/64
f 35/65/65 33/66/66 36/67/67
f 36/67/67 33/66/66 34/68/68
f 37/69/69 35/70/70 38/71/71
f 38/71/71 35/70/70 36/72/72
f 39/73/73 37/74/74 40/75/75
f 40/75/75 37/74/74 38/76/76
f 41/77/77 39/78/78 42/79/79
f 42/79/79 39/78/78 40/80/80
f 43/81/81 41/82/82 44/83/83
f 44/83/83 41/82/82 42/84/84
f 45/85/85 43/86/86 46/87/87
f 46/87/87 43/86/86 44/88/88
f 47/89/89 45/90/90 48/91/91
f 48/91/91 45/90/90 46/92/92
f 49/93/93 47/94/94 50/95/95
f 50/95/95 47/94/94 48/96/96
f 51/97/97 49/98/98 52/99/99
f 52/99/99 49/98/98 50/100/100
f 53/101/101 51/102/102 54/103/103
f 54/103/103 51/102/102 52/104/104
f 55/105/105 53/106/106 56/107/107
f 56/107/107 53/106/106 54/108/108
f 57/109/109 55/110/110 58/111/111
f 58/111/111 55/110/110 56/112/112
f 59/113/113 57/114/114 60/115/115
f 60/115/115 57/114/114 58/116/116
f 61/117/117 59/118/118 62/119/119
f 62/119/119 59/118/118 60/120/120
f 63/121/121 61/122/122 64/123/123
f 64/123/123 61/122/122 62/124/124
f 65/125/125 63/126/126 66/127/127
f 66/127/127 63/126/126 64/128/128
f 67/129/129 65/130/130 68/131/131
f 68/131/131 65/130/130 66/132/132
f 69/133/133 67/134/134 70/135/135
f 70/135/135 67/134/134 68/136/136
f 71/137/137 69/138/138 72/139/139
f 72/139/139 69/138/138 70/140/140
f 2/141/141 71/142/142 3/143/143
f 3/143/143 71/142/142 72/144/144
f 72/145/145 18/146/146 3/147/147
f 3/147/147 18/146/146 16/148/148
f 3/147/147 16/148/148 8/149/149
f 8/149/149 16/148/148 10/150/150
f 10/150/150 16/148/148 14/151/151
f 10/150/150 14/151/151 12/152/152
f 70/153/153 68/154/154 72/145/145
f 72/145/145 68/154/154 66/155/155
f 72/145/145 66/155/155 24/156/156
f 24/156/156 66/155/155 26/157/157
f 26/157/157 66/155/155 64/158/158
f 26/157/157 64/158/158 32/159/159
f 32/159/159 64/158/158 58/160/160
f 32/159/159 58/160/160 34/161/161
f 34/161/161 58/160/160 56/162/162
f 34/161/161 56/162/162 40/163/163
f 40/163/163 56/162/162 50/164/164
f 40/163/163 50/164/164 42/165/165
f 42/165/165 50/164/164 48/166/166
f 42/165/165 48/166/166 44/167/167
f 44/167/167 48/166/166 46/168/168
f 64/158/158 62/169/169 58/160/160
f 58/160/160 62/169/169 60/170/170
f 56/162/162 54/171/171 50/164/164
f 50/164/164 54/171/171 52/172/172
f 38/173/173 36/174/174 40/163/163
f 40/163/163 36/174/174 34/161/161
f 30/175/175 28/176/176 32/159/159
f 32/159/159 28/176/176 26/157/157
f 72/145/145 24/156/156 18/146/146
f 18/146/146 24/156/156 22/177/177
f 18/146/146 22/177/177 20/178/178
f 6/179/179 4/180/180 8/149/149
f 8/149/149 4/180/180 3/147/147
f 2/181/181 15/182/182 71/183/183
f 71/183/183 15/182/182 17/184/184
f 71/183/183 17/184/184 65/185/185
f 65/185/185 17/184/184 23/186/186
f 65/185/185 23/186/186 63/187/187
f 63/187/187 23/186/186 25/188/188
f 63/187/187 25/188/188 57/189/189
f 57/189/189 25/188/188 31/190/190
f 57/189/189 31/190/190 55/191/191
f 55/191/191 31/190/190 33/192/192
f 55/191/191 33/192/192 49/193/193
f 49/193/193 33/192/192 39/194/194
f 49/193/193 39/194/194 47/195/195
f 47/195/195 39/194/194 41/196/196
f 47/195/195 41/196/196 45/197/197
f 45/197/197 41/196/196 43/198/198
f 1/199/199 7/200/200 2/181/181
f 2/181/181 7/200/200 9/201/201
f 2/181/181 9/201/201 15/182/182
f 15/182/182 9/201/201 13/202/202
f 13/202/202 9/201/201 11/203/203
f 1/199/199 5/204/204 7/200/200
f 19/205/205 21/206/206 17/184/184
f 17/184/184 21/206/206 23/186/186
f 25/188/188 27/207/207 31/190/190
f 31/190/190 27/207/207 29/208/208
f 33/192/192 35/209/209 39/194/194
f 39/194/194 35/209/209 37/210/210
f 51/211/211 53/212/212 49/193/193
f 49/193/193 53/212/212 55/191/191
f 59/213/213 61/214/214 57/189/189
f 57/189/189 61/214/214 63/187/187
f 65/185/185 67/215/215 71/183/183
f 71/183/183 67/215/215 69/216/216
# 72 vertices
# 216 texture params
# 216 normals
# 140 facets

# 1 groups
