# Blender 4.4.1
# www.blender.org
mtllib car_rc_wheel_futur.mtl
o car_rc_wheel_futur
v 0.001500 0.000000 0.002758
v 0.001500 -0.000303 0.002742
v 0.001500 -0.000602 0.002692
v 0.001500 -0.000894 0.002611
v 0.001500 -0.001175 0.002499
v 0.001500 -0.001443 0.002357
v 0.001500 -0.001694 0.002187
v 0.001500 -0.001925 0.001991
v 0.001500 -0.002134 0.001771
v 0.001500 -0.002317 0.001529
v 0.001500 -0.002474 0.001270
v 0.001500 -0.002601 0.000994
v 0.001500 -0.002698 0.000707
v 0.001500 -0.002763 0.000411
v 0.001500 -0.002796 0.000110
v 0.001500 -0.002796 -0.000194
v 0.001500 -0.002763 -0.000495
v 0.001500 -0.002698 -0.000791
v 0.001500 -0.002601 -0.001078
v 0.001500 -0.002474 -0.001354
v 0.001500 -0.002317 -0.001613
v 0.001500 -0.002134 -0.001855
v 0.001500 -0.001925 -0.002075
v 0.001500 -0.001694 -0.002271
v 0.001500 -0.001443 -0.002441
v 0.001500 -0.001175 -0.002583
v 0.001500 -0.000894 -0.002696
v 0.001500 -0.000602 -0.002777
v 0.001500 -0.000303 -0.002825
v 0.001500 0.000000 -0.002842
v 0.001500 0.000303 -0.002825
v 0.001500 0.000602 -0.002777
v 0.001500 0.000894 -0.002696
v 0.001500 0.001176 -0.002583
v 0.001500 0.001444 -0.002441
v 0.001500 0.001695 -0.002271
v 0.001500 0.001926 -0.002075
v 0.001500 0.002134 -0.001855
v 0.001500 0.002318 -0.001613
v 0.001500 0.002474 -0.001354
v 0.001500 0.002601 -0.001078
v 0.001500 0.002698 -0.000791
v 0.001500 0.002763 -0.000495
v 0.001500 0.002796 -0.000194
v 0.001500 0.002796 0.000110
v 0.001500 0.002763 0.000411
v 0.001500 0.002698 0.000707
v 0.001500 0.002601 0.000994
v 0.001500 0.002474 0.001270
v 0.001500 0.002318 0.001529
v 0.001500 0.002134 0.001771
v 0.001500 0.001926 0.001991
v 0.001500 0.001695 0.002187
v 0.001500 0.001444 0.002357
v 0.001500 0.001176 0.002499
v 0.001500 0.000894 0.002611
v 0.001500 0.000602 0.002692
v 0.001500 0.000303 0.002742
v -0.001500 0.000000 0.002758
v -0.001500 0.000303 0.002742
v -0.001500 0.000602 0.002692
v -0.001500 0.000894 0.002611
v -0.001500 0.001176 0.002499
v -0.001500 0.001444 0.002357
v -0.001500 0.001695 0.002187
v -0.001500 0.001926 0.001991
v -0.001500 0.002134 0.001771
v -0.001500 0.002318 0.001529
v -0.001500 0.002474 0.001270
v -0.001500 0.002601 0.000994
v -0.001500 0.002698 0.000707
v -0.001500 0.002763 0.000411
v -0.001500 0.002796 0.000110
v -0.001500 0.002796 -0.000194
v -0.001500 0.002763 -0.000495
v -0.001500 0.002698 -0.000791
v -0.001500 0.002601 -0.001078
v -0.001500 0.002474 -0.001354
v -0.001500 0.002318 -0.001613
v -0.001500 0.002134 -0.001855
v -0.001500 0.001926 -0.002075
v -0.001500 0.001695 -0.002271
v -0.001500 0.001444 -0.002441
v -0.001500 0.001176 -0.002583
v -0.001500 0.000894 -0.002696
v -0.001500 0.000602 -0.002777
v -0.001500 0.000303 -0.002825
v -0.001500 0.000000 -0.002842
v -0.001500 -0.000303 -0.002825
v -0.001500 -0.000602 -0.002777
v -0.001500 -0.000894 -0.002696
v -0.001500 -0.001175 -0.002583
v -0.001500 -0.001443 -0.002441
v -0.001500 -0.001694 -0.002271
v -0.001500 -0.001925 -0.002075
v -0.001500 -0.002134 -0.001855
v -0.001500 -0.002317 -0.001613
v -0.001500 -0.002474 -0.001354
v -0.001500 -0.002601 -0.001078
v -0.001500 -0.002698 -0.000791
v -0.001500 -0.002763 -0.000495
v -0.001500 -0.002796 -0.000194
v -0.001500 -0.002796 0.000110
v -0.001500 -0.002763 0.000411
v -0.001500 -0.002698 0.000707
v -0.001500 -0.002601 0.000994
v -0.001500 -0.002474 0.001270
v -0.001500 -0.002317 0.001529
v -0.001500 -0.002134 0.001771
v -0.001500 -0.001925 0.001991
v -0.001500 -0.001694 0.002187
v -0.001500 -0.001443 0.002357
v -0.001500 -0.001175 0.002499
v -0.001500 -0.000894 0.002611
v -0.001500 -0.000602 0.002692
v -0.001500 -0.000303 0.002742
v 0.001500 0.000000 0.003458
v 0.001500 0.000338 0.003442
v 0.001500 0.000673 0.003393
v 0.001500 0.001001 0.003312
v 0.001500 0.001320 0.003200
v 0.001500 0.001627 0.003057
v 0.001500 0.001918 0.002886
v 0.001500 0.002192 0.002687
v 0.001500 0.002445 0.002463
v 0.001500 0.002675 0.002215
v 0.001500 0.002881 0.001946
v 0.001500 0.003059 0.001659
v 0.001500 0.003209 0.001356
v 0.001500 0.003329 0.001040
v 0.001500 0.003418 0.000713
v 0.001500 0.003475 0.000380
v 0.001500 0.003499 0.000043
v 0.001500 0.003491 -0.000296
v 0.001500 0.003450 -0.000631
v 0.001500 0.003377 -0.000962
v 0.001500 0.003273 -0.001283
v 0.001500 0.003138 -0.001593
v 0.001500 0.002973 -0.001889
v 0.001500 0.002781 -0.002167
v 0.001500 0.002563 -0.002426
v 0.001500 0.002321 -0.002662
v 0.001500 0.002057 -0.002874
v 0.001500 0.001774 -0.003059
v 0.001500 0.001475 -0.003216
v 0.001500 0.001162 -0.003344
v 0.001500 0.000838 -0.003440
v 0.001500 0.000506 -0.003505
v 0.001500 0.000169 -0.003538
v 0.001500 -0.000169 -0.003538
v 0.001500 -0.000506 -0.003505
v 0.001500 -0.000837 -0.003440
v 0.001500 -0.001162 -0.003344
v 0.001500 -0.001475 -0.003216
v 0.001500 -0.001774 -0.003059
v 0.001500 -0.002057 -0.002874
v 0.001500 -0.002321 -0.002662
v 0.001500 -0.002563 -0.002426
v 0.001500 -0.002781 -0.002167
v 0.001500 -0.002973 -0.001889
v 0.001500 -0.003137 -0.001593
v 0.001500 -0.003272 -0.001283
v 0.001500 -0.003377 -0.000962
v 0.001500 -0.003450 -0.000631
v 0.001500 -0.003491 -0.000296
v 0.001500 -0.003499 0.000043
v 0.001500 -0.003474 0.000380
v 0.001500 -0.003417 0.000713
v 0.001500 -0.003329 0.001040
v 0.001500 -0.003209 0.001356
v 0.001500 -0.003059 0.001659
v 0.001500 -0.002880 0.001946
v 0.001500 -0.002675 0.002215
v 0.001500 -0.002445 0.002463
v 0.001500 -0.002192 0.002687
v 0.001500 -0.001918 0.002886
v 0.001500 -0.001626 0.003057
v 0.001500 -0.001320 0.003200
v 0.001500 -0.001001 0.003312
v 0.001500 -0.000672 0.003393
v 0.001500 -0.000338 0.003442
v -0.001500 0.000000 0.003458
v -0.001500 -0.000338 0.003442
v -0.001500 -0.000672 0.003393
v -0.001500 -0.001001 0.003312
v -0.001500 -0.001320 0.003200
v -0.001500 -0.001626 0.003057
v -0.001500 -0.001918 0.002886
v -0.001500 -0.002192 0.002687
v -0.001500 -0.002445 0.002463
v -0.001500 -0.002675 0.002215
v -0.001500 -0.002880 0.001946
v -0.001500 -0.003059 0.001659
v -0.001500 -0.003209 0.001356
v -0.001500 -0.003329 0.001040
v -0.001500 -0.003417 0.000713
v -0.001500 -0.003474 0.000380
v -0.001500 -0.003499 0.000043
v -0.001500 -0.003491 -0.000296
v -0.001500 -0.003450 -0.000631
v -0.001500 -0.003377 -0.000962
v -0.001500 -0.003272 -0.001283
v -0.001500 -0.003137 -0.001593
v -0.001500 -0.002973 -0.001889
v -0.001500 -0.002781 -0.002167
v -0.001500 -0.002563 -0.002426
v -0.001500 -0.002321 -0.002662
v -0.001500 -0.002057 -0.002874
v -0.001500 -0.001774 -0.003059
v -0.001500 -0.001475 -0.003216
v -0.001500 -0.001162 -0.003344
v -0.001500 -0.000837 -0.003440
v -0.001500 -0.000506 -0.003505
v -0.001500 -0.000169 -0.003538
v -0.001500 0.000169 -0.003538
v -0.001500 0.000506 -0.003505
v -0.001500 0.000838 -0.003440
v -0.001500 0.001162 -0.003344
v -0.001500 0.001475 -0.003216
v -0.001500 0.001774 -0.003059
v -0.001500 0.002057 -0.002874
v -0.001500 0.002321 -0.002662
v -0.001500 0.002563 -0.002426
v -0.001500 0.002781 -0.002167
v -0.001500 0.002973 -0.001889
v -0.001500 0.003138 -0.001593
v -0.001500 0.003273 -0.001283
v -0.001500 0.003377 -0.000962
v -0.001500 0.003450 -0.000631
v -0.001500 0.003491 -0.000296
v -0.001500 0.003499 0.000043
v -0.001500 0.003475 0.000380
v -0.001500 0.003418 0.000713
v -0.001500 0.003329 0.001040
v -0.001500 0.003209 0.001356
v -0.001500 0.003059 0.001659
v -0.001500 0.002881 0.001946
v -0.001500 0.002675 0.002215
v -0.001500 0.002445 0.002463
v -0.001500 0.002192 0.002687
v -0.001500 0.001918 0.002886
v -0.001500 0.001627 0.003057
v -0.001500 0.001320 0.003200
v -0.001500 0.001001 0.003312
v -0.001500 0.000673 0.003393
v -0.001500 0.000338 0.003442
vn -0.0000 0.1083 -0.9941
vn -0.0000 -0.0000 -1.0000
vn -0.0000 -0.1083 -0.9941
vn -0.0000 -0.2150 -0.9766
vn -0.0000 -0.3194 -0.9476
vn -0.0000 -0.4198 -0.9076
vn -0.0000 -0.5155 -0.8569
vn -0.0000 -0.6052 -0.7961
vn -0.0000 -0.6878 -0.7259
vn -0.0000 -0.7622 -0.6474
vn -0.0000 -0.8275 -0.5615
vn -0.0000 -0.8836 -0.4682
vn -0.0000 -0.9291 -0.3698
vn -0.0000 -0.9635 -0.2678
vn -0.0000 -0.9868 -0.1618
vn -0.0000 -0.9985 -0.0539
vn -0.0000 -0.9985 0.0539
vn -0.0000 -0.9868 0.1618
vn -0.0000 -0.9635 0.2678
vn -0.0000 -0.9291 0.3698
vn -0.0000 -0.8836 0.4682
vn -0.0000 -0.8275 0.5615
vn -0.0000 -0.7621 0.6475
vn -0.0000 -0.6879 0.7258
vn -0.0000 -0.6051 0.7961
vn -0.0000 -0.5155 0.8569
vn -0.0000 -0.4202 0.9075
vn -0.0000 -0.4201 0.9075
vn -0.0000 -0.3194 0.9476
vn -0.0000 -0.2146 0.9767
vn -0.0000 -0.1079 0.9942
vn -0.0000 -0.0000 1.0000
vn -0.0000 0.1079 0.9942
vn -0.0000 0.2146 0.9767
vn -0.0000 0.3194 0.9476
vn -0.0000 0.4201 0.9075
vn -0.0000 0.4202 0.9075
vn -0.0000 0.5155 0.8569
vn -0.0000 0.6051 0.7961
vn -0.0000 0.6879 0.7258
vn -0.0000 0.7621 0.6475
vn -0.0000 0.8277 0.5612
vn -0.0000 0.8836 0.4682
vn -0.0000 0.9290 0.3701
vn -0.0000 0.9635 0.2678
vn -0.0000 0.9868 0.1618
vn -0.0000 0.9985 0.0539
vn -0.0000 0.9985 -0.0539
vn -0.0000 0.9868 -0.1618
vn -0.0000 0.9635 -0.2678
vn -0.0000 0.9290 -0.3701
vn -0.0000 0.8836 -0.4682
vn -0.0000 0.8277 -0.5612
vn -0.0000 0.7622 -0.6474
vn -0.0000 0.6878 -0.7259
vn -0.0000 0.6052 -0.7961
vn -0.0000 0.5155 -0.8569
vn -0.0000 0.4198 -0.9076
vn -0.0000 0.3194 -0.9476
vn -0.0000 0.2150 -0.9766
vn -0.0000 0.0967 0.9953
vn -0.0000 -0.0967 0.9953
vn -0.0000 -0.1920 0.9814
vn -0.0000 -0.2858 0.9583
vn -0.0000 -0.3773 0.9261
vn -0.0000 -0.4648 0.8854
vn -0.0000 -0.5480 0.8365
vn -0.0000 -0.6261 0.7798
vn -0.0000 -0.6984 0.7157
vn -0.0000 -0.7644 0.6447
vn -0.0000 -0.8231 0.5679
vn -0.0000 -0.8740 0.4860
vn -0.0000 -0.9168 0.3995
vn -0.0000 -0.9168 0.3994
vn -0.0000 -0.9510 0.3091
vn -0.0000 -0.9764 0.2160
vn -0.0000 -0.9927 0.1203
vn -0.0000 -0.9997 0.0240
vn -0.0000 -0.9974 -0.0723
vn -0.0000 -0.9857 -0.1683
vn -0.0000 -0.9649 -0.2626
vn -0.0000 -0.9350 -0.3547
vn -0.0000 -0.8964 -0.4433
vn -0.0000 -0.8494 -0.5277
vn -0.0000 -0.7946 -0.6072
vn -0.0000 -0.7322 -0.6811
vn -0.0000 -0.6631 -0.7485
vn -0.0000 -0.5879 -0.8090
vn -0.0000 -0.5068 -0.8621
vn -0.0000 -0.4214 -0.9069
vn -0.0000 -0.3321 -0.9432
vn -0.0000 -0.2393 -0.9710
vn -0.0000 -0.1443 -0.9895
vn -0.0000 -0.0484 -0.9988
vn -0.0000 0.0483 -0.9988
vn -0.0000 0.1443 -0.9895
vn -0.0000 0.2393 -0.9710
vn -0.0000 0.3321 -0.9432
vn -0.0000 0.4214 -0.9069
vn -0.0000 0.5068 -0.8621
vn -0.0000 0.5879 -0.8090
vn -0.0000 0.6631 -0.7485
vn -0.0000 0.7322 -0.6811
vn -0.0000 0.7946 -0.6072
vn -0.0000 0.8494 -0.5277
vn -0.0000 0.8964 -0.4433
vn -0.0000 0.9350 -0.3547
vn -0.0000 0.9649 -0.2626
vn -0.0000 0.9857 -0.1683
vn -0.0000 0.9974 -0.0723
vn -0.0000 0.9997 0.0240
vn -0.0000 0.9927 0.1203
vn -0.0000 0.9764 0.2160
vn -0.0000 0.9510 0.3091
vn -0.0000 0.9168 0.3994
vn -0.0000 0.9168 0.3995
vn -0.0000 0.8740 0.4860
vn -0.0000 0.8231 0.5679
vn -0.0000 0.7644 0.6447
vn -0.0000 0.6984 0.7157
vn -0.0000 0.6261 0.7798
vn -0.0000 0.5480 0.8365
vn -0.0000 0.4648 0.8854
vn -0.0000 0.3773 0.9261
vn -0.0000 0.2858 0.9583
vn -0.0000 0.1920 0.9814
vn 1.0000 -0.0000 -0.0000
vn -1.0000 -0.0000 -0.0000
vt 0.018453 0.715252
vt 0.152575 0.715252
vt 0.018453 0.728806
vt 0.152575 0.728806
vt 0.018453 0.742361
vt 0.152575 0.742361
vt 0.018453 0.755915
vt 0.152575 0.755915
vt 0.018453 0.769469
vt 0.152575 0.769469
vt 0.018453 0.783023
vt 0.152575 0.783023
vt 0.018453 0.796577
vt 0.152575 0.796577
vt 0.018453 0.810132
vt 0.152575 0.810132
vt 0.018453 0.823686
vt 0.152575 0.823686
vt 0.018453 0.837240
vt 0.152575 0.837240
vt 0.018453 0.850794
vt 0.152575 0.850794
vt 0.018453 0.864349
vt 0.152575 0.864349
vt 0.018453 0.877903
vt 0.152575 0.877903
vt 0.018453 0.891457
vt 0.152575 0.891457
vt 0.018453 0.905011
vt 0.152575 0.905011
vt 0.018453 0.918566
vt 0.152575 0.918566
vt 0.018453 0.932120
vt 0.152575 0.932120
vt 0.018453 0.945674
vt 0.152575 0.945674
vt 0.018453 0.959228
vt 0.018453 0.173083
vt 0.152575 0.159528
vt 0.152575 0.173083
vt 0.018453 0.186637
vt 0.152575 0.186637
vt 0.018453 0.200191
vt 0.152575 0.200191
vt 0.018453 0.213745
vt 0.152575 0.213745
vt 0.018453 0.227300
vt 0.152575 0.227300
vt 0.018453 0.240854
vt 0.152575 0.240854
vt 0.018453 0.254408
vt 0.152575 0.254408
vt 0.018453 0.267962
vt 0.152575 0.267962
vt 0.018453 0.281516
vt 0.152575 0.281516
vt 0.018453 0.295071
vt 0.152575 0.295071
vt 0.018453 0.308625
vt 0.152575 0.308625
vt 0.018453 0.322179
vt 0.152575 0.322179
vt 0.018453 0.335733
vt 0.152575 0.335733
vt 0.018453 0.349288
vt 0.152575 0.349288
vt 0.018453 0.362842
vt 0.152575 0.362842
vt 0.018453 0.376396
vt 0.152575 0.376396
vt 0.018453 0.389950
vt 0.152575 0.389950
vt 0.018453 0.403505
vt 0.152575 0.403505
vt 0.018453 0.417059
vt 0.152575 0.417059
vt 0.018453 0.430613
vt 0.152575 0.430613
vt 0.018453 0.444167
vt 0.152575 0.444167
vt 0.018453 0.457722
vt 0.152575 0.457722
vt 0.018453 0.471276
vt 0.152575 0.471276
vt 0.018453 0.484830
vt 0.152575 0.484830
vt 0.018453 0.498384
vt 0.152575 0.498384
vt 0.018453 0.511938
vt 0.152575 0.511939
vt 0.018453 0.525493
vt 0.152575 0.525493
vt 0.018453 0.539047
vt 0.152575 0.539047
vt 0.018453 0.552601
vt 0.152575 0.552601
vt 0.018453 0.566155
vt 0.152575 0.566155
vt 0.018453 0.579710
vt 0.152575 0.579710
vt 0.018453 0.593264
vt 0.152575 0.593264
vt 0.018453 0.606818
vt 0.152575 0.606818
vt 0.018453 0.620372
vt 0.152575 0.620372
vt 0.018453 0.633927
vt 0.152575 0.633927
vt 0.018453 0.647481
vt 0.152575 0.647481
vt 0.018453 0.661035
vt 0.152575 0.661035
vt 0.018453 0.674589
vt 0.152575 0.674589
vt 0.018453 0.688144
vt 0.152575 0.688144
vt 0.018453 0.701698
vt 0.152575 0.701698
vt 0.265645 0.142303
vt 0.265645 0.008181
vt 0.280765 0.142303
vt 0.280765 0.008181
vt 0.295884 0.142303
vt 0.295884 0.008181
vt 0.311004 0.142303
vt 0.311004 0.008181
vt 0.326124 0.142303
vt 0.326124 0.008181
vt 0.341243 0.142303
vt 0.341243 0.008181
vt 0.356363 0.142303
vt 0.356363 0.008181
vt 0.371483 0.142303
vt 0.371483 0.008181
vt 0.386603 0.142303
vt 0.386603 0.008181
vt 0.401722 0.142303
vt 0.401722 0.008181
vt 0.416842 0.142303
vt 0.416842 0.008181
vt 0.431962 0.142303
vt 0.431962 0.008181
vt 0.447081 0.142303
vt 0.447081 0.008181
vt 0.462201 0.142303
vt 0.462201 0.008181
vt 0.477321 0.142303
vt 0.477321 0.008181
vt 0.492440 0.142303
vt 0.492440 0.008181
vt 0.507560 0.142303
vt 0.507560 0.008181
vt 0.522680 0.142303
vt 0.522680 0.008181
vt 0.537799 0.142303
vt 0.537799 0.008181
vt 0.552919 0.142303
vt 0.552919 0.008181
vt 0.568039 0.142303
vt 0.568039 0.008181
vt 0.583159 0.142303
vt 0.583159 0.008181
vt 0.598278 0.142303
vt 0.598278 0.008181
vt 0.613398 0.142303
vt 0.613398 0.008181
vt 0.628518 0.142303
vt 0.628518 0.008181
vt 0.643637 0.142303
vt 0.643637 0.008181
vt 0.658757 0.142303
vt 0.658757 0.008181
vt 0.673877 0.142303
vt 0.673877 0.008181
vt 0.688996 0.142303
vt 0.688996 0.008181
vt 0.704116 0.142303
vt 0.704116 0.008181
vt 0.719236 0.142303
vt 0.719236 0.008181
vt 0.734355 0.142303
vt 0.734355 0.008181
vt 0.749475 0.142303
vt 0.749475 0.008181
vt 0.764595 0.142303
vt 0.764595 0.008181
vt 0.779714 0.142303
vt 0.779714 0.008181
vt 0.794834 0.142303
vt 0.794834 0.008181
vt 0.809954 0.142303
vt 0.809954 0.008181
vt 0.825073 0.142303
vt 0.825073 0.008181
vt 0.840193 0.142303
vt 0.840193 0.008181
vt 0.855313 0.142303
vt 0.855313 0.008181
vt 0.870432 0.142303
vt 0.870432 0.008181
vt 0.885552 0.142303
vt 0.885552 0.008181
vt 0.900672 0.142303
vt 0.900672 0.008181
vt 0.915792 0.142303
vt 0.915792 0.008181
vt 0.930911 0.142303
vt 0.930911 0.008181
vt 0.946031 0.142303
vt 0.946031 0.008181
vt 0.961151 0.142303
vt 0.961151 0.008181
vt 0.976270 0.142303
vt 0.976270 0.008181
vt 0.991390 0.142303
vt 0.991390 0.008181
vt 0.008610 0.142303
vt 0.008610 0.008181
vt 0.023730 0.142303
vt 0.023730 0.008181
vt 0.038849 0.142303
vt 0.038849 0.008181
vt 0.053969 0.142303
vt 0.053969 0.008181
vt 0.069089 0.142303
vt 0.069089 0.008181
vt 0.084209 0.142303
vt 0.084209 0.008181
vt 0.099328 0.142303
vt 0.099328 0.008181
vt 0.114448 0.142303
vt 0.114448 0.008181
vt 0.129568 0.142303
vt 0.129568 0.008181
vt 0.144687 0.142303
vt 0.144687 0.008181
vt 0.159807 0.142303
vt 0.159807 0.008181
vt 0.174927 0.142303
vt 0.174927 0.008181
vt 0.190046 0.142303
vt 0.190046 0.008181
vt 0.205166 0.142303
vt 0.205166 0.008181
vt 0.220286 0.142303
vt 0.220286 0.008181
vt 0.235406 0.142303
vt 0.235406 0.008181
vt 0.250525 0.142303
vt 0.250525 0.008181
vt 0.308350 0.215142
vt 0.294967 0.180036
vt 0.323510 0.209291
vt 0.311916 0.173608
vt 0.329406 0.168846
vt 0.278718 0.188069
vt 0.293911 0.222597
vt 0.263320 0.197634
vt 0.280363 0.231570
vt 0.248917 0.208640
vt 0.267865 0.241955
vt 0.235643 0.220984
vt 0.256563 0.253631
vt 0.223623 0.234552
vt 0.246589 0.266460
vt 0.212968 0.249217
vt 0.238061 0.280292
vt 0.203779 0.264841
vt 0.231079 0.294965
vt 0.196140 0.281280
vt 0.190124 0.298379
vt 0.225723 0.310308
vt 0.185786 0.315979
vt 0.222058 0.326139
vt 0.183166 0.333916
vt 0.220127 0.342273
vt 0.182291 0.352021
vt 0.219951 0.358522
vt 0.183166 0.370127
vt 0.221532 0.374695
vt 0.185785 0.388063
vt 0.224853 0.390602
vt 0.190123 0.405663
vt 0.229875 0.406056
vt 0.196140 0.422762
vt 0.236538 0.420878
vt 0.203778 0.439201
vt 0.244764 0.434891
vt 0.212968 0.454825
vt 0.223622 0.469490
vt 0.254457 0.447934
vt 0.235642 0.483058
vt 0.265504 0.459851
vt 0.248916 0.495403
vt 0.277774 0.470505
vt 0.263319 0.506409
vt 0.291124 0.479769
vt 0.278717 0.515973
vt 0.305398 0.487536
vt 0.294966 0.524007
vt 0.320428 0.493714
vt 0.311915 0.530435
vt 0.336037 0.498231
vt 0.329405 0.535197
vt 0.352044 0.501033
vt 0.347273 0.538249
vt 0.365352 0.539562
vt 0.368259 0.502089
vt 0.383473 0.539124
vt 0.384494 0.501385
vt 0.401468 0.536939
vt 0.400558 0.498930
vt 0.419168 0.533027
vt 0.416261 0.494752
vt 0.436407 0.527426
vt 0.431421 0.488902
vt 0.453026 0.520187
vt 0.445860 0.481446
vt 0.468868 0.511378
vt 0.459408 0.472473
vt 0.483786 0.501081
vt 0.471906 0.462088
vt 0.497640 0.489392
vt 0.510302 0.476420
vt 0.483208 0.450412
vt 0.521653 0.462287
vt 0.493182 0.437583
vt 0.531587 0.447125
vt 0.501710 0.423751
vt 0.540010 0.431075
vt 0.508693 0.409078
vt 0.546846 0.414286
vt 0.514048 0.393736
vt 0.552029 0.396916
vt 0.517713 0.377904
vt 0.555512 0.379127
vt 0.519645 0.361770
vt 0.557261 0.361085
vt 0.519821 0.345521
vt 0.557261 0.342959
vt 0.555512 0.324917
vt 0.518239 0.329348
vt 0.552029 0.307128
vt 0.514918 0.313441
vt 0.546846 0.289758
vt 0.509896 0.297987
vt 0.540011 0.272969
vt 0.503233 0.283166
vt 0.531587 0.256919
vt 0.495007 0.269152
vt 0.521653 0.241757
vt 0.485314 0.256110
vt 0.510303 0.227624
vt 0.474267 0.244192
vt 0.497641 0.214652
vt 0.461997 0.233538
vt 0.483786 0.202963
vt 0.448647 0.224274
vt 0.468869 0.192666
vt 0.453027 0.183857
vt 0.434373 0.216507
vt 0.436408 0.176618
vt 0.419343 0.210329
vt 0.419169 0.171016
vt 0.403734 0.205813
vt 0.401469 0.167105
vt 0.387727 0.203010
vt 0.383474 0.164920
vt 0.371512 0.201955
vt 0.365353 0.164482
vt 0.355277 0.202658
vt 0.347274 0.165794
vt 0.339214 0.205113
vt 0.818960 0.915523
vt 0.830632 0.951234
vt 0.803535 0.920635
vt 0.813392 0.956836
vt 0.795693 0.960748
vt 0.847250 0.943995
vt 0.833742 0.908774
vt 0.863092 0.935186
vt 0.847708 0.900466
vt 0.878010 0.924889
vt 0.860693 0.890697
vt 0.891865 0.913200
vt 0.872546 0.879581
vt 0.904526 0.900228
vt 0.883128 0.867248
vt 0.915877 0.886095
vt 0.892314 0.853844
vt 0.925810 0.870933
vt 0.899998 0.839525
vt 0.934234 0.854883
vt 0.941070 0.838094
vt 0.906088 0.824460
vt 0.946253 0.820724
vt 0.910513 0.808824
vt 0.949736 0.802935
vt 0.913222 0.792802
vt 0.951485 0.784893
vt 0.914183 0.776580
vt 0.951485 0.766767
vt 0.913384 0.760350
vt 0.949735 0.748724
vt 0.910836 0.744301
vt 0.946253 0.730936
vt 0.906567 0.728622
vt 0.941069 0.713566
vt 0.900627 0.713497
vt 0.934234 0.696777
vt 0.893088 0.699102
vt 0.925810 0.680727
vt 0.915876 0.665564
vt 0.884036 0.685606
vt 0.904526 0.651432
vt 0.873578 0.673169
vt 0.891864 0.638460
vt 0.861837 0.661935
vt 0.878009 0.626771
vt 0.848949 0.652036
vt 0.863091 0.616474
vt 0.835068 0.643589
vt 0.847249 0.607665
vt 0.820354 0.636693
vt 0.830631 0.600426
vt 0.804981 0.631427
vt 0.813391 0.594824
vt 0.789129 0.627855
vt 0.795692 0.590913
vt 0.777697 0.588728
vt 0.772983 0.626017
vt 0.759576 0.588290
vt 0.756733 0.625936
vt 0.741497 0.589603
vt 0.740570 0.627612
vt 0.723629 0.592655
vt 0.724683 0.631026
vt 0.706139 0.597417
vt 0.709258 0.636137
vt 0.689190 0.603845
vt 0.694476 0.642887
vt 0.672941 0.611879
vt 0.680510 0.651195
vt 0.657543 0.621443
vt 0.667525 0.660964
vt 0.643140 0.632449
vt 0.629866 0.644793
vt 0.655672 0.672080
vt 0.617846 0.658361
vt 0.645090 0.684412
vt 0.607191 0.673026
vt 0.635904 0.697816
vt 0.598002 0.688651
vt 0.628220 0.712135
vt 0.590363 0.705090
vt 0.622130 0.727201
vt 0.584347 0.722189
vt 0.617705 0.742837
vt 0.580009 0.739789
vt 0.614996 0.758859
vt 0.577390 0.757726
vt 0.614035 0.775081
vt 0.576514 0.775831
vt 0.577390 0.793937
vt 0.614834 0.791311
vt 0.580009 0.811873
vt 0.617382 0.807360
vt 0.584347 0.829473
vt 0.621651 0.823039
vt 0.590364 0.846572
vt 0.627591 0.838164
vt 0.598002 0.863011
vt 0.635130 0.852559
vt 0.607192 0.878636
vt 0.644182 0.866054
vt 0.617846 0.893300
vt 0.654640 0.878492
vt 0.629867 0.906868
vt 0.666382 0.889726
vt 0.643140 0.919213
vt 0.679269 0.899624
vt 0.657543 0.930219
vt 0.672942 0.939783
vt 0.693151 0.908071
vt 0.689191 0.947816
vt 0.707864 0.914968
vt 0.706140 0.954244
vt 0.723237 0.920234
vt 0.723630 0.959006
vt 0.739090 0.923806
vt 0.741498 0.962058
vt 0.755235 0.925644
vt 0.759577 0.963370
vt 0.771485 0.925725
vt 0.777698 0.962932
vt 0.787648 0.924049
s 1
usemtl mat_car_rc_wheel_futur
f 2/1/1 116/2/1 1/3/2
f 1/3/2 116/2/1 59/4/2
f 1/3/2 59/4/2 58/5/3
f 58/5/3 59/4/2 60/6/3
f 58/5/3 60/6/3 57/7/4
f 57/7/4 60/6/3 61/8/4
f 57/7/4 61/8/4 56/9/5
f 56/9/5 61/8/4 62/10/5
f 56/9/5 62/10/5 55/11/6
f 55/11/6 62/10/5 63/12/6
f 55/11/6 63/12/6 54/13/7
f 54/13/7 63/12/6 64/14/7
f 54/13/7 64/14/7 53/15/8
f 53/15/8 64/14/7 65/16/8
f 53/15/8 65/16/8 52/17/9
f 52/17/9 65/16/8 66/18/9
f 52/17/9 66/18/9 51/19/10
f 51/19/10 66/18/9 67/20/10
f 51/19/10 67/20/10 50/21/11
f 50/21/11 67/20/10 68/22/11
f 50/21/11 68/22/11 49/23/12
f 49/23/12 68/22/11 69/24/12
f 49/23/12 69/24/12 48/25/13
f 48/25/13 69/24/12 70/26/13
f 48/25/13 70/26/13 47/27/14
f 47/27/14 70/26/13 71/28/14
f 47/27/14 71/28/14 46/29/15
f 46/29/15 71/28/14 72/30/15
f 46/29/15 72/30/15 45/31/16
f 45/31/16 72/30/15 73/32/16
f 45/31/16 73/32/16 44/33/17
f 44/33/17 73/32/16 74/34/17
f 44/33/17 74/34/17 43/35/18
f 43/35/18 74/34/17 75/36/18
f 43/35/18 75/36/18 42/37/19
f 42/38/19 75/39/18 76/40/19
f 42/38/19 76/40/19 41/41/20
f 41/41/20 76/40/19 77/42/20
f 41/41/20 77/42/20 40/43/21
f 40/43/21 77/42/20 78/44/21
f 40/43/21 78/44/21 39/45/22
f 39/45/22 78/44/21 79/46/22
f 39/45/22 79/46/22 38/47/23
f 38/47/23 79/46/22 80/48/23
f 38/47/23 80/48/23 37/49/24
f 37/49/24 80/48/23 81/50/24
f 37/49/24 81/50/24 36/51/25
f 36/51/25 81/50/24 82/52/25
f 36/51/25 82/52/25 35/53/26
f 35/53/26 82/52/25 83/54/26
f 35/53/26 83/54/26 34/55/27
f 34/55/27 83/54/26 84/56/28
f 34/55/27 84/56/28 33/57/29
f 33/57/29 84/56/28 85/58/29
f 33/57/29 85/58/29 32/59/30
f 32/59/30 85/58/29 86/60/30
f 32/59/30 86/60/30 31/61/31
f 31/61/31 86/60/30 87/62/31
f 31/61/31 87/62/31 30/63/32
f 30/63/32 87/62/31 88/64/32
f 30/63/32 88/64/32 29/65/33
f 29/65/33 88/64/32 89/66/33
f 29/65/33 89/66/33 28/67/34
f 28/67/34 89/66/33 90/68/34
f 28/67/34 90/68/34 27/69/35
f 27/69/35 90/68/34 91/70/35
f 27/69/35 91/70/35 26/71/36
f 26/71/36 91/70/35 92/72/37
f 26/71/36 92/72/37 25/73/38
f 25/73/38 92/72/37 93/74/38
f 25/73/38 93/74/38 24/75/39
f 24/75/39 93/74/38 94/76/39
f 24/75/39 94/76/39 23/77/40
f 23/77/40 94/76/39 95/78/40
f 23/77/40 95/78/40 22/79/41
f 22/79/41 95/78/40 96/80/41
f 22/79/41 96/80/41 21/81/42
f 21/81/42 96/80/41 97/82/42
f 21/81/42 97/82/42 20/83/43
f 20/83/43 97/82/42 98/84/43
f 20/83/43 98/84/43 19/85/44
f 19/85/44 98/84/43 99/86/44
f 19/85/44 99/86/44 18/87/45
f 18/87/45 99/86/44 100/88/45
f 18/87/45 100/88/45 17/89/46
f 17/89/46 100/88/45 101/90/46
f 17/89/46 101/90/46 16/91/47
f 16/91/47 101/90/46 102/92/47
f 16/91/47 102/92/47 15/93/48
f 15/93/48 102/92/47 103/94/48
f 15/93/48 103/94/48 14/95/49
f 14/95/49 103/94/48 104/96/49
f 14/95/49 104/96/49 13/97/50
f 13/97/50 104/96/49 105/98/50
f 13/97/50 105/98/50 12/99/51
f 12/99/51 105/98/50 106/100/51
f 12/99/51 106/100/51 11/101/52
f 11/101/52 106/100/51 107/102/52
f 11/101/52 107/102/52 10/103/53
f 10/103/53 107/102/52 108/104/53
f 10/103/53 108/104/53 9/105/54
f 9/105/54 108/104/53 109/106/54
f 9/105/54 109/106/54 8/107/55
f 8/107/55 109/106/54 110/108/55
f 8/107/55 110/108/55 7/109/56
f 7/109/56 110/108/55 111/110/56
f 7/109/56 111/110/56 6/111/57
f 6/111/57 111/110/56 112/112/57
f 6/111/57 112/112/57 5/113/58
f 5/113/58 112/112/57 113/114/58
f 5/113/58 113/114/58 4/115/59
f 4/115/59 113/114/58 114/116/59
f 4/115/59 114/116/59 3/117/60
f 3/117/60 114/116/59 115/118/60
f 3/117/60 115/118/60 2/1/1
f 2/1/1 115/118/60 116/2/1
f 118/119/61 246/120/61 117/121/32
f 117/121/32 246/120/61 182/122/32
f 117/121/32 182/122/32 181/123/62
f 181/123/62 182/122/32 183/124/62
f 181/123/62 183/124/62 180/125/63
f 180/125/63 183/124/62 184/126/63
f 180/125/63 184/126/63 179/127/64
f 179/127/64 184/126/63 185/128/64
f 179/127/64 185/128/64 178/129/65
f 178/129/65 185/128/64 186/130/65
f 178/129/65 186/130/65 177/131/66
f 177/131/66 186/130/65 187/132/66
f 177/131/66 187/132/66 176/133/67
f 176/133/67 187/132/66 188/134/67
f 176/133/67 188/134/67 175/135/68
f 175/135/68 188/134/67 189/136/68
f 175/135/68 189/136/68 174/137/69
f 174/137/69 189/136/68 190/138/69
f 174/137/69 190/138/69 173/139/70
f 173/139/70 190/138/69 191/140/70
f 173/139/70 191/140/70 172/141/71
f 172/141/71 191/140/70 192/142/71
f 172/141/71 192/142/71 171/143/72
f 171/143/72 192/142/71 193/144/72
f 171/143/72 193/144/72 170/145/73
f 170/145/73 193/144/72 194/146/74
f 170/145/73 194/146/74 169/147/75
f 169/147/75 194/146/74 195/148/75
f 169/147/75 195/148/75 168/149/76
f 168/149/76 195/148/75 196/150/76
f 168/149/76 196/150/76 167/151/77
f 167/151/77 196/150/76 197/152/77
f 167/151/77 197/152/77 166/153/78
f 166/153/78 197/152/77 198/154/78
f 166/153/78 198/154/78 165/155/79
f 165/155/79 198/154/78 199/156/79
f 165/155/79 199/156/79 164/157/80
f 164/157/80 199/156/79 200/158/80
f 164/157/80 200/158/80 163/159/81
f 163/159/81 200/158/80 201/160/81
f 163/159/81 201/160/81 162/161/82
f 162/161/82 201/160/81 202/162/82
f 162/161/82 202/162/82 161/163/83
f 161/163/83 202/162/82 203/164/83
f 161/163/83 203/164/83 160/165/84
f 160/165/84 203/164/83 204/166/84
f 160/165/84 204/166/84 159/167/85
f 159/167/85 204/166/84 205/168/85
f 159/167/85 205/168/85 158/169/86
f 158/169/86 205/168/85 206/170/86
f 158/169/86 206/170/86 157/171/87
f 157/171/87 206/170/86 207/172/87
f 157/171/87 207/172/87 156/173/88
f 156/173/88 207/172/87 208/174/88
f 156/173/88 208/174/88 155/175/89
f 155/175/89 208/174/88 209/176/89
f 155/175/89 209/176/89 154/177/90
f 154/177/90 209/176/89 210/178/90
f 154/177/90 210/178/90 153/179/91
f 153/179/91 210/178/90 211/180/91
f 153/179/91 211/180/91 152/181/92
f 152/181/92 211/180/91 212/182/92
f 152/181/92 212/182/92 151/183/93
f 151/183/93 212/182/92 213/184/93
f 151/183/93 213/184/93 150/185/94
f 150/185/94 213/184/93 214/186/94
f 150/185/94 214/186/94 149/187/95
f 149/187/95 214/186/94 215/188/95
f 149/187/95 215/188/95 148/189/96
f 148/189/96 215/188/95 216/190/96
f 148/189/96 216/190/96 147/191/97
f 147/191/97 216/190/96 217/192/97
f 147/191/97 217/192/97 146/193/98
f 146/193/98 217/192/97 218/194/98
f 146/193/98 218/194/98 145/195/99
f 145/195/99 218/194/98 219/196/99
f 145/195/99 219/196/99 144/197/100
f 144/197/100 219/196/99 220/198/100
f 144/197/100 220/198/100 143/199/101
f 143/199/101 220/198/100 221/200/101
f 143/199/101 221/200/101 142/201/102
f 142/201/102 221/200/101 222/202/102
f 142/201/102 222/202/102 141/203/103
f 141/203/103 222/202/102 223/204/103
f 141/203/103 223/204/103 140/205/104
f 140/205/104 223/204/103 224/206/104
f 140/205/104 224/206/104 139/207/105
f 139/207/105 224/206/104 225/208/105
f 139/207/105 225/208/105 138/209/106
f 138/209/106 225/208/105 226/210/106
f 138/209/106 226/210/106 137/211/107
f 137/211/107 226/210/106 227/212/107
f 137/211/107 227/212/107 136/213/108
f 136/213/108 227/212/107 228/214/108
f 136/213/108 228/214/108 135/215/109
f 135/215/109 228/214/108 229/216/109
f 135/217/109 229/218/109 134/219/110
f 134/219/110 229/218/109 230/220/110
f 134/219/110 230/220/110 133/221/111
f 133/221/111 230/220/110 231/222/111
f 133/221/111 231/222/111 132/223/112
f 132/223/112 231/222/111 232/224/112
f 132/223/112 232/224/112 131/225/113
f 131/225/113 232/224/112 233/226/113
f 131/225/113 233/226/113 130/227/114
f 130/227/114 233/226/113 234/228/114
f 130/227/114 234/228/114 129/229/115
f 129/229/115 234/228/114 235/230/116
f 129/229/115 235/230/116 128/231/117
f 128/231/117 235/230/116 236/232/117
f 128/231/117 236/232/117 127/233/118
f 127/233/118 236/232/117 237/234/118
f 127/233/118 237/234/118 126/235/119
f 126/235/119 237/234/118 238/236/119
f 126/235/119 238/236/119 125/237/120
f 125/237/120 238/236/119 239/238/120
f 125/237/120 239/238/120 124/239/121
f 124/239/121 239/238/120 240/240/121
f 124/239/121 240/240/121 123/241/122
f 123/241/122 240/240/121 241/242/122
f 123/241/122 241/242/122 122/243/123
f 122/243/123 241/242/122 242/244/123
f 122/243/123 242/244/123 121/245/124
f 121/245/124 242/244/123 243/246/124
f 121/245/124 243/246/124 120/247/125
f 120/247/125 243/246/124 244/248/125
f 120/247/125 244/248/125 119/249/126
f 119/249/126 244/248/125 245/250/126
f 119/249/126 245/250/126 118/119/61
f 118/119/61 245/250/126 246/120/61
f 58/251/127 118/252/127 1/253/127
f 1/253/127 118/252/127 117/254/127
f 1/253/127 117/254/127 181/255/127
f 118/252/127 58/251/127 119/256/127
f 119/256/127 58/251/127 57/257/127
f 119/256/127 57/257/127 120/258/127
f 120/258/127 57/257/127 56/259/127
f 120/258/127 56/259/127 121/260/127
f 121/260/127 56/259/127 55/261/127
f 121/260/127 55/261/127 122/262/127
f 122/262/127 55/261/127 54/263/127
f 122/262/127 54/263/127 123/264/127
f 123/264/127 54/263/127 53/265/127
f 123/264/127 53/265/127 124/266/127
f 124/266/127 53/265/127 52/267/127
f 124/266/127 52/267/127 125/268/127
f 125/268/127 52/267/127 51/269/127
f 125/268/127 51/269/127 126/270/127
f 126/270/127 51/269/127 127/271/127
f 127/271/127 51/269/127 50/272/127
f 127/271/127 50/272/127 128/273/127
f 128/273/127 50/272/127 49/274/127
f 128/273/127 49/274/127 129/275/127
f 129/275/127 49/274/127 48/276/127
f 129/275/127 48/276/127 130/277/127
f 130/277/127 48/276/127 47/278/127
f 130/277/127 47/278/127 131/279/127
f 131/279/127 47/278/127 46/280/127
f 131/279/127 46/280/127 132/281/127
f 132/281/127 46/280/127 45/282/127
f 132/281/127 45/282/127 133/283/127
f 133/283/127 45/282/127 44/284/127
f 133/283/127 44/284/127 134/285/127
f 134/285/127 44/284/127 43/286/127
f 134/285/127 43/286/127 135/287/127
f 135/287/127 43/286/127 42/288/127
f 135/287/127 42/288/127 136/289/127
f 136/289/127 42/288/127 137/290/127
f 137/290/127 42/288/127 41/291/127
f 137/290/127 41/291/127 138/292/127
f 138/292/127 41/291/127 40/293/127
f 138/292/127 40/293/127 139/294/127
f 139/294/127 40/293/127 39/295/127
f 139/294/127 39/295/127 140/296/127
f 140/296/127 39/295/127 38/297/127
f 140/296/127 38/297/127 141/298/127
f 141/298/127 38/297/127 37/299/127
f 141/298/127 37/299/127 142/300/127
f 142/300/127 37/299/127 36/301/127
f 142/300/127 36/301/127 143/302/127
f 143/302/127 36/301/127 35/303/127
f 143/302/127 35/303/127 144/304/127
f 144/304/127 35/303/127 34/305/127
f 144/304/127 34/305/127 145/306/127
f 145/306/127 34/305/127 146/307/127
f 146/307/127 34/305/127 33/308/127
f 146/307/127 33/308/127 147/309/127
f 147/309/127 33/308/127 32/310/127
f 147/309/127 32/310/127 148/311/127
f 148/311/127 32/310/127 31/312/127
f 148/311/127 31/312/127 149/313/127
f 149/313/127 31/312/127 30/314/127
f 149/313/127 30/314/127 150/315/127
f 150/315/127 30/314/127 29/316/127
f 150/315/127 29/316/127 151/317/127
f 151/317/127 29/316/127 28/318/127
f 151/317/127 28/318/127 152/319/127
f 152/319/127 28/318/127 27/320/127
f 152/319/127 27/320/127 153/321/127
f 153/321/127 27/320/127 26/322/127
f 153/321/127 26/322/127 154/323/127
f 154/323/127 26/322/127 155/324/127
f 155/324/127 26/322/127 25/325/127
f 155/324/127 25/325/127 156/326/127
f 156/326/127 25/325/127 24/327/127
f 156/326/127 24/327/127 157/328/127
f 157/328/127 24/327/127 23/329/127
f 157/328/127 23/329/127 158/330/127
f 158/330/127 23/329/127 22/331/127
f 158/330/127 22/331/127 159/332/127
f 159/332/127 22/331/127 21/333/127
f 159/332/127 21/333/127 160/334/127
f 160/334/127 21/333/127 20/335/127
f 160/334/127 20/335/127 161/336/127
f 161/336/127 20/335/127 19/337/127
f 161/336/127 19/337/127 162/338/127
f 162/338/127 19/337/127 18/339/127
f 162/338/127 18/339/127 163/340/127
f 163/340/127 18/339/127 164/341/127
f 164/341/127 18/339/127 17/342/127
f 164/341/127 17/342/127 165/343/127
f 165/343/127 17/342/127 16/344/127
f 165/343/127 16/344/127 166/345/127
f 166/345/127 16/344/127 15/346/127
f 166/345/127 15/346/127 167/347/127
f 167/347/127 15/346/127 14/348/127
f 167/347/127 14/348/127 168/349/127
f 168/349/127 14/348/127 13/350/127
f 168/349/127 13/350/127 169/351/127
f 169/351/127 13/350/127 12/352/127
f 169/351/127 12/352/127 170/353/127
f 170/353/127 12/352/127 11/354/127
f 170/353/127 11/354/127 171/355/127
f 171/355/127 11/354/127 10/356/127
f 171/355/127 10/356/127 172/357/127
f 172/357/127 10/356/127 9/358/127
f 172/357/127 9/358/127 173/359/127
f 173/359/127 9/358/127 174/360/127
f 174/360/127 9/358/127 8/361/127
f 174/360/127 8/361/127 175/362/127
f 175/362/127 8/361/127 7/363/127
f 175/362/127 7/363/127 176/364/127
f 176/364/127 7/363/127 6/365/127
f 176/364/127 6/365/127 177/366/127
f 177/366/127 6/365/127 5/367/127
f 177/366/127 5/367/127 178/368/127
f 178/368/127 5/367/127 4/369/127
f 178/368/127 4/369/127 179/370/127
f 179/370/127 4/369/127 3/371/127
f 179/370/127 3/371/127 180/372/127
f 180/372/127 3/371/127 2/373/127
f 180/372/127 2/373/127 181/255/127
f 181/255/127 2/373/127 1/253/127
f 116/374/128 183/375/128 59/376/128
f 59/376/128 183/375/128 182/377/128
f 59/376/128 182/377/128 246/378/128
f 183/375/128 116/374/128 184/379/128
f 184/379/128 116/374/128 115/380/128
f 184/379/128 115/380/128 185/381/128
f 185/381/128 115/380/128 114/382/128
f 185/381/128 114/382/128 186/383/128
f 186/383/128 114/382/128 113/384/128
f 186/383/128 113/384/128 187/385/128
f 187/385/128 113/384/128 112/386/128
f 187/385/128 112/386/128 188/387/128
f 188/387/128 112/386/128 111/388/128
f 188/387/128 111/388/128 189/389/128
f 189/389/128 111/388/128 110/390/128
f 189/389/128 110/390/128 190/391/128
f 190/391/128 110/390/128 109/392/128
f 190/391/128 109/392/128 191/393/128
f 191/393/128 109/392/128 192/394/128
f 192/394/128 109/392/128 108/395/128
f 192/394/128 108/395/128 193/396/128
f 193/396/128 108/395/128 107/397/128
f 193/396/128 107/397/128 194/398/128
f 194/398/128 107/397/128 106/399/128
f 194/398/128 106/399/128 195/400/128
f 195/400/128 106/399/128 105/401/128
f 195/400/128 105/401/128 196/402/128
f 196/402/128 105/401/128 104/403/128
f 196/402/128 104/403/128 197/404/128
f 197/404/128 104/403/128 103/405/128
f 197/404/128 103/405/128 198/406/128
f 198/406/128 103/405/128 102/407/128
f 198/406/128 102/407/128 199/408/128
f 199/408/128 102/407/128 101/409/128
f 199/408/128 101/409/128 200/410/128
f 200/410/128 101/409/128 100/411/128
f 200/410/128 100/411/128 201/412/128
f 201/412/128 100/411/128 202/413/128
f 202/413/128 100/411/128 99/414/128
f 202/413/128 99/414/128 203/415/128
f 203/415/128 99/414/128 98/416/128
f 203/415/128 98/416/128 204/417/128
f 204/417/128 98/416/128 97/418/128
f 204/417/128 97/418/128 205/419/128
f 205/419/128 97/418/128 96/420/128
f 205/419/128 96/420/128 206/421/128
f 206/421/128 96/420/128 95/422/128
f 206/421/128 95/422/128 207/423/128
f 207/423/128 95/422/128 94/424/128
f 207/423/128 94/424/128 208/425/128
f 208/425/128 94/424/128 93/426/128
f 208/425/128 93/426/128 209/427/128
f 209/427/128 93/426/128 92/428/128
f 209/427/128 92/428/128 210/429/128
f 210/429/128 92/428/128 211/430/128
f 211/430/128 92/428/128 91/431/128
f 211/430/128 91/431/128 212/432/128
f 212/432/128 91/431/128 90/433/128
f 212/432/128 90/433/128 213/434/128
f 213/434/128 90/433/128 89/435/128
f 213/434/128 89/435/128 214/436/128
f 214/436/128 89/435/128 88/437/128
f 214/436/128 88/437/128 215/438/128
f 215/438/128 88/437/128 87/439/128
f 215/438/128 87/439/128 216/440/128
f 216/440/128 87/439/128 86/441/128
f 216/440/128 86/441/128 217/442/128
f 217/442/128 86/441/128 85/443/128
f 217/442/128 85/443/128 218/444/128
f 218/444/128 85/443/128 84/445/128
f 218/444/128 84/445/128 219/446/128
f 219/446/128 84/445/128 220/447/128
f 220/447/128 84/445/128 83/448/128
f 220/447/128 83/448/128 221/449/128
f 221/449/128 83/448/128 82/450/128
f 221/449/128 82/450/128 222/451/128
f 222/451/128 82/450/128 81/452/128
f 222/451/128 81/452/128 223/453/128
f 223/453/128 81/452/128 80/454/128
f 223/453/128 80/454/128 224/455/128
f 224/455/128 80/454/128 79/456/128
f 224/455/128 79/456/128 225/457/128
f 225/457/128 79/456/128 78/458/128
f 225/457/128 78/458/128 226/459/128
f 226/459/128 78/458/128 77/460/128
f 226/459/128 77/460/128 227/461/128
f 227/461/128 77/460/128 76/462/128
f 227/461/128 76/462/128 228/463/128
f 228/463/128 76/462/128 229/464/128
f 229/464/128 76/462/128 75/465/128
f 229/464/128 75/465/128 230/466/128
f 230/466/128 75/465/128 74/467/128
f 230/466/128 74/467/128 231/468/128
f 231/468/128 74/467/128 73/469/128
f 231/468/128 73/469/128 232/470/128
f 232/470/128 73/469/128 72/471/128
f 232/470/128 72/471/128 233/472/128
f 233/472/128 72/471/128 71/473/128
f 233/472/128 71/473/128 234/474/128
f 234/474/128 71/473/128 70/475/128
f 234/474/128 70/475/128 235/476/128
f 235/476/128 70/475/128 69/477/128
f 235/476/128 69/477/128 236/478/128
f 236/478/128 69/477/128 68/479/128
f 236/478/128 68/479/128 237/480/128
f 237/480/128 68/479/128 67/481/128
f 237/480/128 67/481/128 238/482/128
f 238/482/128 67/481/128 239/483/128
f 239/483/128 67/481/128 66/484/128
f 239/483/128 66/484/128 240/485/128
f 240/485/128 66/484/128 65/486/128
f 240/485/128 65/486/128 241/487/128
f 241/487/128 65/486/128 64/488/128
f 241/487/128 64/488/128 242/489/128
f 242/489/128 64/488/128 63/490/128
f 242/489/128 63/490/128 243/491/128
f 243/491/128 63/490/128 62/492/128
f 243/491/128 62/492/128 244/493/128
f 244/493/128 62/492/128 61/494/128
f 244/493/128 61/494/128 245/495/128
f 245/495/128 61/494/128 60/496/128
f 245/495/128 60/496/128 246/378/128
f 246/378/128 60/496/128 59/376/128
