# Blender 4.4.1
# www.blender.org
mtllib car_rc_body_futur.mtl
o car_rc_body_futur
v 0.002900 -0.002389 0.002538
v 0.002900 -0.002298 0.002935
v 0.002900 -0.002167 0.003320
v 0.002900 -0.001997 0.003690
v 0.002900 -0.001791 0.004040
v 0.002900 -0.001551 0.004368
v 0.002900 -0.001278 0.004670
v -0.002900 -0.001278 0.004670
v -0.002900 -0.001551 0.004368
v -0.002900 -0.001791 0.004040
v -0.002900 -0.001997 0.003690
v -0.002900 -0.002167 0.003320
v -0.002900 -0.002298 0.002935
v -0.002900 -0.002389 0.002538
v -0.003411 -0.002389 0.002538
v -0.003365 -0.002434 0.002191
v -0.003350 -0.002450 0.001842
v 0.003350 -0.002450 0.001842
v 0.003365 -0.002434 0.002191
v 0.003411 -0.002389 0.002538
v 0.003350 -0.002450 0.002643
v 0.003350 -0.002450 -0.002646
v 0.003850 -0.001950 -0.002782
v 0.003850 -0.001950 0.002779
v -0.003350 -0.002450 -0.002646
v -0.002900 -0.002450 -0.002646
v -0.002900 -0.002450 -0.003501
v 0.002900 -0.002450 -0.003501
v 0.002900 -0.002450 -0.002646
v -0.003350 -0.002450 0.002643
v -0.003850 -0.001950 0.002779
v -0.003850 -0.001950 -0.002782
v -0.002900 0.002389 0.002538
v -0.002900 0.002298 0.002935
v -0.002900 0.002167 0.003320
v -0.002900 0.001998 0.003690
v -0.002900 0.001792 0.004040
v -0.002900 0.001551 0.004368
v -0.002900 0.001279 0.004670
v 0.002900 0.001279 0.004670
v 0.002900 0.001551 0.004368
v 0.002900 0.001792 0.004040
v 0.002900 0.001998 0.003690
v 0.002900 0.002167 0.003320
v 0.002900 0.002298 0.002935
v 0.002900 0.002389 0.002538
v 0.003411 0.002389 0.002538
v 0.003365 0.002435 0.002191
v 0.003350 0.002450 0.001842
v -0.003350 0.002450 0.001842
v -0.003365 0.002435 0.002191
v -0.003411 0.002389 0.002538
v -0.003350 0.002450 0.002643
v -0.003350 0.002450 -0.002646
v -0.003850 0.001950 -0.002782
v -0.003850 0.001950 0.002779
v 0.003350 0.002450 -0.002646
v 0.002900 0.002450 -0.002646
v 0.002900 0.002450 -0.003501
v -0.002900 0.002450 -0.003501
v -0.002900 0.002450 -0.002646
v 0.003350 0.002450 0.002643
v 0.003850 0.001950 0.002779
v 0.003850 0.001950 -0.002782
v 0.003384 0.002647 0.004804
v 0.003313 0.002581 0.004880
v 0.003263 0.002415 0.004999
v 0.003463 0.002199 0.004999
v 0.003650 0.001994 0.004999
v 0.003842 0.002162 0.004807
v 0.003621 0.002397 0.004805
v 0.003339 0.002515 0.004901
v 0.003597 0.002240 0.004902
v 0.003513 0.002329 0.004902
v -0.003383 0.002647 0.004804
v -0.003313 0.002581 0.004880
v -0.003342 0.002680 0.004809
v -0.003350 0.002682 0.004804
v -0.003383 -0.002646 0.004804
v -0.003313 -0.002581 0.004880
v -0.003263 -0.002415 0.004999
v -0.003463 -0.002199 0.004999
v -0.003650 -0.001994 0.004999
v -0.003842 -0.002161 0.004807
v -0.003621 -0.002397 0.004805
v -0.003339 -0.002515 0.004901
v -0.003597 -0.002239 0.004902
v -0.003513 -0.002329 0.004902
v 0.003384 -0.002646 0.004804
v 0.003313 -0.002581 0.004880
v 0.003342 -0.002680 0.004809
v 0.003350 -0.002681 0.004804
v 0.003650 -0.001994 0.004999
v 0.003842 -0.002161 0.004807
v 0.003850 -0.002156 0.004799
v 0.003850 0.002157 0.004799
v 0.003621 -0.002397 0.004805
v 0.003463 -0.002199 0.004999
v 0.003263 -0.002415 0.004999
v 0.003513 -0.002329 0.004902
v 0.003597 -0.002239 0.004902
v 0.002959 0.001092 0.004857
v -0.002959 0.001092 0.004857
v -0.003100 0.000750 0.004999
v 0.003100 0.000750 0.004999
v 0.003100 -0.002415 0.004999
v 0.002911 -0.002680 0.004809
v -0.002900 0.001150 0.004799
v -0.002900 0.002683 0.004799
v -0.002911 0.002680 0.004809
v -0.003100 0.002415 0.004999
v 0.003100 -0.000750 0.004999
v -0.003100 -0.000750 0.004999
v -0.002959 -0.001091 0.004857
v 0.002959 -0.001091 0.004857
v -0.003100 -0.002415 0.004999
v -0.002911 -0.002680 0.004809
v -0.002900 -0.002683 0.004799
v -0.002900 -0.001150 0.004799
v -0.003342 -0.002680 0.004809
v -0.003350 -0.002681 0.004804
v -0.003339 -0.002623 0.004842
v -0.003850 0.002157 0.004799
v -0.003850 -0.002156 0.004799
v -0.003650 0.001994 0.004999
v -0.003842 0.002162 0.004807
v -0.003621 0.002397 0.004805
v -0.003463 0.002199 0.004999
v -0.003263 0.002415 0.004999
v -0.003513 0.002329 0.004902
v -0.003597 0.002240 0.004902
v 0.002900 -0.001150 0.004799
v 0.002900 -0.002683 0.004799
v 0.002900 0.002683 0.004799
v 0.002900 0.001150 0.004799
v 0.003100 0.002415 0.004999
v 0.002911 0.002680 0.004809
v 0.003342 0.002680 0.004809
v 0.003350 0.002682 0.004804
v 0.003339 0.002624 0.004842
v -0.003350 -0.002756 0.004494
v -0.003350 -0.002794 0.004178
v -0.003350 -0.002796 0.003859
v -0.003350 -0.002762 0.003542
v -0.003350 -0.002693 0.003231
v -0.003350 -0.002588 0.002930
v -0.002900 -0.002546 0.002834
v -0.002900 -0.002667 0.003147
v -0.002900 -0.002750 0.003472
v -0.002900 -0.002793 0.003804
v -0.002900 -0.002796 0.004139
v -0.002900 -0.002759 0.004472
v -0.003850 -0.002242 0.004511
v -0.003850 -0.002290 0.004215
v -0.003850 -0.002298 0.003915
v -0.003850 -0.002268 0.003616
v -0.003850 -0.002199 0.003324
v -0.003850 -0.002092 0.003043
v -0.003850 0.002242 0.004511
v -0.003850 0.002290 0.004215
v -0.003850 0.002299 0.003915
v -0.003850 0.002268 0.003616
v -0.003850 0.002199 0.003324
v -0.003850 0.002092 0.003043
v -0.003850 0.002092 -0.003046
v -0.003850 0.002199 -0.003327
v -0.003850 0.002268 -0.003619
v -0.003850 0.002299 -0.003917
v -0.003850 0.002290 -0.004217
v -0.003850 0.002242 -0.004514
v -0.003850 0.002157 -0.004801
v -0.003850 -0.002156 -0.004801
v -0.003850 -0.002242 -0.004514
v -0.003850 -0.002290 -0.004217
v -0.003850 -0.002298 -0.003917
v -0.003850 -0.002268 -0.003619
v -0.003850 -0.002199 -0.003327
v -0.003850 -0.002092 -0.003046
v -0.003350 0.002756 0.004494
v -0.003350 0.002795 0.004178
v -0.003350 0.002797 0.003859
v -0.003350 0.002763 0.003542
v -0.003350 0.002693 0.003231
v -0.003350 0.002588 0.002930
v -0.002900 0.002760 0.004472
v -0.002900 0.002797 0.004139
v -0.002900 0.002793 0.003804
v -0.002900 0.002750 0.003472
v -0.002900 0.002667 0.003147
v -0.002900 0.002547 0.002834
v 0.002900 0.002760 0.004472
v 0.002900 0.002797 0.004139
v 0.002900 0.002793 0.003804
v 0.002900 0.002750 0.003472
v 0.002900 0.002667 0.003147
v 0.002900 0.002547 0.002834
v 0.003384 0.002647 -0.004806
v 0.003313 0.002581 -0.004883
v 0.003342 0.002680 -0.004812
v 0.003350 0.002682 -0.004806
v 0.003384 -0.002646 -0.004806
v 0.003313 -0.002581 -0.004883
v 0.003263 -0.002415 -0.005002
v 0.003463 -0.002199 -0.005002
v 0.003650 -0.001994 -0.005002
v 0.003842 -0.002161 -0.004809
v 0.003621 -0.002397 -0.004808
v 0.003339 -0.002515 -0.004904
v 0.003597 -0.002239 -0.004905
v 0.003513 -0.002329 -0.004904
v -0.003383 -0.002646 -0.004806
v -0.003313 -0.002581 -0.004883
v -0.003342 -0.002680 -0.004812
v -0.003350 -0.002681 -0.004806
v -0.003383 0.002647 -0.004806
v -0.003313 0.002581 -0.004883
v -0.003263 0.002415 -0.005002
v -0.003463 0.002199 -0.005002
v -0.003650 0.001994 -0.005002
v -0.003842 0.002162 -0.004809
v -0.003621 0.002397 -0.004808
v -0.003339 0.002515 -0.004904
v -0.003597 0.002240 -0.004905
v -0.003513 0.002329 -0.004904
v 0.003263 0.002415 -0.005002
v 0.003100 0.002415 -0.005002
v 0.002911 0.002680 -0.004812
v 0.003342 -0.002680 -0.004812
v 0.002911 -0.002680 -0.004812
v 0.003100 -0.002415 -0.005002
v 0.003100 0.000750 -0.005002
v -0.003100 0.000750 -0.005002
v -0.002959 0.001092 -0.004860
v 0.002959 0.001092 -0.004860
v -0.003100 0.002415 -0.005002
v -0.002911 0.002680 -0.004812
v -0.002900 0.002683 -0.004801
v -0.002900 0.001150 -0.004801
v 0.002959 -0.001091 -0.004860
v -0.002959 -0.001091 -0.004860
v -0.003100 -0.000750 -0.005002
v 0.003100 -0.000750 -0.005002
v -0.003342 0.002680 -0.004812
v -0.003350 0.002682 -0.004806
v -0.003339 0.002624 -0.004845
v -0.003650 -0.001994 -0.005002
v -0.003842 -0.002161 -0.004809
v -0.003621 -0.002397 -0.004808
v -0.003463 -0.002199 -0.005002
v -0.003263 -0.002415 -0.005002
v -0.003513 -0.002329 -0.004904
v -0.003597 -0.002239 -0.004905
v -0.002911 -0.002680 -0.004812
v -0.003100 -0.002415 -0.005002
v -0.002900 -0.001150 -0.004801
v -0.002900 -0.002683 -0.004801
v 0.002900 -0.002683 -0.004801
v 0.002900 -0.001150 -0.004801
v 0.002900 0.001150 -0.004801
v 0.002900 0.002683 -0.004801
v 0.003350 -0.002681 -0.004806
v 0.003339 -0.002623 -0.004845
v 0.003850 0.002157 -0.004801
v 0.003850 -0.002156 -0.004801
v 0.003650 0.001994 -0.005002
v 0.003842 0.002162 -0.004809
v 0.003621 0.002397 -0.004808
v 0.003463 0.002199 -0.005002
v 0.003513 0.002329 -0.004904
v 0.003597 0.002240 -0.004905
v -0.003350 0.002588 -0.002933
v -0.003350 0.002693 -0.003234
v -0.003350 0.002763 -0.003545
v -0.003350 0.002797 -0.003862
v -0.003350 0.002795 -0.004180
v -0.003350 0.002756 -0.004497
v -0.003350 -0.002756 -0.004497
v -0.003350 -0.002794 -0.004180
v -0.003350 -0.002796 -0.003862
v -0.003350 -0.002762 -0.003545
v -0.003350 -0.002693 -0.003234
v -0.003350 -0.002588 -0.002933
v -0.002900 -0.002757 -0.004492
v -0.002900 -0.002794 -0.004177
v -0.002900 -0.002796 -0.003858
v -0.002900 -0.002762 -0.003542
v -0.002900 -0.002692 -0.003232
v -0.002900 -0.002588 -0.002932
v 0.002900 -0.002757 -0.004492
v 0.002900 -0.002794 -0.004177
v 0.002900 -0.002796 -0.003858
v 0.002900 -0.002762 -0.003542
v 0.002900 -0.002692 -0.003232
v 0.002900 -0.002588 -0.002932
v 0.003350 -0.002756 -0.004497
v 0.003350 -0.002794 -0.004180
v 0.003350 -0.002796 -0.003862
v 0.003350 -0.002762 -0.003545
v 0.003350 -0.002693 -0.003234
v 0.003350 -0.002588 -0.002933
v 0.003850 -0.002242 -0.004514
v 0.003850 -0.002290 -0.004217
v 0.003850 -0.002298 -0.003917
v 0.003850 -0.002268 -0.003619
v 0.003850 -0.002199 -0.003327
v 0.003850 -0.002092 -0.003046
v 0.003350 -0.002756 0.004494
v 0.003350 -0.002794 0.004178
v 0.003350 -0.002796 0.003859
v 0.003350 -0.002762 0.003542
v 0.003350 -0.002693 0.003231
v 0.003350 -0.002588 0.002930
v 0.003850 -0.002092 0.003043
v 0.003850 -0.002199 0.003324
v 0.003850 -0.002268 0.003616
v 0.003850 -0.002298 0.003915
v 0.003850 -0.002290 0.004215
v 0.003850 -0.002242 0.004511
v 0.003850 0.002242 -0.004514
v 0.003850 0.002290 -0.004217
v 0.003850 0.002299 -0.003917
v 0.003850 0.002268 -0.003619
v 0.003850 0.002199 -0.003327
v 0.003850 0.002092 -0.003046
v 0.003850 0.002092 0.003043
v 0.003850 0.002199 0.003324
v 0.003850 0.002268 0.003616
v 0.003850 0.002299 0.003915
v 0.003850 0.002290 0.004215
v 0.003850 0.002242 0.004511
v 0.003350 0.002756 -0.004497
v 0.003350 0.002795 -0.004180
v 0.003350 0.002797 -0.003862
v 0.003350 0.002763 -0.003545
v 0.003350 0.002693 -0.003234
v 0.003350 0.002588 -0.002933
v 0.003350 0.002588 0.002930
v 0.003350 0.002693 0.003231
v 0.003350 0.002763 0.003542
v 0.003350 0.002797 0.003859
v 0.003350 0.002795 0.004178
v 0.003350 0.002756 0.004494
v 0.002900 -0.002546 0.002834
v 0.002900 -0.002667 0.003147
v 0.002900 -0.002750 0.003472
v 0.002900 -0.002793 0.003804
v 0.002900 -0.002796 0.004139
v 0.002900 -0.002759 0.004472
v 0.002900 0.002588 -0.002932
v 0.002900 0.002693 -0.003232
v 0.002900 0.002762 -0.003542
v 0.002900 0.002796 -0.003858
v 0.002900 0.002795 -0.004177
v 0.002900 0.002757 -0.004492
v -0.002900 0.002588 -0.002932
v -0.002900 0.002693 -0.003232
v -0.002900 0.002762 -0.003542
v -0.002900 0.002796 -0.003858
v -0.002900 0.002795 -0.004177
v -0.002900 0.002757 -0.004492
vn -0.0000 -0.9620 0.2732
vn -0.0000 -0.9847 0.1740
vn -0.0000 -0.9962 0.0876
vn -0.0000 -0.9292 0.3695
vn -0.0000 -0.8869 0.4619
vn -0.0000 -0.8354 0.5496
vn -0.0000 -0.7753 0.6316
vn -0.0000 -0.7076 0.7066
vn -0.0000 -1.0000 0.0003
vn 0.7074 -0.7068 -0.0013
vn 0.7072 -0.7070 -0.0006
vn 0.7071 -0.7072 -0.0002
vn 0.7072 -0.7070 -0.0000
vn 0.7077 -0.7065 0.0001
vn 0.7044 -0.7098 0.0007
vn -0.0000 -1.0000 -0.0000
vn -0.7044 -0.7099 0.0007
vn -0.7072 -0.7070 -0.0006
vn -0.7077 -0.7065 0.0001
vn -0.7072 -0.7070 -0.0000
vn -0.7074 -0.7068 -0.0013
vn -0.7071 -0.7072 -0.0002
vn -0.0000 0.9620 0.2732
vn -0.0000 0.9847 0.1741
vn -0.0000 0.9962 0.0876
vn -0.0000 0.9292 0.3695
vn -0.0000 0.8869 0.4619
vn -0.0000 0.8354 0.5496
vn -0.0000 0.7753 0.6316
vn -0.0000 0.7076 0.7066
vn -0.0000 1.0000 0.0003
vn -0.7074 0.7068 -0.0013
vn -0.7072 0.7070 -0.0006
vn -0.7071 0.7072 -0.0002
vn -0.7072 0.7070 -0.0000
vn -0.7077 0.7065 0.0001
vn -0.7044 0.7098 0.0007
vn -0.0000 1.0000 -0.0000
vn 0.7044 0.7098 0.0007
vn 0.7072 0.7070 -0.0006
vn 0.7077 0.7065 0.0001
vn 0.7072 0.7070 -0.0000
vn 0.7074 0.7068 -0.0013
vn 0.7071 0.7072 -0.0002
vn 0.4428 0.4225 0.7909
vn 0.4456 0.4324 0.7839
vn 0.4498 0.4256 0.7852
vn 0.4494 0.4276 0.7844
vn 0.4527 0.4218 0.7856
vn 0.4473 0.4189 0.7902
vn 0.4501 0.4133 0.7916
vn 0.4455 0.4157 0.7929
vn 0.4464 0.4048 0.7980
vn 0.4369 0.4141 0.7985
vn -0.4497 0.4279 0.7840
vn -0.4502 0.4371 0.7787
vn -0.4473 0.4316 0.7833
vn -0.4543 0.4432 0.7728
vn -0.4425 -0.4222 0.7912
vn -0.4461 -0.4318 0.7839
vn -0.4505 -0.4250 0.7851
vn -0.4513 -0.4266 0.7838
vn -0.4529 -0.4216 0.7856
vn -0.4471 -0.4187 0.7904
vn -0.4501 -0.4133 0.7916
vn -0.4454 -0.4155 0.7931
vn -0.4464 -0.4048 0.7980
vn -0.4369 -0.4139 0.7986
vn 0.4493 -0.4280 0.7842
vn 0.4487 -0.4385 0.7787
vn 0.4463 -0.4318 0.7838
vn 0.4529 -0.4453 0.7724
vn 0.7071 -0.0000 0.7071
vn 0.4429 -0.4225 0.7908
vn 0.4473 -0.4189 0.7902
vn 0.4526 -0.4217 0.7857
vn 0.4501 -0.4133 0.7916
vn 0.4454 -0.4156 0.7930
vn 0.4464 -0.4048 0.7980
vn 0.4370 -0.4141 0.7985
vn -0.0000 0.3831 0.9237
vn -0.0000 -0.5815 0.8136
vn -0.0002 -0.5816 0.8135
vn -0.0001 -0.5820 0.8132
vn -0.0002 -0.5819 0.8133
vn -0.0000 -0.5823 0.8129
vn 0.6991 -0.0000 0.7150
vn 0.7016 -0.0000 0.7126
vn 0.7042 0.0001 0.7100
vn 0.7068 -0.0000 0.7074
vn 0.7072 -0.0001 0.7070
vn 0.7077 -0.0000 0.7065
vn -0.0000 -0.3832 0.9237
vn 0.7072 0.0001 0.7070
vn 0.7042 -0.0001 0.7100
vn 0.0001 -0.5820 0.8132
vn 0.0002 -0.5816 0.8135
vn 0.0002 -0.5819 0.8133
vn -0.4594 -0.4288 0.7779
vn -0.4478 -0.4309 0.7834
vn -0.4525 -0.4320 0.7802
vn -0.6962 -0.0000 0.7179
vn -0.6961 -0.0000 0.7179
vn -0.7014 -0.0000 0.7128
vn -0.7071 -0.0000 0.7071
vn -0.4427 0.4221 0.7911
vn -0.4471 0.4186 0.7905
vn -0.4525 0.4214 0.7859
vn -0.4501 0.4133 0.7916
vn -0.4454 0.4155 0.7931
vn -0.4464 0.4048 0.7980
vn -0.4369 0.4139 0.7986
vn -0.0000 0.5823 0.8129
vn 0.0001 0.5820 0.8132
vn 0.0002 0.5819 0.8133
vn 0.0002 0.5816 0.8135
vn -0.0000 0.5815 0.8136
vn -0.7067 -0.0000 0.7075
vn -0.7016 -0.0000 0.7126
vn -0.7056 -0.0001 0.7086
vn -0.6991 -0.0000 0.7150
vn -0.7056 0.0001 0.7086
vn -0.0002 0.5819 0.8133
vn -0.0001 0.5820 0.8132
vn -0.0002 0.5816 0.8135
vn 0.4581 0.4308 0.7775
vn 0.4457 0.4311 0.7845
vn 0.4515 0.4338 0.7797
vn -0.0003 -0.9525 0.3047
vn -0.0007 -0.9583 0.2858
vn -0.0005 -0.9568 0.2907
vn -0.0001 -0.9842 0.1772
vn 0.0001 -0.9856 0.1692
vn 0.0001 -0.9979 0.0640
vn 0.0001 -0.9987 0.0502
vn 0.0001 -0.9987 -0.0502
vn -0.0000 -0.9976 -0.0696
vn -0.0003 -0.9866 -0.1629
vn -0.0002 -0.9822 -0.1880
vn -0.0002 -0.9617 -0.2739
vn -0.0001 -0.9526 -0.3043
vn -0.0001 -0.9244 -0.3815
vn -0.0000 -0.9093 -0.4160
vn -0.0000 -0.8746 -0.4848
vn 0.0002 -0.8528 -0.5222
vn -0.0000 -0.8524 -0.5229
vn -0.0000 -0.9597 0.2811
vn -0.7070 -0.6771 0.2041
vn -0.7072 -0.6761 0.2070
vn -0.7071 -0.6893 0.1575
vn -0.7069 -0.6705 0.2251
vn -0.7056 -0.6613 0.2545
vn -0.7025 -0.6572 0.2731
vn -0.7071 -0.6959 0.1254
vn -0.7071 -0.7040 0.0665
vn -0.7072 -0.7056 0.0453
vn -0.7071 -0.7066 -0.0259
vn -0.7070 -0.7063 -0.0357
vn -0.7071 -0.6973 -0.1177
vn -0.7071 -0.6977 -0.1150
vn -0.7071 -0.6801 -0.1937
vn -0.7072 -0.6759 -0.2074
vn -0.7072 -0.6536 -0.2697
vn -0.7072 -0.6432 -0.2936
vn -0.7072 -0.6187 -0.3422
vn -0.7072 -0.5995 -0.3748
vn -1.0000 -0.0000 -0.0000
vn -0.7025 0.6572 0.2731
vn -0.7069 0.6705 0.2251
vn -0.7056 0.6614 0.2545
vn -0.7071 0.6894 0.1575
vn -0.7072 0.6764 0.2060
vn -0.7071 0.6959 0.1254
vn -0.7075 0.6768 0.2035
vn -0.7072 0.7039 0.0665
vn -0.7072 0.7056 0.0453
vn -0.7072 0.7066 -0.0259
vn -0.7071 0.7062 -0.0355
vn -0.7071 0.6972 -0.1176
vn -0.7071 0.6977 -0.1150
vn -0.7071 0.6801 -0.1937
vn -0.7072 0.6759 -0.2074
vn -0.7072 0.6536 -0.2697
vn -0.7072 0.6432 -0.2936
vn -0.7072 0.6187 -0.3422
vn -0.7072 0.5995 -0.3748
vn -0.0000 0.9597 0.2812
vn -0.0003 0.9525 0.3046
vn -0.0007 0.9583 0.2858
vn -0.0005 0.9568 0.2907
vn -0.0001 0.9842 0.1772
vn 0.0001 0.9856 0.1692
vn 0.0001 0.9979 0.0640
vn 0.0001 0.9987 0.0502
vn 0.0001 0.9987 -0.0502
vn -0.0001 0.9976 -0.0696
vn -0.0003 0.9866 -0.1629
vn -0.0003 0.9822 -0.1880
vn -0.0002 0.9617 -0.2739
vn -0.0001 0.9526 -0.3043
vn -0.0001 0.9244 -0.3815
vn -0.0000 0.9093 -0.4160
vn -0.0000 0.8746 -0.4849
vn 0.0002 0.8528 -0.5222
vn -0.0000 0.8524 -0.5229
vn 1.0000 -0.0000 -0.0000
vn -0.0000 0.7063 0.7080
vn -0.0000 0.7049 0.7093
vn -0.0000 -0.0000 1.0000
vn 0.4500 0.4278 -0.7839
vn 0.4529 0.4324 -0.7797
vn 0.4483 0.4295 -0.7839
vn 0.4565 0.4379 -0.7745
vn 0.4424 -0.4222 -0.7912
vn 0.4471 -0.4307 -0.7839
vn 0.4482 -0.4274 -0.7852
vn 0.4466 -0.4304 -0.7844
vn 0.4531 -0.4222 -0.7852
vn 0.4466 -0.4192 -0.7905
vn 0.4504 -0.4144 -0.7908
vn 0.4452 -0.4163 -0.7928
vn 0.4472 -0.4048 -0.7976
vn 0.4382 -0.4139 -0.7979
vn -0.4502 -0.4277 -0.7838
vn -0.4543 -0.4309 -0.7797
vn -0.4492 -0.4294 -0.7835
vn -0.4572 -0.4356 -0.7754
vn -0.4421 0.4219 -0.7916
vn -0.4476 0.4302 -0.7840
vn -0.4487 0.4269 -0.7851
vn -0.4485 0.4295 -0.7838
vn -0.4533 0.4221 -0.7851
vn -0.4465 0.4189 -0.7907
vn -0.4503 0.4144 -0.7908
vn -0.4451 0.4160 -0.7930
vn -0.4472 0.4048 -0.7976
vn -0.4382 0.4137 -0.7980
vn -0.0000 0.5830 -0.8125
vn 0.0006 0.5825 -0.8128
vn 0.0003 0.5812 -0.8138
vn 0.0007 0.5815 -0.8135
vn -0.0000 0.5798 -0.8148
vn -0.0000 -0.5798 -0.8148
vn 0.0007 -0.5815 -0.8135
vn 0.0003 -0.5812 -0.8138
vn 0.0006 -0.5825 -0.8128
vn -0.0000 -0.5830 -0.8125
vn -0.0000 0.3831 -0.9237
vn 0.7077 -0.0000 -0.7065
vn 0.7072 -0.0001 -0.7070
vn 0.7075 -0.0000 -0.7067
vn 0.7125 -0.0000 -0.7017
vn 0.7148 -0.0000 -0.6993
vn -0.0000 -0.3832 -0.9237
vn -0.0003 0.5812 -0.8138
vn -0.0006 0.5825 -0.8128
vn -0.0007 0.5815 -0.8135
vn -0.4625 0.4230 -0.7792
vn -0.4531 0.4264 -0.7828
vn -0.4558 0.4258 -0.7816
vn -0.7080 -0.0000 -0.7062
vn -0.7018 -0.0000 -0.7124
vn -0.6961 -0.0000 -0.7179
vn -0.4418 -0.4220 -0.7917
vn -0.4465 -0.4194 -0.7904
vn -0.4538 -0.4224 -0.7846
vn -0.4503 -0.4144 -0.7909
vn -0.4451 -0.4160 -0.7930
vn -0.4472 -0.4048 -0.7976
vn -0.4382 -0.4137 -0.7980
vn -0.0003 -0.5812 -0.8138
vn -0.0007 -0.5815 -0.8135
vn -0.0006 -0.5825 -0.8128
vn 0.7072 0.0001 -0.7070
vn -0.7149 -0.0000 -0.6993
vn -0.7086 0.0001 -0.7056
vn -0.7125 -0.0000 -0.7017
vn -0.7075 -0.0000 -0.7067
vn -0.7071 -0.0000 -0.7071
vn -0.7086 -0.0001 -0.7056
vn -0.7148 -0.0000 -0.6993
vn 0.4613 -0.4247 -0.7790
vn 0.4511 -0.4267 -0.7838
vn 0.4549 -0.4276 -0.7812
vn 0.7071 -0.0000 -0.7071
vn 0.7080 -0.0000 -0.7062
vn 0.4419 0.4223 -0.7914
vn 0.4462 0.4199 -0.7903
vn 0.4539 0.4227 -0.7844
vn 0.4503 0.4144 -0.7908
vn 0.4452 0.4163 -0.7928
vn 0.4472 0.4048 -0.7976
vn 0.4382 0.4139 -0.7979
vn -0.7073 0.6766 -0.2047
vn -0.7078 0.6743 -0.2105
vn -0.7071 0.6893 -0.1575
vn -0.7068 0.6706 -0.2250
vn -0.7058 0.6611 -0.2548
vn -0.7026 0.6569 -0.2736
vn -0.7071 0.6959 -0.1253
vn -0.7071 0.7040 -0.0664
vn -0.7071 0.7056 -0.0453
vn -0.7072 0.7066 0.0259
vn -0.7071 0.7062 0.0356
vn -0.7071 0.6973 0.1177
vn -0.7071 0.6977 0.1155
vn -0.7071 0.6801 0.1937
vn -0.7072 0.6759 0.2074
vn -0.7071 0.6537 0.2697
vn -0.7071 0.6432 0.2936
vn -0.7072 0.6188 0.3420
vn -0.7072 0.5995 0.3748
vn -0.7026 -0.6569 -0.2736
vn -0.7068 -0.6706 -0.2250
vn -0.7058 -0.6611 -0.2548
vn -0.7071 -0.6894 -0.1575
vn -0.7077 -0.6759 -0.2057
vn -0.7071 -0.6959 -0.1255
vn -0.7089 -0.6755 -0.2030
vn -0.7071 -0.7040 -0.0664
vn -0.7071 -0.7056 -0.0453
vn -0.7072 -0.7066 0.0259
vn -0.7071 -0.7062 0.0355
vn -0.7071 -0.6972 0.1176
vn -0.7071 -0.6977 0.1150
vn -0.7071 -0.6801 0.1937
vn -0.7071 -0.6760 0.2074
vn -0.7071 -0.6537 0.2697
vn -0.7071 -0.6432 0.2936
vn -0.7072 -0.6188 0.3420
vn -0.7072 -0.5995 0.3748
vn -0.0000 -0.9597 -0.2811
vn -0.0002 -0.9562 -0.2927
vn -0.0005 -0.9584 -0.2855
vn 0.0001 -0.9579 -0.2870
vn -0.0006 -0.9842 -0.1773
vn -0.0003 -0.9845 -0.1755
vn -0.0004 -0.9979 -0.0640
vn 0.0003 -0.9981 -0.0624
vn -0.0002 -0.9987 0.0502
vn -0.0001 -0.9987 0.0512
vn -0.0004 -0.9866 0.1629
vn -0.0000 -0.9865 0.1638
vn 0.0002 -0.9617 0.2741
vn 0.0002 -0.9615 0.2748
vn -0.0001 -0.9244 0.3814
vn -0.0001 -0.9243 0.3816
vn -0.0001 -0.8752 0.4837
vn -0.0000 -0.8752 0.4838
vn -0.0000 -0.7071 -0.7071
vn -0.0000 -0.7070 -0.7072
vn -0.0000 -0.9561 -0.2931
vn 0.0003 -0.9595 -0.2816
vn -0.0002 -0.9579 -0.2871
vn 0.0006 -0.9584 -0.2854
vn 0.0006 -0.9842 -0.1773
vn 0.0002 -0.9845 -0.1755
vn 0.0004 -0.9979 -0.0640
vn -0.0003 -0.9981 -0.0624
vn 0.0002 -0.9987 0.0502
vn 0.0001 -0.9987 0.0512
vn 0.0004 -0.9866 0.1629
vn -0.0002 -0.9617 0.2741
vn -0.0002 -0.9615 0.2748
vn 0.0001 -0.9244 0.3814
vn 0.0001 -0.9243 0.3816
vn 0.0001 -0.8752 0.4837
vn -0.0000 -0.0000 -1.0000
vn 0.7065 -0.6611 -0.2525
vn 0.7071 -0.6623 -0.2477
vn 0.7071 -0.6703 -0.2252
vn 0.7071 -0.6893 -0.1575
vn 0.7068 -0.6768 -0.2058
vn 0.7070 -0.6960 -0.1252
vn 0.7064 -0.6779 -0.2036
vn 0.7071 -0.7040 -0.0664
vn 0.7071 -0.7056 -0.0453
vn 0.7072 -0.7066 0.0259
vn 0.7070 -0.7063 0.0357
vn 0.7071 -0.6972 0.1176
vn 0.7071 -0.6977 0.1150
vn 0.7071 -0.6800 0.1938
vn 0.7071 -0.6760 0.2074
vn 0.7071 -0.6536 0.2697
vn 0.7071 -0.6432 0.2936
vn 0.7072 -0.6188 0.3420
vn 0.7072 -0.5995 0.3748
vn 0.7050 -0.6792 0.2041
vn 0.7070 -0.6960 0.1252
vn 0.7063 -0.6773 0.2061
vn 0.7071 -0.6893 0.1575
vn 0.7071 -0.6702 0.2253
vn 0.7069 -0.6626 0.2474
vn 0.7063 -0.6615 0.2521
vn 0.7071 -0.7040 0.0665
vn 0.7072 -0.7056 0.0453
vn 0.7071 -0.7066 -0.0259
vn 0.7071 -0.7062 -0.0355
vn 0.7071 -0.6973 -0.1177
vn 0.7071 -0.6977 -0.1150
vn 0.7071 -0.6801 -0.1936
vn 0.7072 -0.6759 -0.2074
vn 0.7071 -0.6536 -0.2697
vn 0.7072 -0.6432 -0.2936
vn 0.7072 -0.6187 -0.3422
vn 0.7072 -0.5995 -0.3748
vn 0.7064 0.6779 -0.2036
vn 0.7070 0.6960 -0.1253
vn 0.7068 0.6768 -0.2058
vn 0.7071 0.6893 -0.1575
vn 0.7071 0.6703 -0.2252
vn 0.7071 0.6623 -0.2477
vn 0.7065 0.6611 -0.2526
vn 0.7071 0.7040 -0.0664
vn 0.7071 0.7056 -0.0453
vn 0.7072 0.7066 0.0259
vn 0.7071 0.7062 0.0355
vn 0.7071 0.6972 0.1176
vn 0.7071 0.6977 0.1155
vn 0.7071 0.6800 0.1938
vn 0.7071 0.6760 0.2074
vn 0.7071 0.6536 0.2697
vn 0.7071 0.6432 0.2936
vn 0.7072 0.6188 0.3420
vn 0.7072 0.5995 0.3748
vn 0.7063 0.6615 0.2521
vn 0.7069 0.6626 0.2474
vn 0.7071 0.6702 0.2253
vn 0.7071 0.6893 0.1575
vn 0.7063 0.6773 0.2061
vn 0.7070 0.6960 0.1252
vn 0.7050 0.6792 0.2041
vn 0.7072 0.7039 0.0665
vn 0.7071 0.7056 0.0452
vn 0.7071 0.7066 -0.0259
vn 0.7070 0.7063 -0.0357
vn 0.7071 0.6973 -0.1177
vn 0.7071 0.6977 -0.1155
vn 0.7071 0.6800 -0.1937
vn 0.7072 0.6759 -0.2074
vn 0.7071 0.6536 -0.2697
vn 0.7072 0.6432 -0.2936
vn 0.7072 0.6187 -0.3422
vn 0.7072 0.5995 -0.3748
vn -0.0000 0.9523 0.3051
vn 0.0006 0.9594 0.2822
vn 0.0004 0.9568 0.2906
vn 0.0009 0.9583 0.2857
vn 0.0001 0.9842 0.1772
vn -0.0001 0.9856 0.1692
vn -0.0001 0.9979 0.0640
vn -0.0001 0.9987 0.0502
vn -0.0001 0.9987 -0.0502
vn 0.0001 0.9976 -0.0696
vn 0.0003 0.9866 -0.1629
vn 0.0003 0.9822 -0.1880
vn 0.0002 0.9617 -0.2739
vn 0.0001 0.9526 -0.3043
vn 0.0002 0.9244 -0.3815
vn -0.0000 0.8746 -0.4848
vn -0.0002 0.8528 -0.5222
vn -0.0000 -0.9597 0.2809
vn 0.0003 -0.9525 0.3046
vn 0.0007 -0.9583 0.2858
vn 0.0005 -0.9568 0.2907
vn 0.0001 -0.9842 0.1772
vn -0.0001 -0.9856 0.1692
vn -0.0001 -0.9979 0.0640
vn -0.0001 -0.9987 0.0502
vn -0.0001 -0.9987 -0.0502
vn 0.0003 -0.9866 -0.1629
vn 0.0003 -0.9822 -0.1880
vn 0.0002 -0.9617 -0.2739
vn 0.0001 -0.9526 -0.3043
vn 0.0002 -0.9244 -0.3815
vn -0.0002 -0.8528 -0.5222
vn -0.0000 0.9597 -0.2812
vn 0.0002 0.9562 -0.2928
vn 0.0005 0.9584 -0.2855
vn -0.0002 0.9579 -0.2871
vn 0.0006 0.9842 -0.1773
vn 0.0002 0.9845 -0.1755
vn 0.0004 0.9979 -0.0640
vn -0.0003 0.9981 -0.0624
vn 0.0002 0.9987 0.0502
vn 0.0001 0.9987 0.0512
vn 0.0004 0.9866 0.1629
vn -0.0000 0.9865 0.1638
vn -0.0002 0.9617 0.2741
vn -0.0002 0.9615 0.2748
vn 0.0001 0.9244 0.3814
vn 0.0001 0.9243 0.3816
vn 0.0001 0.8752 0.4837
vn -0.0000 0.8752 0.4838
vn -0.0000 0.7078 -0.7064
vn -0.0000 0.7075 -0.7067
vn -0.0000 0.7070 -0.7072
vn -0.0005 0.9584 -0.2855
vn -0.0002 0.9562 -0.2928
vn 0.0002 0.9579 -0.2871
vn -0.0001 0.9842 -0.1773
vn -0.0002 0.9845 -0.1755
vn -0.0004 0.9979 -0.0640
vn 0.0003 0.9981 -0.0624
vn -0.0002 0.9987 0.0502
vn -0.0001 0.9987 0.0512
vn -0.0004 0.9866 0.1629
vn 0.0002 0.9617 0.2741
vn 0.0002 0.9615 0.2748
vn -0.0001 0.9244 0.3814
vn -0.0001 0.9243 0.3816
vn -0.0001 0.8752 0.4837
vn -0.0000 -0.7058 0.7084
vn -0.0000 -0.7042 0.7100
vt 0.888005 0.460543
vt 0.563654 0.438373
vt 0.888005 0.438373
vt 0.914026 0.418977
vt 0.916586 0.438373
vt 0.563654 0.460543
vt 0.888005 0.482081
vt 0.563654 0.482081
vt 0.888005 0.502764
vt 0.563654 0.502764
vt 0.888005 0.522379
vt 0.563654 0.522379
vt 0.888005 0.540722
vt 0.563654 0.540722
vt 0.888005 0.557604
vt 0.563654 0.557604
vt 0.535073 0.438373
vt 0.537633 0.418977
vt 0.538489 0.399431
vt 0.913171 0.399431
vt 0.913171 0.444243
vt 0.941132 0.451843
vt 0.941132 0.140872
vt 0.913171 0.148472
vt 0.888005 0.148472
vt 0.563654 0.148472
vt 0.538489 0.148472
vt 0.563654 0.100628
vt 0.888005 0.100628
vt 0.510527 0.140872
vt 0.538489 0.444243
vt 0.510527 0.451843
vt 0.101543 0.130935
vt 0.426432 0.153141
vt 0.101543 0.153141
vt 0.075480 0.172570
vt 0.072915 0.153141
vt 0.426432 0.130935
vt 0.101543 0.109361
vt 0.426432 0.109361
vt 0.101543 0.088644
vt 0.426432 0.088644
vt 0.101543 0.068996
vt 0.426432 0.068996
vt 0.101543 0.050623
vt 0.426432 0.050623
vt 0.101543 0.033713
vt 0.426432 0.033713
vt 0.455060 0.153141
vt 0.452495 0.172570
vt 0.451638 0.192148
vt 0.076337 0.192148
vt 0.076337 0.147262
vt 0.048329 0.139649
vt 0.048329 0.451135
vt 0.076337 0.443521
vt 0.101543 0.443521
vt 0.426432 0.443521
vt 0.451638 0.443521
vt 0.426432 0.491445
vt 0.101543 0.491445
vt 0.479646 0.451135
vt 0.451638 0.147262
vt 0.479646 0.139649
vt 0.466822 0.026161
vt 0.453517 0.026220
vt 0.451004 0.020763
vt 0.449568 0.021942
vt 0.446767 0.015316
vt 0.460783 0.020741
vt 0.457961 0.015316
vt 0.465472 0.020728
vt 0.468443 0.015316
vt 0.479215 0.026088
vt 0.078407 0.021942
vt 0.076790 0.025916
vt 0.074459 0.026220
vt 0.869219 0.711020
vt 0.870522 0.718702
vt 0.869219 0.718076
vt 0.523330 0.565144
vt 0.536614 0.565085
vt 0.539122 0.570533
vt 0.540556 0.569355
vt 0.543352 0.575971
vt 0.529360 0.570555
vt 0.532177 0.575971
vt 0.524678 0.570568
vt 0.521712 0.575971
vt 0.510958 0.565216
vt 0.911104 0.569355
vt 0.912718 0.565388
vt 0.915046 0.565085
vt 0.042360 0.971427
vt 0.042360 0.795058
vt 0.050863 0.978831
vt 0.050863 0.787654
vt 0.051203 0.978594
vt 0.051203 0.787891
vt 0.928329 0.565144
vt 0.922300 0.570555
vt 0.908308 0.575971
vt 0.919483 0.575971
vt 0.926981 0.570568
vt 0.929948 0.575971
vt 0.940702 0.565216
vt 0.098262 0.023238
vt 0.090340 0.015316
vt 0.429713 0.023238
vt 0.437634 0.015316
vt 0.899190 0.575971
vt 0.888607 0.565388
vt 0.885961 0.710498
vt 0.885992 0.710355
vt 0.900379 0.710498
vt 0.831205 0.654823
vt 0.833858 0.604321
vt 0.833858 0.656874
vt 0.900930 0.709719
vt 0.888481 0.707839
vt 0.904141 0.707839
vt 0.552470 0.575971
vt 0.891281 0.568062
vt 0.560378 0.568062
vt 0.913849 0.714318
vt 0.929509 0.714318
vt 0.917060 0.716199
vt 0.931998 0.716835
vt 0.917611 0.716978
vt 0.932029 0.716978
vt 0.563052 0.565388
vt 0.538942 0.565388
vt 0.539104 0.567218
vt 0.880838 0.665327
vt 0.881679 0.665511
vt 0.879997 0.665511
vt 0.879997 0.664847
vt 0.880119 0.664788
vt 0.951236 0.968937
vt 0.951236 0.784282
vt 0.951566 0.969166
vt 0.951566 0.784054
vt 0.959799 0.961998
vt 0.959799 0.791222
vt 0.061153 0.026161
vt 0.067192 0.020741
vt 0.081208 0.015316
vt 0.070014 0.015316
vt 0.062503 0.020728
vt 0.059532 0.015316
vt 0.048760 0.026088
vt 0.100941 0.025916
vt 0.935690 0.667355
vt 0.931019 0.670091
vt 0.912907 0.667355
vt 0.909286 0.671016
vt 0.930218 0.671224
vt 0.909242 0.671224
vt 0.896482 0.710498
vt 0.882063 0.710498
vt 0.896451 0.710355
vt 0.881513 0.709719
vt 0.893962 0.707839
vt 0.878302 0.707839
vt 0.451185 0.025916
vt 0.427034 0.025916
vt 0.451022 0.024083
vt 0.451638 0.026228
vt 0.538489 0.565077
vt 0.563654 0.564786
vt 0.538489 0.547746
vt 0.563654 0.546535
vt 0.538489 0.530057
vt 0.563654 0.527903
vt 0.538489 0.512237
vt 0.563654 0.509159
vt 0.538489 0.494519
vt 0.563654 0.490571
vt 0.538489 0.477132
vt 0.563654 0.472405
vt 0.538489 0.460300
vt 0.563654 0.454923
vt 0.882072 0.648765
vt 0.887970 0.648765
vt 0.888081 0.648844
vt 0.510527 0.548701
vt 0.510527 0.564786
vt 0.510527 0.532128
vt 0.510527 0.515350
vt 0.510527 0.498651
vt 0.510527 0.482316
vt 0.510527 0.466625
vt 0.864764 0.960101
vt 0.864764 0.793119
vt 0.970633 0.682129
vt 0.943003 0.684952
vt 0.946620 0.683007
vt 0.944982 0.677833
vt 0.928742 0.677239
vt 0.948917 0.676659
vt 0.924903 0.675781
vt 0.921287 0.673836
vt 0.932738 0.678185
vt 0.940927 0.678485
vt 0.936823 0.678603
vt 0.626677 0.960101
vt 0.626677 0.793119
vt 0.540204 0.784282
vt 0.912094 0.713870
vt 0.893102 0.711930
vt 0.909608 0.712533
vt 0.906969 0.711531
vt 0.895807 0.711123
vt 0.904223 0.710881
vt 0.898594 0.710675
vt 0.901415 0.710594
vt 0.540204 0.968937
vt 0.882733 0.657657
vt 0.910363 0.654834
vt 0.906747 0.656779
vt 0.902908 0.658238
vt 0.886668 0.658831
vt 0.898912 0.659183
vt 0.890722 0.659483
vt 0.894827 0.659601
vt 0.950458 0.681549
vt 0.966698 0.680955
vt 0.954454 0.680603
vt 0.962644 0.680303
vt 0.958539 0.680185
vt 0.048329 0.026519
vt 0.048329 0.042631
vt 0.076337 0.043587
vt 0.076337 0.026228
vt 0.048329 0.059231
vt 0.076337 0.061306
vt 0.048329 0.076037
vt 0.076337 0.079155
vt 0.048329 0.092764
vt 0.076337 0.096902
vt 0.076337 0.114318
vt 0.048329 0.109125
vt 0.076337 0.131178
vt 0.048329 0.124843
vt 0.872362 0.666062
vt 0.866463 0.666062
vt 0.872473 0.665983
vt 0.101543 0.026519
vt 0.101543 0.044801
vt 0.101543 0.063463
vt 0.101543 0.082238
vt 0.101543 0.100857
vt 0.101543 0.119053
vt 0.101543 0.136564
vt 0.698513 0.604321
vt 0.696830 0.610083
vt 0.654073 0.628677
vt 0.693724 0.623164
vt 0.691962 0.636492
vt 0.657044 0.639350
vt 0.691563 0.649930
vt 0.661269 0.649591
vt 0.666688 0.659254
vt 0.692531 0.663339
vt 0.673222 0.668200
vt 0.680779 0.676301
vt 0.694855 0.676581
vt 0.689249 0.683441
vt 0.698513 0.689518
vt 0.426432 0.026519
vt 0.743057 0.689518
vt 0.698617 0.665162
vt 0.741374 0.683756
vt 0.738268 0.670675
vt 0.736506 0.657347
vt 0.701588 0.654489
vt 0.736107 0.643909
vt 0.705813 0.644248
vt 0.711232 0.634585
vt 0.737075 0.630500
vt 0.717766 0.625639
vt 0.725323 0.617538
vt 0.739399 0.617258
vt 0.733794 0.610398
vt 0.743057 0.604321
vt 0.262580 0.661778
vt 0.262580 0.708720
vt 0.068555 0.661778
vt 0.068555 0.708720
vt 0.051343 0.622839
vt 0.051343 0.747659
vt 0.057199 0.754078
vt 0.068555 0.760835
vt 0.910484 0.712809
vt 0.908453 0.716221
vt 0.908453 0.714688
vt 0.262580 0.609663
vt 0.273935 0.616421
vt 0.279791 0.622839
vt 0.279791 0.747659
vt 0.912111 0.647643
vt 0.912111 0.649874
vt 0.909156 0.652608
vt 0.273935 0.754078
vt 0.262580 0.760835
vt 0.905066 0.689719
vt 0.908020 0.694683
vt 0.905066 0.691950
vt 0.057199 0.616421
vt 0.068555 0.609663
vt 0.927719 0.688372
vt 0.924765 0.683408
vt 0.927719 0.686142
vt 0.449568 0.568841
vt 0.451185 0.564867
vt 0.453517 0.564563
vt 0.669950 0.050128
vt 0.662308 0.050163
vt 0.660865 0.047028
vt 0.660039 0.047705
vt 0.658431 0.043899
vt 0.912538 0.022182
vt 0.908308 0.016744
vt 0.922300 0.022160
vt 0.919483 0.016744
vt 0.926981 0.022148
vt 0.929948 0.016744
vt 0.940702 0.027499
vt 0.928329 0.027571
vt 0.540556 0.023360
vt 0.538942 0.027327
vt 0.536614 0.027630
vt 0.061153 0.564623
vt 0.074459 0.564563
vt 0.076971 0.570021
vt 0.078407 0.568841
vt 0.081208 0.575467
vt 0.067192 0.570043
vt 0.070014 0.575467
vt 0.062503 0.570055
vt 0.059532 0.575467
vt 0.048760 0.564695
vt 0.446767 0.575467
vt 0.437634 0.575467
vt 0.427034 0.564867
vt 0.660968 0.049988
vt 0.647097 0.049988
vt 0.653185 0.043899
vt 0.090340 0.575467
vt 0.429713 0.567546
vt 0.098262 0.567546
vt 0.930887 0.671224
vt 0.908104 0.671224
vt 0.926216 0.668488
vt 0.904483 0.667563
vt 0.925415 0.667355
vt 0.904438 0.667355
vt 0.560378 0.024653
vt 0.552470 0.016744
vt 0.891281 0.024653
vt 0.899190 0.016744
vt 0.100941 0.564867
vt 0.076790 0.564867
vt 0.076953 0.566700
vt 0.531641 0.961998
vt 0.531641 0.791222
vt 0.539875 0.969166
vt 0.539875 0.784054
vt 0.941945 0.714420
vt 0.901290 0.714420
vt 0.941895 0.714318
vt 0.901340 0.714318
vt 0.523330 0.027571
vt 0.529360 0.022160
vt 0.543352 0.016744
vt 0.532177 0.016744
vt 0.524678 0.022148
vt 0.521712 0.016744
vt 0.510958 0.027499
vt 0.563052 0.027327
vt 0.893180 0.707839
vt 0.893150 0.707982
vt 0.878762 0.707839
vt 0.878211 0.708618
vt 0.890660 0.710498
vt 0.875001 0.710498
vt 0.889263 0.707839
vt 0.903681 0.707839
vt 0.889293 0.707982
vt 0.904232 0.708618
vt 0.891782 0.710498
vt 0.907442 0.710498
vt 0.839509 0.753412
vt 0.832899 0.742128
vt 0.839509 0.698371
vt 0.830663 0.689622
vt 0.830161 0.740192
vt 0.907088 0.676386
vt 0.886156 0.676177
vt 0.907132 0.676177
vt 0.008959 5.127621
vt 0.122952 5.180443
vt 0.061476 5.167025
vt 0.000000 5.180443
vt 0.000000 5.131926
vt 0.661229 0.050167
vt 0.660875 0.048935
vt 0.894888 0.667355
vt 0.953889 0.667355
vt 0.894815 0.667504
vt 0.953962 0.667504
vt 0.476040 0.978831
vt 0.476040 0.787654
vt 0.484543 0.971427
vt 0.484543 0.795058
vt 0.466822 0.564623
vt 0.460783 0.570043
vt 0.457961 0.575467
vt 0.465472 0.570055
vt 0.468443 0.575467
vt 0.479215 0.564695
vt 0.076337 0.564556
vt 0.048329 0.548153
vt 0.048329 0.564264
vt 0.875160 0.661830
vt 0.879589 0.660759
vt 0.875309 0.661911
vt 0.076337 0.547196
vt 0.048329 0.531552
vt 0.076337 0.529477
vt 0.048329 0.514746
vt 0.076337 0.511629
vt 0.048329 0.498020
vt 0.076337 0.493882
vt 0.076337 0.476465
vt 0.048329 0.481659
vt 0.076337 0.459606
vt 0.048329 0.465941
vt 0.890918 0.652916
vt 0.895198 0.654069
vt 0.890769 0.652997
vt 0.510527 0.027929
vt 0.510527 0.044014
vt 0.538489 0.044969
vt 0.538489 0.027638
vt 0.510527 0.060587
vt 0.538489 0.062658
vt 0.510527 0.077365
vt 0.538489 0.080478
vt 0.510527 0.094064
vt 0.538489 0.098196
vt 0.538489 0.115583
vt 0.510527 0.110398
vt 0.538489 0.132415
vt 0.510527 0.126090
vt 0.887970 0.671270
vt 0.882072 0.671270
vt 0.888081 0.671191
vt 0.881925 0.671117
vt 0.563654 0.027929
vt 0.563654 0.045225
vt 0.563654 0.062875
vt 0.563654 0.080651
vt 0.563654 0.098324
vt 0.563654 0.115666
vt 0.563654 0.132455
vt 0.743057 0.689622
vt 0.728453 0.748605
vt 0.699661 0.715794
vt 0.702864 0.725800
vt 0.707179 0.735379
vt 0.712553 0.744406
vt 0.718915 0.752767
vt 0.726184 0.760352
vt 0.734266 0.767065
vt 0.743057 0.772819
vt 0.888005 0.027929
vt 0.786556 0.772819
vt 0.743161 0.746647
vt 0.771953 0.713836
vt 0.746363 0.736641
vt 0.750679 0.727062
vt 0.756053 0.718035
vt 0.762415 0.709674
vt 0.769684 0.702089
vt 0.777766 0.695376
vt 0.786556 0.689622
vt -0.010758 -3.575692
vt -0.441900 -3.575692
vt -0.000000 -3.586925
vt -0.450000 -3.581496
vt 0.646750 0.050334
vt 0.661229 0.060138
vt 0.646750 0.060285
vt 0.661229 0.070315
vt 0.646750 0.070440
vt 0.888005 0.062875
vt 0.913171 0.062658
vt 0.913171 0.080478
vt 0.888005 0.080651
vt 0.913171 0.098196
vt 0.888005 0.098324
vt 0.913171 0.115583
vt 0.888005 0.115666
vt 0.913171 0.132415
vt 0.888005 0.132455
vt 0.532380 0.651441
vt 0.532380 0.699371
vt 0.334271 0.651441
vt 0.334271 0.699371
vt 0.316696 0.611682
vt 0.316696 0.739130
vt 0.322676 0.745683
vt 0.334271 0.752584
vt 0.918763 0.652608
vt 0.921717 0.647643
vt 0.921717 0.649874
vt 0.532380 0.598228
vt 0.543975 0.605128
vt 0.549954 0.611682
vt 0.549954 0.739130
vt 0.915056 0.716221
vt 0.915056 0.714688
vt 0.917087 0.712809
vt 0.543975 0.745683
vt 0.532380 0.752584
vt 0.937326 0.688372
vt 0.934371 0.683408
vt 0.937326 0.686142
vt 0.322676 0.605128
vt 0.334271 0.598228
vt 0.914672 0.689719
vt 0.917627 0.694683
vt 0.914672 0.691950
vt 0.900294 0.652916
vt 0.900442 0.652997
vt 0.896013 0.654069
vt 0.941132 0.027929
vt 0.941132 0.044014
vt 0.915046 0.027630
vt 0.677316 0.059588
vt 0.941132 0.060587
vt 0.913171 0.044969
vt 0.941132 0.077365
vt 0.941132 0.094064
vt 0.941132 0.110398
vt 0.941132 0.126090
vt 0.913171 0.565077
vt 0.913171 0.547746
vt 0.941132 0.548701
vt 0.941132 0.564786
vt 0.941132 0.532128
vt 0.913171 0.530057
vt 0.941132 0.515350
vt 0.913171 0.512237
vt 0.941132 0.498651
vt 0.913171 0.494519
vt 0.913171 0.477132
vt 0.941132 0.482316
vt 0.913171 0.460300
vt 0.941132 0.466625
vt 0.140508 0.969468
vt 0.891410 0.717602
vt 0.902573 0.718010
vt 0.888706 0.718409
vt 0.905211 0.719012
vt 0.907697 0.720349
vt 0.899826 0.717360
vt 0.894197 0.717154
vt 0.897018 0.717073
vt 0.140508 0.797017
vt 0.386395 0.797017
vt 0.386395 0.969468
vt 0.475700 0.787891
vt 0.475700 0.978594
vt 0.451638 0.564556
vt 0.451638 0.547196
vt 0.479646 0.548153
vt 0.479646 0.564264
vt 0.880404 0.660759
vt 0.884834 0.661830
vt 0.884685 0.661911
vt 0.479646 0.531552
vt 0.451638 0.529477
vt 0.479646 0.514746
vt 0.451638 0.511629
vt 0.479646 0.498020
vt 0.451638 0.493882
vt 0.451638 0.476465
vt 0.479646 0.481659
vt 0.451638 0.459606
vt 0.479646 0.465941
vt 0.479646 0.026519
vt 0.479646 0.042631
vt 0.451638 0.043587
vt 0.479646 0.059231
vt 0.451638 0.061306
vt 0.479646 0.076037
vt 0.451638 0.079155
vt 0.479646 0.092764
vt 0.451638 0.096902
vt 0.451638 0.114318
vt 0.479646 0.109125
vt 0.451638 0.131178
vt 0.479646 0.124843
vt 0.426432 0.044801
vt 0.426432 0.063463
vt 0.426432 0.082238
vt 0.426432 0.100857
vt 0.426432 0.119053
vt 0.426432 0.136564
vt 0.698513 0.774819
vt 0.654073 0.750463
vt 0.696830 0.769057
vt 0.693724 0.755976
vt 0.691962 0.742648
vt 0.657044 0.739790
vt 0.691563 0.729210
vt 0.661269 0.729549
vt 0.666688 0.719886
vt 0.692531 0.715801
vt 0.673222 0.710940
vt 0.680779 0.702839
vt 0.694855 0.702559
vt 0.689249 0.695699
vt 0.698513 0.689622
vt 0.787601 0.604321
vt 0.785918 0.610083
vt 0.743161 0.628677
vt 0.782812 0.623164
vt 0.781050 0.636492
vt 0.746132 0.639350
vt 0.780651 0.649930
vt 0.750357 0.649591
vt 0.755776 0.659254
vt 0.781619 0.663339
vt 0.762310 0.668200
vt 0.769867 0.676301
vt 0.783943 0.676581
vt 0.778338 0.683441
vt 0.787601 0.689518
vt 0.889560 0.648765
vt 0.895458 0.648765
vt 0.889449 0.648844
vt 0.888005 0.564786
vt 0.888005 0.546535
vt 0.888005 0.527903
vt 0.888005 0.509159
vt 0.888005 0.490571
vt 0.888005 0.472405
vt 0.888005 0.454923
vt 0.830056 0.689622
vt 0.815453 0.748605
vt 0.786661 0.715794
vt 0.789863 0.725800
vt 0.794179 0.735379
vt 0.799553 0.744406
vt 0.805915 0.752767
vt 0.813184 0.760352
vt 0.821265 0.767065
vt 0.830056 0.772819
vt 0.873951 0.643557
vt 0.879850 0.643557
vt 0.873841 0.643636
vt 0.879997 0.643710
vt 0.426432 0.564264
vt 0.426432 0.546940
vt 0.426432 0.529261
vt 0.426432 0.511455
vt 0.426432 0.493753
vt 0.426432 0.476382
vt 0.426432 0.459566
vt 0.101543 0.564264
vt 0.872362 0.643557
vt 0.872473 0.643636
vt 0.866463 0.643557
vt 0.866316 0.643710
vt 0.101543 0.546940
vt 0.101543 0.529261
vt 0.101543 0.511455
vt 0.101543 0.493753
vt 0.101543 0.476382
vt 0.101543 0.459566
vt 0.831100 0.687517
vt 0.787705 0.661346
vt 0.816497 0.628535
vt 0.790907 0.651340
vt 0.795223 0.641761
vt 0.800597 0.632733
vt 0.806959 0.624373
vt 0.814228 0.616787
vt 0.822310 0.610074
vt 0.831100 0.604321
s 1
usemtl mat_car_rc_body_futur
f 2/1/1 14/2/2 1/3/2
f 1/3/2 14/2/2 19/4/3
f 1/3/2 19/4/3 20/5/2
f 14/2/2 2/1/1 13/6/1
f 13/6/1 2/1/1 3/7/4
f 13/6/1 3/7/4 12/8/4
f 12/8/4 3/7/4 4/9/5
f 12/8/4 4/9/5 11/10/5
f 11/10/5 4/9/5 5/11/6
f 11/10/5 5/11/6 10/12/6
f 10/12/6 5/11/6 6/13/7
f 10/12/6 6/13/7 9/14/7
f 9/14/7 6/13/7 7/15/8
f 9/14/7 7/15/8 8/16/8
f 15/17/2 16/18/3 14/2/2
f 14/2/2 16/18/3 19/4/3
f 17/19/9 18/20/9 16/18/3
f 16/18/3 18/20/9 19/4/3
f 21/21/10 20/5/11 24/22/12
f 24/22/12 20/5/11 23/23/13
f 23/23/13 20/5/11 18/20/14
f 23/23/13 18/20/14 22/24/13
f 20/5/11 19/4/15 18/20/14
f 22/24/16 18/20/9 29/25/16
f 29/25/16 18/20/9 17/19/9
f 29/25/16 17/19/9 26/26/16
f 26/26/16 17/19/9 25/27/16
f 27/28/16 28/29/16 26/26/16
f 26/26/16 28/29/16 29/25/16
f 16/18/17 15/17/18 17/19/19
f 17/19/19 15/17/18 32/30/20
f 17/19/19 32/30/20 25/27/20
f 30/31/21 31/32/22 15/17/18
f 15/17/18 31/32/22 32/30/20
f 34/33/23 46/34/24 33/35/24
f 33/35/24 46/34/24 51/36/25
f 33/35/24 51/36/25 52/37/24
f 46/34/24 34/33/23 45/38/23
f 45/38/23 34/33/23 35/39/26
f 45/38/23 35/39/26 44/40/26
f 44/40/26 35/39/26 36/41/27
f 44/40/26 36/41/27 43/42/27
f 43/42/27 36/41/27 37/43/28
f 43/42/27 37/43/28 42/44/28
f 42/44/28 37/43/28 38/45/29
f 42/44/28 38/45/29 41/46/29
f 41/46/29 38/45/29 39/47/30
f 41/46/29 39/47/30 40/48/30
f 47/49/24 48/50/25 46/34/24
f 46/34/24 48/50/25 51/36/25
f 49/51/31 50/52/31 48/50/25
f 48/50/25 50/52/31 51/36/25
f 53/53/32 52/37/33 56/54/34
f 56/54/34 52/37/33 55/55/35
f 55/55/35 52/37/33 50/52/36
f 55/55/35 50/52/36 54/56/35
f 52/37/33 51/36/37 50/52/36
f 54/56/38 50/52/31 61/57/38
f 61/57/38 50/52/31 49/51/31
f 61/57/38 49/51/31 58/58/38
f 58/58/38 49/51/31 57/59/38
f 59/60/38 60/61/38 58/58/38
f 58/58/38 60/61/38 61/57/38
f 48/50/39 47/49/40 49/51/41
f 49/51/41 47/49/40 64/62/42
f 49/51/41 64/62/42 57/59/42
f 62/63/43 63/64/44 47/49/40
f 47/49/40 63/64/44 64/62/42
f 71/65/45 65/66/46 72/67/47
f 72/67/47 65/66/46 66/68/48
f 72/67/47 66/68/48 67/69/49
f 72/67/47 67/69/49 74/70/50
f 74/70/50 67/69/49 68/71/51
f 74/70/50 68/71/51 73/72/52
f 73/72/52 68/71/51 69/73/53
f 73/72/52 69/73/53 70/74/54
f 70/74/54 71/65/45 73/72/52
f 73/72/52 71/65/45 74/70/50
f 74/70/50 71/65/45 72/67/47
f 76/75/55 77/76/56 75/77/57
f 75/78/57 77/79/56 78/80/58
f 85/81/59 79/82/60 86/83/61
f 86/83/61 79/82/60 80/84/62
f 86/83/61 80/84/62 81/85/63
f 86/83/61 81/85/63 88/86/64
f 88/86/64 81/85/63 82/87/65
f 88/86/64 82/87/65 87/88/66
f 87/88/66 82/87/65 83/89/67
f 87/88/66 83/89/67 84/90/68
f 84/90/68 85/81/59 87/88/66
f 87/88/66 85/81/59 88/86/64
f 88/86/64 85/81/59 86/83/61
f 90/91/69 91/92/70 89/93/71
f 89/78/71 91/79/70 92/80/72
f 69/94/73 93/95/73 70/96/73
f 70/96/73 93/95/73 94/97/73
f 70/96/73 94/97/73 96/98/73
f 96/98/73 94/97/73 95/99/73
f 89/93/71 97/100/74 90/91/69
f 90/91/69 97/100/74 100/101/75
f 90/91/69 100/101/75 99/102/76
f 99/102/76 100/101/75 98/103/77
f 98/103/77 100/101/75 101/104/78
f 98/103/77 101/104/78 93/105/79
f 93/105/79 101/104/78 94/106/80
f 94/106/80 101/104/78 97/100/74
f 97/100/74 101/104/78 100/101/75
f 103/107/81 104/108/81 102/109/81
f 102/109/81 104/108/81 105/110/81
f 99/102/82 106/111/83 90/91/84
f 90/91/84 106/111/83 107/112/85
f 90/91/84 107/112/85 91/92/86
f 109/113/87 110/114/88 108/115/89
f 108/116/89 110/117/88 103/118/90
f 103/119/90 110/114/88 111/120/91
f 103/119/90 111/120/91 104/121/92
f 112/111/93 113/122/93 115/123/93
f 115/123/93 113/122/93 114/124/93
f 113/125/92 116/126/94 114/127/90
f 114/127/90 116/126/94 117/128/88
f 114/127/90 117/128/88 119/129/95
f 119/129/95 117/128/88 118/130/87
f 81/85/82 80/84/96 116/122/97
f 116/122/97 80/84/96 117/131/98
f 117/131/98 80/84/96 120/132/86
f 120/132/99 80/84/62 122/133/100
f 122/134/100 80/135/62 79/136/60
f 122/134/100 79/136/60 121/137/101
f 121/137/101 120/138/99 122/134/100
f 123/139/102 124/140/103 126/141/104
f 126/141/104 124/140/103 84/142/104
f 126/141/104 84/142/104 125/143/105
f 125/143/105 84/142/104 83/144/105
f 75/77/57 127/145/106 76/75/55
f 76/75/55 127/145/106 130/146/107
f 76/75/55 130/146/107 129/147/108
f 129/147/108 130/146/107 128/148/109
f 128/148/109 130/146/107 131/149/110
f 128/148/109 131/149/110 125/150/111
f 125/150/111 131/149/110 126/151/112
f 126/151/112 131/149/110 127/145/106
f 127/145/106 131/149/110 130/146/107
f 77/76/113 76/75/114 110/152/115
f 110/152/115 76/75/114 111/108/116
f 111/108/116 76/75/114 129/147/117
f 112/153/105 115/154/118 106/155/105
f 106/155/105 115/154/118 107/156/119
f 107/156/119 115/154/118 132/157/120
f 107/156/119 132/157/120 133/158/121
f 134/159/121 135/160/122 137/161/119
f 137/161/119 135/160/122 102/162/118
f 137/161/119 102/162/118 136/163/105
f 136/163/105 102/162/118 105/164/105
f 138/165/113 137/166/123 66/68/124
f 66/68/124 137/166/123 136/110/125
f 66/68/124 136/110/125 67/69/117
f 138/138/126 66/135/48 140/134/127
f 140/134/127 66/135/48 65/136/46
f 140/167/127 65/66/46 139/168/128
f 139/137/128 138/138/126 140/134/127
f 117/131/129 121/169/130 118/170/131
f 118/170/131 121/169/130 141/171/132
f 118/170/131 141/171/132 152/172/133
f 152/172/133 141/171/132 142/173/134
f 152/172/133 142/173/134 151/174/135
f 151/174/135 142/173/134 143/175/136
f 151/174/135 143/175/136 150/176/137
f 150/176/137 143/175/136 144/177/138
f 150/176/137 144/177/138 149/178/139
f 149/178/139 144/177/138 145/179/140
f 149/178/139 145/179/140 148/180/141
f 148/180/141 145/179/140 146/181/142
f 148/180/141 146/181/142 147/182/143
f 147/182/143 146/181/142 30/31/144
f 147/182/143 30/31/144 14/2/145
f 14/2/145 30/31/144 15/17/146
f 117/183/129 120/184/147 121/185/130
f 121/169/148 79/82/149 153/186/150
f 153/186/150 79/82/149 85/81/151
f 153/186/150 85/81/151 124/187/152
f 124/187/152 85/81/151 84/90/153
f 121/169/148 153/186/150 141/171/154
f 141/171/154 153/186/150 154/188/155
f 141/171/154 154/188/155 142/173/156
f 142/173/156 154/188/155 155/189/157
f 142/173/156 155/189/157 143/175/158
f 143/175/158 155/189/157 156/190/159
f 143/175/158 156/190/159 144/177/160
f 144/177/160 156/190/159 145/179/161
f 145/179/161 156/190/159 157/191/162
f 145/179/161 157/191/162 146/181/163
f 146/181/163 157/191/162 158/192/164
f 146/181/163 158/192/164 30/31/165
f 30/31/165 158/192/164 31/32/166
f 123/139/167 56/193/167 124/140/167
f 124/140/167 56/193/167 31/194/167
f 124/195/167 31/196/167 158/197/167
f 159/198/167 163/199/167 123/200/167
f 123/200/167 163/199/167 164/201/167
f 123/200/167 164/201/167 56/202/167
f 163/199/167 159/198/167 162/203/167
f 162/203/167 159/198/167 160/204/167
f 162/203/167 160/204/167 161/205/167
f 56/193/167 55/206/167 31/194/167
f 31/194/167 55/206/167 32/207/167
f 32/207/167 55/206/167 172/208/167
f 32/209/167 172/210/167 178/211/167
f 178/211/167 172/210/167 177/212/167
f 177/212/167 172/210/167 173/213/167
f 177/212/167 173/213/167 176/214/167
f 176/214/167 173/213/167 174/215/167
f 176/214/167 174/215/167 175/216/167
f 172/208/167 55/206/167 171/217/167
f 171/218/167 55/219/167 165/220/167
f 171/218/167 165/220/167 166/221/167
f 171/218/167 166/221/167 170/222/167
f 170/222/167 166/221/167 167/223/167
f 170/222/167 167/223/167 169/224/167
f 169/224/167 167/223/167 168/225/167
f 158/197/167 157/226/167 124/195/167
f 124/195/167 157/226/167 153/227/167
f 153/227/167 157/226/167 156/228/167
f 153/227/167 156/228/167 154/229/167
f 154/229/167 156/228/167 155/230/167
f 126/151/168 127/145/169 123/231/170
f 123/231/170 127/145/169 159/232/171
f 159/232/171 127/145/169 75/77/172
f 159/232/171 75/77/172 179/233/173
f 179/233/173 75/77/172 78/234/174
f 159/232/171 179/233/173 160/235/175
f 160/235/175 179/233/173 180/236/176
f 160/235/175 180/236/176 161/237/177
f 161/237/177 180/236/176 181/238/178
f 161/237/177 181/238/178 162/239/179
f 162/239/179 181/238/178 182/240/180
f 162/239/179 182/240/180 183/241/181
f 162/239/179 183/241/181 163/242/182
f 163/242/182 183/241/181 184/243/183
f 163/242/182 184/243/183 164/244/184
f 164/244/184 184/243/183 53/53/185
f 164/244/184 53/53/185 56/54/186
f 77/245/187 110/246/188 78/247/189
f 78/234/189 110/152/188 109/248/190
f 78/234/189 109/248/190 179/233/191
f 179/233/191 109/248/190 185/249/192
f 179/233/191 185/249/192 180/236/193
f 180/236/193 185/249/192 186/250/194
f 180/236/193 186/250/194 181/238/195
f 181/238/195 186/250/194 187/251/196
f 181/238/195 187/251/196 182/240/197
f 182/240/197 187/251/196 188/252/198
f 182/240/197 188/252/198 183/241/199
f 183/241/199 188/252/198 189/253/200
f 183/241/199 189/253/200 184/243/201
f 184/243/201 189/253/200 190/254/202
f 184/243/201 190/254/202 53/53/203
f 53/53/203 190/254/202 33/35/204
f 53/53/203 33/35/204 52/37/205
f 108/255/206 39/256/206 109/257/206
f 109/257/206 39/256/206 38/258/206
f 109/257/206 38/258/206 37/259/206
f 109/257/206 37/259/206 185/260/206
f 185/260/206 37/259/206 36/261/206
f 185/260/206 36/261/206 186/262/206
f 186/262/206 36/261/206 187/263/206
f 187/263/206 36/261/206 35/264/206
f 187/263/206 35/264/206 188/265/206
f 188/265/206 35/264/206 189/266/206
f 189/266/206 35/264/206 34/267/206
f 189/266/206 34/267/206 190/268/206
f 190/268/206 34/267/206 33/269/206
f 40/48/30 39/47/30 135/270/207
f 135/270/207 39/47/30 108/248/207
f 135/270/207 108/248/207 102/109/208
f 102/109/208 108/248/207 103/107/208
f 135/271/167 134/272/167 40/273/167
f 40/273/167 134/272/167 41/274/167
f 41/274/167 134/272/167 42/275/167
f 42/275/167 134/272/167 191/276/167
f 42/275/167 191/276/167 43/277/167
f 43/277/167 191/276/167 192/278/167
f 43/277/167 192/278/167 193/279/167
f 43/277/167 193/279/167 44/280/167
f 44/280/167 193/279/167 194/281/167
f 44/280/167 194/281/167 195/282/167
f 44/280/167 195/282/167 45/283/167
f 45/283/167 195/282/167 196/284/167
f 45/283/167 196/284/167 46/285/167
f 112/286/209 105/287/209 113/288/209
f 113/288/209 105/287/209 104/289/209
f 113/288/209 104/289/209 83/290/209
f 83/290/209 104/289/209 125/291/209
f 125/291/209 104/289/209 128/292/209
f 128/292/209 104/289/209 111/293/209
f 128/294/209 111/295/209 129/296/209
f 106/297/209 98/298/209 112/286/209
f 112/286/209 98/298/209 93/299/209
f 112/286/209 93/299/209 69/300/209
f 106/301/209 99/302/209 98/303/209
f 112/286/209 69/300/209 105/287/209
f 105/287/209 69/300/209 68/304/209
f 105/287/209 68/304/209 136/305/209
f 136/306/209 68/307/209 67/308/209
f 83/290/209 82/309/209 113/288/209
f 113/288/209 82/309/209 116/310/209
f 116/311/209 82/312/209 81/313/209
f 198/314/210 199/315/211 197/316/212
f 197/78/212 199/79/211 200/80/213
f 207/317/214 201/318/215 208/319/216
f 208/319/216 201/318/215 202/320/217
f 208/319/216 202/320/217 203/321/218
f 208/322/216 203/323/218 210/324/219
f 210/324/219 203/323/218 204/325/220
f 210/324/219 204/325/220 209/326/221
f 209/326/221 204/325/220 205/327/222
f 209/326/221 205/327/222 206/328/223
f 206/328/223 207/329/214 209/326/221
f 209/326/221 207/329/214 210/324/219
f 210/324/219 207/329/214 208/322/216
f 212/330/224 213/331/225 211/332/226
f 211/78/226 213/79/225 214/80/227
f 221/333/228 215/334/229 222/335/230
f 222/335/230 215/334/229 216/336/231
f 222/335/230 216/336/231 217/337/232
f 222/335/230 217/337/232 224/338/233
f 224/338/233 217/337/232 218/339/234
f 224/338/233 218/339/234 223/340/235
f 223/340/235 218/339/234 219/341/236
f 223/340/235 219/341/236 220/342/237
f 220/342/237 221/333/228 223/340/235
f 223/340/235 221/333/228 224/338/233
f 224/338/233 221/333/228 222/335/230
f 225/343/238 226/344/239 198/314/240
f 198/314/240 226/344/239 227/345/241
f 198/314/240 227/345/241 199/315/242
f 228/346/243 229/347/244 202/320/245
f 202/320/245 229/347/244 230/348/246
f 202/320/245 230/348/246 203/321/247
f 231/344/248 232/349/248 234/350/248
f 234/350/248 232/349/248 233/351/248
f 232/352/249 235/353/250 233/354/251
f 233/354/251 235/353/250 236/355/252
f 233/354/251 236/355/252 238/356/250
f 238/356/250 236/355/252 237/357/253
f 240/358/254 241/359/254 239/360/254
f 239/360/254 241/359/254 242/361/254
f 217/337/238 216/336/255 235/349/256
f 235/349/256 216/336/255 236/362/257
f 236/362/257 216/336/255 243/363/242
f 243/138/258 216/135/231 245/134/259
f 245/364/259 216/336/231 215/334/229
f 245/134/259 215/136/229 244/137/260
f 244/137/260 243/138/258 245/134/259
f 219/365/261 246/366/261 220/367/262
f 220/367/262 246/366/261 247/368/262
f 220/369/262 247/370/262 171/371/263
f 171/371/263 247/370/262 172/372/263
f 211/332/226 248/373/264 212/330/224
f 212/330/224 248/373/264 251/374/265
f 212/330/224 251/374/265 250/375/266
f 250/375/266 251/374/265 249/376/267
f 249/376/267 251/374/265 252/377/268
f 249/376/267 252/377/268 246/378/269
f 246/378/269 252/377/268 247/379/270
f 247/379/270 252/377/268 248/373/264
f 248/373/264 252/377/268 251/374/265
f 213/331/243 212/330/271 253/380/272
f 253/380/272 212/330/271 254/359/273
f 254/359/273 212/330/271 250/375/247
f 256/381/253 253/382/252 255/383/274
f 255/383/274 253/382/252 240/384/251
f 240/384/251 253/382/252 254/385/274
f 240/384/251 254/385/274 241/386/249
f 257/387/275 258/388/276 229/389/277
f 229/389/277 258/388/276 239/390/278
f 229/389/277 239/390/278 230/391/279
f 230/391/279 239/390/278 242/392/279
f 231/393/279 234/394/278 226/395/279
f 226/395/279 234/394/278 227/396/277
f 227/396/277 234/394/278 259/397/280
f 227/398/277 259/399/280 260/400/281
f 228/401/282 202/402/217 262/403/283
f 262/403/283 202/402/217 201/404/215
f 262/403/283 201/404/215 261/405/284
f 261/406/284 228/346/282 262/407/283
f 263/408/285 264/409/285 266/410/251
f 266/410/251 264/409/285 206/411/251
f 266/412/251 206/413/251 265/414/286
f 265/414/286 206/413/251 205/415/286
f 197/316/212 267/416/287 198/314/210
f 198/314/210 267/416/287 269/417/288
f 198/314/210 269/417/288 225/343/289
f 225/343/289 269/417/288 268/418/290
f 268/418/290 269/417/288 270/419/291
f 268/418/290 270/419/291 265/420/292
f 265/420/292 270/419/291 266/421/293
f 266/421/293 270/419/291 267/416/287
f 267/416/287 270/419/291 269/417/288
f 244/422/294 215/334/295 170/423/296
f 170/423/296 215/334/295 221/333/297
f 170/423/296 221/333/297 171/424/298
f 171/425/298 221/426/297 220/427/299
f 244/422/294 170/423/296 276/428/300
f 276/428/300 170/423/296 169/429/301
f 276/428/300 169/429/301 275/430/302
f 275/430/302 169/429/301 168/431/303
f 275/430/302 168/431/303 274/432/304
f 274/432/304 168/431/303 167/433/305
f 274/432/304 167/433/305 273/434/306
f 273/434/306 167/433/305 272/435/307
f 272/435/307 167/433/305 166/436/308
f 272/435/307 166/436/308 271/437/309
f 271/437/309 166/436/308 165/438/310
f 271/437/309 165/438/310 54/56/311
f 54/56/311 165/438/310 55/55/312
f 247/439/313 248/440/314 172/441/315
f 172/442/315 248/373/314 173/443/316
f 173/443/316 248/373/314 211/332/317
f 173/443/316 211/332/317 277/444/318
f 277/444/318 211/332/317 214/445/319
f 173/443/316 277/444/318 174/446/320
f 174/446/320 277/444/318 278/447/321
f 174/446/320 278/447/321 175/448/322
f 175/448/322 278/447/321 279/449/323
f 175/448/322 279/449/323 176/450/324
f 176/450/324 279/449/323 280/451/325
f 176/450/324 280/451/325 281/452/326
f 176/450/324 281/452/326 177/453/327
f 177/453/327 281/452/326 282/454/328
f 177/453/327 282/454/328 178/455/329
f 178/455/329 282/454/328 25/27/330
f 178/455/329 25/27/330 32/30/331
f 213/456/332 253/457/333 214/458/334
f 214/458/334 253/457/333 256/459/335
f 214/445/334 256/460/335 277/444/336
f 277/444/336 256/460/335 283/461/337
f 277/444/336 283/461/337 278/447/338
f 278/447/338 283/461/337 284/462/339
f 278/447/338 284/462/339 279/449/340
f 279/449/340 284/462/339 285/463/341
f 279/449/340 285/463/341 280/451/342
f 280/451/342 285/463/341 286/464/343
f 280/451/342 286/464/343 281/452/344
f 281/452/344 286/464/343 287/465/345
f 281/452/344 287/465/345 282/454/346
f 282/454/346 287/465/345 288/466/347
f 282/454/346 288/466/347 25/27/348
f 25/27/348 288/466/347 26/26/349
f 255/467/206 27/468/206 256/469/206
f 256/469/206 27/468/206 283/470/206
f 283/470/206 27/468/206 284/471/206
f 284/471/206 27/468/206 285/472/206
f 285/472/206 27/468/206 286/473/206
f 286/473/206 27/468/206 287/474/206
f 287/474/206 27/468/206 288/475/206
f 288/475/206 27/468/206 26/476/206
f 240/358/350 239/360/350 255/460/350
f 255/460/350 239/360/350 258/477/350
f 255/460/350 258/477/350 27/28/351
f 27/28/351 258/477/350 28/29/351
f 258/478/167 257/479/167 28/480/167
f 28/480/167 257/479/167 289/481/167
f 28/480/167 289/481/167 290/482/167
f 290/482/167 291/483/167 28/480/167
f 28/480/167 291/483/167 292/484/167
f 28/480/167 292/484/167 293/485/167
f 293/485/167 294/486/167 28/480/167
f 28/480/167 294/486/167 29/487/167
f 229/488/352 228/489/353 257/490/354
f 257/490/354 228/489/353 261/491/355
f 257/492/354 261/406/355 295/493/356
f 257/492/354 295/493/356 289/494/357
f 289/494/357 295/493/356 296/495/358
f 289/494/357 296/495/358 290/496/359
f 290/497/359 296/498/358 297/499/360
f 290/497/359 297/499/360 291/500/361
f 291/500/361 297/499/360 298/501/362
f 291/500/361 298/501/362 292/502/343
f 292/502/343 298/501/362 299/503/363
f 292/502/343 299/503/363 293/504/364
f 293/504/364 299/503/363 300/505/365
f 293/504/364 300/505/365 294/506/366
f 294/506/366 300/505/365 22/24/367
f 294/506/366 22/24/367 29/25/349
f 241/507/368 232/508/368 242/509/368
f 242/509/368 232/508/368 231/510/368
f 242/509/368 231/510/368 205/511/368
f 205/511/368 231/510/368 265/512/368
f 265/512/368 231/510/368 268/513/368
f 268/513/368 231/510/368 226/514/368
f 268/515/368 226/516/368 225/517/368
f 254/518/368 249/519/368 241/507/368
f 241/507/368 249/519/368 246/520/368
f 241/507/368 246/520/368 219/521/368
f 254/522/368 250/523/368 249/524/368
f 241/507/368 219/521/368 232/508/368
f 232/508/368 219/521/368 218/525/368
f 232/508/368 218/525/368 235/526/368
f 235/527/368 218/528/368 217/529/368
f 205/511/368 204/530/368 242/509/368
f 242/509/368 204/530/368 230/531/368
f 230/532/368 204/533/368 203/534/368
f 206/535/369 264/536/370 207/537/371
f 207/329/371 264/538/370 301/539/372
f 207/329/371 301/539/372 201/540/373
f 201/318/373 301/541/372 295/493/374
f 201/318/373 295/493/374 261/406/375
f 301/539/372 302/542/376 295/543/374
f 295/543/374 302/542/376 296/498/377
f 296/498/377 302/542/376 303/544/378
f 296/498/377 303/544/378 297/499/379
f 297/499/379 303/544/378 304/545/380
f 297/499/379 304/545/380 298/501/381
f 298/501/381 304/545/380 299/503/382
f 299/503/382 304/545/380 305/546/383
f 299/503/382 305/546/383 300/505/384
f 300/505/384 305/546/383 306/547/385
f 300/505/384 306/547/385 22/24/386
f 22/24/386 306/547/385 23/23/387
f 92/548/388 307/549/389 89/93/390
f 89/93/390 307/549/389 318/550/391
f 89/93/390 318/550/391 97/100/392
f 97/100/392 318/550/391 95/551/393
f 97/100/392 95/551/393 94/106/394
f 318/550/391 307/549/389 317/552/395
f 317/552/395 307/549/389 308/553/396
f 317/552/395 308/553/396 316/554/397
f 316/554/397 308/553/396 309/555/398
f 316/554/397 309/555/398 315/556/399
f 315/556/399 309/555/398 310/557/400
f 315/556/399 310/557/400 311/558/401
f 315/556/399 311/558/401 314/559/402
f 314/559/402 311/558/401 312/560/403
f 314/559/402 312/560/403 313/561/404
f 313/561/404 312/560/403 21/21/405
f 313/561/404 21/21/405 24/22/406
f 95/99/206 63/562/206 96/98/206
f 96/218/206 63/219/206 325/220/206
f 96/218/206 325/220/206 326/221/206
f 318/563/206 314/564/206 95/565/206
f 95/565/206 314/564/206 313/566/206
f 95/565/206 313/566/206 24/567/206
f 314/564/206 318/563/206 315/568/206
f 315/568/206 318/563/206 317/569/206
f 315/568/206 317/569/206 316/570/206
f 95/99/206 24/571/206 63/562/206
f 63/562/206 24/571/206 23/572/206
f 63/562/206 23/572/206 64/573/206
f 64/573/206 23/572/206 264/574/206
f 64/573/206 264/574/206 263/575/206
f 23/196/206 306/197/206 264/195/206
f 264/195/206 306/197/206 305/226/206
f 264/195/206 305/226/206 301/227/206
f 301/227/206 305/226/206 304/228/206
f 301/227/206 304/228/206 302/229/206
f 302/229/206 304/228/206 303/230/206
f 319/198/206 323/199/206 263/200/206
f 263/200/206 323/199/206 324/201/206
f 263/200/206 324/201/206 64/202/206
f 323/199/206 319/198/206 322/203/206
f 322/203/206 319/198/206 320/204/206
f 322/203/206 320/204/206 321/205/206
f 96/218/206 326/221/206 330/222/206
f 330/222/206 326/221/206 327/223/206
f 330/222/206 327/223/206 329/224/206
f 329/224/206 327/223/206 328/225/206
f 200/576/407 331/577/408 197/316/409
f 197/316/409 331/577/408 319/578/410
f 197/316/409 319/578/410 267/416/411
f 267/416/411 319/578/410 263/579/412
f 267/580/411 263/581/412 266/582/413
f 319/578/410 331/577/408 320/583/414
f 320/583/414 331/577/408 332/584/415
f 320/583/414 332/584/415 321/585/416
f 321/585/416 332/584/415 333/586/417
f 321/585/416 333/586/417 322/587/418
f 322/587/418 333/586/417 334/588/419
f 322/587/418 334/588/419 335/589/420
f 322/587/418 335/589/420 323/590/421
f 323/590/421 335/589/420 336/591/422
f 323/590/421 336/591/422 324/592/423
f 324/592/423 336/591/422 57/59/424
f 324/592/423 57/59/424 64/62/425
f 70/74/426 96/593/427 71/65/428
f 71/65/428 96/593/427 330/594/429
f 71/65/428 330/594/429 65/66/430
f 65/66/430 330/594/429 342/595/431
f 65/66/430 342/595/431 139/168/432
f 330/594/429 329/596/433 342/595/431
f 342/595/431 329/596/433 341/597/434
f 341/597/434 329/596/433 328/598/435
f 341/597/434 328/598/435 340/599/436
f 340/599/436 328/598/435 327/600/437
f 340/599/436 327/600/437 339/601/438
f 339/601/438 327/600/437 338/602/439
f 338/602/439 327/600/437 326/603/440
f 338/602/439 326/603/440 337/604/441
f 337/604/441 326/603/440 325/605/442
f 337/604/441 325/605/442 62/63/443
f 62/63/443 325/605/442 63/64/444
f 137/166/445 138/165/446 134/270/447
f 134/270/447 138/165/446 139/168/448
f 134/270/447 139/168/448 342/595/449
f 134/270/447 342/595/449 191/606/450
f 191/606/450 342/595/449 341/597/451
f 191/606/450 341/597/451 192/607/452
f 192/607/452 341/597/451 340/599/453
f 192/607/452 340/599/453 193/608/454
f 193/608/454 340/599/453 339/601/455
f 193/608/454 339/601/455 194/609/456
f 194/609/456 339/601/455 338/602/457
f 194/609/456 338/602/457 195/610/458
f 195/610/458 338/602/457 337/604/459
f 195/610/458 337/604/459 196/611/202
f 196/611/202 337/604/459 62/63/460
f 196/611/202 62/63/460 46/34/461
f 46/34/461 62/63/460 47/49/205
f 119/612/206 118/613/206 8/614/206
f 8/614/206 118/613/206 9/615/206
f 9/615/206 118/613/206 10/616/206
f 10/616/206 118/613/206 152/617/206
f 10/616/206 152/617/206 11/618/206
f 11/618/206 152/617/206 151/619/206
f 11/618/206 151/619/206 150/620/206
f 11/618/206 150/620/206 12/621/206
f 12/621/206 150/620/206 149/622/206
f 12/621/206 149/622/206 148/623/206
f 12/621/206 148/623/206 13/624/206
f 13/624/206 148/623/206 147/625/206
f 13/624/206 147/625/206 14/626/206
f 132/627/167 7/628/167 133/629/167
f 133/629/167 7/628/167 6/630/167
f 133/629/167 6/630/167 5/631/167
f 133/629/167 5/631/167 348/632/167
f 348/632/167 5/631/167 4/633/167
f 348/632/167 4/633/167 347/634/167
f 347/634/167 4/633/167 346/635/167
f 346/635/167 4/633/167 3/636/167
f 346/635/167 3/636/167 345/637/167
f 345/637/167 3/636/167 344/638/167
f 344/638/167 3/636/167 2/639/167
f 344/638/167 2/639/167 343/640/167
f 343/640/167 2/639/167 1/641/167
f 91/642/462 107/643/463 92/644/464
f 92/548/464 107/112/463 133/645/465
f 92/548/464 133/645/465 307/549/466
f 307/549/466 133/645/465 348/646/467
f 307/549/466 348/646/467 308/553/468
f 308/553/468 348/646/467 347/647/469
f 308/553/468 347/647/469 309/555/470
f 309/555/470 347/647/469 346/648/137
f 309/555/470 346/648/137 310/557/471
f 310/557/471 346/648/137 345/649/472
f 310/557/471 345/649/472 311/558/473
f 311/558/473 345/649/472 344/650/474
f 311/558/473 344/650/474 312/560/475
f 312/560/475 344/650/474 343/651/143
f 312/560/475 343/651/143 21/21/144
f 21/21/144 343/651/143 1/3/476
f 21/21/144 1/3/476 20/5/146
f 259/652/167 59/653/167 260/654/167
f 260/654/167 59/653/167 354/655/167
f 354/655/167 59/653/167 353/656/167
f 353/656/167 59/653/167 352/657/167
f 352/657/167 59/653/167 351/658/167
f 351/658/167 59/653/167 350/659/167
f 350/659/167 59/653/167 349/660/167
f 349/660/167 59/653/167 58/661/167
f 199/662/477 227/663/478 200/664/479
f 200/664/479 227/663/478 260/665/480
f 200/576/479 260/666/480 331/577/481
f 331/577/481 260/666/480 354/667/482
f 331/577/481 354/667/482 332/584/483
f 332/584/483 354/667/482 353/668/484
f 332/584/483 353/668/484 333/586/485
f 333/586/485 353/668/484 352/669/486
f 333/586/485 352/669/486 334/588/487
f 334/588/487 352/669/486 351/670/488
f 334/588/487 351/670/488 335/589/489
f 335/589/489 351/670/488 350/671/490
f 335/589/489 350/671/490 336/591/491
f 336/591/491 350/671/490 349/672/492
f 336/591/491 349/672/492 57/59/493
f 57/59/493 349/672/492 58/58/494
f 234/350/495 233/351/495 259/666/496
f 259/666/496 233/351/495 238/673/496
f 259/666/496 238/673/496 59/60/497
f 59/60/497 238/673/496 60/61/497
f 243/674/477 244/675/498 236/676/499
f 236/676/499 244/675/498 237/677/500
f 237/673/500 244/422/498 276/428/501
f 237/673/500 276/428/501 360/678/502
f 360/678/502 276/428/501 275/430/503
f 360/678/502 275/430/503 359/679/504
f 359/679/504 275/430/503 274/432/505
f 359/679/504 274/432/505 358/680/506
f 358/680/506 274/432/505 273/434/507
f 358/680/506 273/434/507 357/681/488
f 357/681/488 273/434/507 272/435/508
f 357/681/488 272/435/508 356/682/509
f 356/682/509 272/435/508 271/437/510
f 356/682/509 271/437/510 355/683/511
f 355/683/511 271/437/510 54/56/512
f 355/683/511 54/56/512 61/57/494
f 238/684/206 237/685/206 60/686/206
f 60/686/206 237/685/206 360/687/206
f 60/686/206 360/687/206 359/688/206
f 359/688/206 358/689/206 60/686/206
f 60/686/206 358/689/206 357/690/206
f 60/686/206 357/690/206 356/691/206
f 356/691/206 355/692/206 60/686/206
f 60/686/206 355/692/206 61/693/206
f 8/16/8 7/15/8 119/170/513
f 119/170/513 7/15/8 132/645/513
f 119/170/513 132/645/513 114/124/514
f 114/124/514 132/645/513 115/123/514
