# Blender 4.4.1
# www.blender.org
mtllib car_rc_body_futur.mtl.mtl
o car_rc_body_futur
v 0.029000 -0.023888 0.024019
v 0.029000 -0.022977 0.027984
v 0.029000 -0.021669 0.031834
v 0.029000 -0.019976 0.035532
v 0.029000 -0.017916 0.039039
v 0.029000 -0.015510 0.042320
v 0.029000 -0.012784 0.045338
v -0.029000 -0.012784 0.045338
v -0.029000 -0.015510 0.042320
v -0.029000 -0.017916 0.039039
v -0.029000 -0.019976 0.035532
v -0.029000 -0.021669 0.031834
v -0.029000 -0.022977 0.027984
v -0.029000 -0.023888 0.024019
v -0.034111 -0.023888 0.024019
v -0.033654 -0.024346 0.020550
v -0.033501 -0.024501 0.017055
v 0.033499 -0.024501 0.017055
v 0.033652 -0.024346 0.020550
v 0.034110 -0.023888 0.024019
v 0.033499 -0.024501 0.025068
v 0.033499 -0.024501 -0.027820
v 0.038499 -0.019500 -0.029179
v 0.038499 -0.019500 0.026427
v -0.033501 -0.024501 -0.027820
v -0.029000 -0.024501 -0.027820
v -0.029000 -0.024501 -0.036377
v 0.029000 -0.024501 -0.036377
v 0.029000 -0.024501 -0.027820
v -0.033501 -0.024501 0.025068
v -0.038501 -0.019500 0.026427
v -0.038501 -0.019500 -0.029179
v -0.029000 0.023888 0.024019
v -0.029000 0.022978 0.027984
v -0.029000 0.021669 0.031834
v -0.029000 0.019976 0.035532
v -0.029000 0.017916 0.039039
v -0.029000 0.015510 0.042320
v -0.029000 0.012784 0.045338
v 0.029000 0.012784 0.045338
v 0.029000 0.015510 0.042320
v 0.029000 0.017916 0.039039
v 0.029000 0.019976 0.035532
v 0.029000 0.021669 0.031834
v 0.029000 0.022978 0.027984
v 0.029000 0.023888 0.024019
v 0.034110 0.023888 0.024019
v 0.033652 0.024346 0.020550
v 0.033499 0.024501 0.017055
v -0.033501 0.024501 0.017055
v -0.033654 0.024346 0.020550
v -0.034111 0.023888 0.024019
v -0.033501 0.024501 0.025068
v -0.033501 0.024501 -0.027820
v -0.038501 0.019500 -0.029179
v -0.038501 0.019500 0.026427
v 0.033499 0.024501 -0.027820
v 0.029000 0.024501 -0.027820
v 0.029000 0.024501 -0.036377
v -0.029000 0.024501 -0.036377
v -0.029000 0.024501 -0.027820
v 0.033499 0.024501 0.025068
v 0.038499 0.019500 0.026427
v 0.038499 0.019500 -0.029179
v 0.033836 0.026466 0.046678
v 0.033130 0.025808 0.047441
v 0.032632 0.024153 0.048624
v 0.034630 0.021993 0.048624
v 0.036501 0.019943 0.048624
v 0.038423 0.021616 0.046702
v 0.036210 0.023970 0.046688
v 0.033387 0.025150 0.047651
v 0.035969 0.022394 0.047656
v 0.035133 0.023292 0.047656
v -0.033835 0.026466 0.046678
v -0.033131 0.025808 0.047441
v -0.033420 0.026800 0.046731
v -0.033501 0.026816 0.046673
v -0.033835 -0.026466 0.046678
v -0.033131 -0.025807 0.047441
v -0.032631 -0.024153 0.048624
v -0.034629 -0.021993 0.048624
v -0.036500 -0.019942 0.048624
v -0.038422 -0.021616 0.046702
v -0.036212 -0.023969 0.046688
v -0.033387 -0.025149 0.047651
v -0.035969 -0.022393 0.047656
v -0.035132 -0.023292 0.047656
v 0.033836 -0.026466 0.046678
v 0.033130 -0.025807 0.047441
v 0.033418 -0.026799 0.046731
v 0.033499 -0.026816 0.046673
v 0.036501 -0.019942 0.048624
v 0.038423 -0.021616 0.046702
v 0.038499 -0.021564 0.046626
v 0.038499 0.021564 0.046626
v 0.036210 -0.023969 0.046688
v 0.034630 -0.021993 0.048624
v 0.032632 -0.024153 0.048624
v 0.035133 -0.023292 0.047656
v 0.035969 -0.022393 0.047656
v 0.029585 0.010915 0.047207
v -0.029586 0.010915 0.047207
v -0.031000 0.007500 0.048624
v 0.031001 0.007500 0.048624
v 0.031001 -0.024153 0.048624
v 0.029108 -0.026799 0.046731
v -0.029000 0.011500 0.046626
v -0.029000 0.026833 0.046626
v -0.029107 0.026800 0.046731
v -0.031000 0.024153 0.048624
v 0.031001 -0.007500 0.048624
v -0.031000 -0.007500 0.048624
v -0.029586 -0.010913 0.047207
v 0.029585 -0.010913 0.047207
v -0.031000 -0.024153 0.048624
v -0.029107 -0.026799 0.046731
v -0.029000 -0.026833 0.046626
v -0.029000 -0.011500 0.046626
v -0.033420 -0.026799 0.046731
v -0.033501 -0.026816 0.046673
v -0.033389 -0.026234 0.047060
v -0.038501 0.021564 0.046626
v -0.038501 -0.021564 0.046626
v -0.036500 0.019943 0.048624
v -0.038422 0.021616 0.046702
v -0.036212 0.023970 0.046688
v -0.034629 0.021993 0.048624
v -0.032631 0.024153 0.048624
v -0.035132 0.023292 0.047656
v -0.035969 0.022394 0.047656
v 0.029000 -0.011500 0.046626
v 0.029000 -0.026833 0.046626
v 0.029000 0.026833 0.046626
v 0.029000 0.011500 0.046626
v 0.031001 0.024153 0.048624
v 0.029108 0.026800 0.046731
v 0.033418 0.026800 0.046731
v 0.033499 0.026816 0.046673
v 0.033390 0.026235 0.047060
v -0.033501 -0.027557 0.043579
v -0.033501 -0.027944 0.040413
v -0.033501 -0.027965 0.037227
v -0.033501 -0.027624 0.034059
v -0.033501 -0.026928 0.030950
v -0.033501 -0.025881 0.027939
v -0.029000 -0.025464 0.026978
v -0.029000 -0.026673 0.030103
v -0.029000 -0.027500 0.033353
v -0.029000 -0.027932 0.036677
v -0.029000 -0.027965 0.040029
v -0.029000 -0.027596 0.043359
v -0.038501 -0.022422 0.043746
v -0.038501 -0.022899 0.040784
v -0.038501 -0.022985 0.037783
v -0.038501 -0.022679 0.034798
v -0.038501 -0.021988 0.031877
v -0.038501 -0.020922 0.029071
v -0.038501 0.022422 0.043746
v -0.038501 0.022899 0.040784
v -0.038501 0.022985 0.037783
v -0.038501 0.022680 0.034798
v -0.038501 0.021988 0.031877
v -0.038501 0.020923 0.029071
v -0.038501 0.020923 -0.031823
v -0.038501 0.021988 -0.034630
v -0.038501 0.022680 -0.037550
v -0.038501 0.022985 -0.040535
v -0.038501 0.022899 -0.043535
v -0.038501 0.022422 -0.046501
v -0.038501 0.021564 -0.049376
v -0.038501 -0.021564 -0.049376
v -0.038501 -0.022422 -0.046501
v -0.038501 -0.022899 -0.043535
v -0.038501 -0.022985 -0.040535
v -0.038501 -0.022679 -0.037550
v -0.038501 -0.021988 -0.034630
v -0.038501 -0.020922 -0.031823
v -0.033501 0.027558 0.043579
v -0.033501 0.027944 0.040413
v -0.033501 0.027965 0.037227
v -0.033501 0.027625 0.034059
v -0.033501 0.026928 0.030950
v -0.033501 0.025882 0.027939
v -0.029000 0.027596 0.043359
v -0.029000 0.027965 0.040029
v -0.029000 0.027932 0.036677
v -0.029000 0.027501 0.033353
v -0.029000 0.026673 0.030103
v -0.029000 0.025464 0.026978
v 0.029000 0.027596 0.043359
v 0.029000 0.027965 0.040029
v 0.029000 0.027932 0.036677
v 0.029000 0.027501 0.033353
v 0.029000 0.026673 0.030103
v 0.029000 0.025464 0.026978
v 0.033836 0.026466 -0.049428
v 0.033130 0.025808 -0.050191
v 0.033418 0.026800 -0.049486
v 0.033499 0.026816 -0.049428
v 0.033836 -0.026466 -0.049428
v 0.033130 -0.025807 -0.050191
v 0.032632 -0.024153 -0.051379
v 0.034630 -0.021993 -0.051379
v 0.036501 -0.019942 -0.051379
v 0.038423 -0.021616 -0.049452
v 0.036210 -0.023969 -0.049443
v 0.033387 -0.025149 -0.050406
v 0.035969 -0.022393 -0.050411
v 0.035133 -0.023292 -0.050406
v -0.033835 -0.026466 -0.049428
v -0.033131 -0.025807 -0.050191
v -0.033420 -0.026799 -0.049486
v -0.033501 -0.026816 -0.049428
v -0.033835 0.026466 -0.049428
v -0.033131 0.025808 -0.050191
v -0.032631 0.024153 -0.051379
v -0.034629 0.021993 -0.051379
v -0.036500 0.019943 -0.051379
v -0.038422 0.021616 -0.049452
v -0.036212 0.023970 -0.049443
v -0.033387 0.025150 -0.050406
v -0.035969 0.022394 -0.050411
v -0.035132 0.023292 -0.050406
v 0.032632 0.024153 -0.051379
v 0.031001 0.024153 -0.051379
v 0.029108 0.026800 -0.049486
v 0.033418 -0.026799 -0.049486
v 0.029108 -0.026799 -0.049486
v 0.031001 -0.024153 -0.051379
v 0.031001 0.007500 -0.051379
v -0.031000 0.007500 -0.051379
v -0.029586 0.010915 -0.049962
v 0.029585 0.010915 -0.049962
v -0.031000 0.024153 -0.051379
v -0.029107 0.026800 -0.049486
v -0.029000 0.026833 -0.049376
v -0.029000 0.011500 -0.049376
v 0.029585 -0.010913 -0.049962
v -0.029586 -0.010913 -0.049962
v -0.031000 -0.007500 -0.051379
v 0.031001 -0.007500 -0.051379
v -0.033420 0.026800 -0.049486
v -0.033501 0.026816 -0.049428
v -0.033389 0.026235 -0.049810
v -0.036500 -0.019942 -0.051379
v -0.038422 -0.021616 -0.049452
v -0.036212 -0.023969 -0.049443
v -0.034629 -0.021993 -0.051379
v -0.032631 -0.024153 -0.051379
v -0.035132 -0.023292 -0.050406
v -0.035969 -0.022393 -0.050411
v -0.029107 -0.026799 -0.049486
v -0.031000 -0.024153 -0.051379
v -0.029000 -0.011500 -0.049376
v -0.029000 -0.026833 -0.049376
v 0.029000 -0.026833 -0.049376
v 0.029000 -0.011500 -0.049376
v 0.029000 0.011500 -0.049376
v 0.029000 0.026833 -0.049376
v 0.033499 -0.026816 -0.049428
v 0.033390 -0.026234 -0.049810
v 0.038499 0.021564 -0.049376
v 0.038499 -0.021564 -0.049376
v 0.036501 0.019943 -0.051379
v 0.038423 0.021616 -0.049452
v 0.036210 0.023970 -0.049443
v 0.034630 0.021993 -0.051379
v 0.035133 0.023292 -0.050406
v 0.035969 0.022394 -0.050411
v -0.033501 0.025882 -0.030693
v -0.033501 0.026928 -0.033702
v -0.033501 0.027625 -0.036811
v -0.033501 0.027965 -0.039980
v -0.033501 0.027944 -0.043167
v -0.033501 0.027558 -0.046329
v -0.033501 -0.027557 -0.046329
v -0.033501 -0.027944 -0.043167
v -0.033501 -0.027965 -0.039980
v -0.033501 -0.027624 -0.036811
v -0.033501 -0.026928 -0.033702
v -0.033501 -0.025881 -0.030693
v -0.029000 -0.027567 -0.046281
v -0.029000 -0.027946 -0.043129
v -0.029000 -0.027963 -0.039946
v -0.029000 -0.027622 -0.036787
v -0.029000 -0.026923 -0.033688
v -0.029000 -0.025879 -0.030686
v 0.029000 -0.027567 -0.046281
v 0.029000 -0.027946 -0.043129
v 0.029000 -0.027963 -0.039946
v 0.029000 -0.027622 -0.036787
v 0.029000 -0.026923 -0.033688
v 0.029000 -0.025879 -0.030686
v 0.033499 -0.027557 -0.046329
v 0.033499 -0.027944 -0.043167
v 0.033499 -0.027965 -0.039980
v 0.033499 -0.027624 -0.036811
v 0.033499 -0.026928 -0.033702
v 0.033499 -0.025881 -0.030693
v 0.038499 -0.022422 -0.046501
v 0.038499 -0.022899 -0.043535
v 0.038499 -0.022985 -0.040535
v 0.038499 -0.022679 -0.037550
v 0.038499 -0.021988 -0.034630
v 0.038499 -0.020922 -0.031823
v 0.033499 -0.027557 0.043579
v 0.033499 -0.027944 0.040413
v 0.033499 -0.027965 0.037227
v 0.033499 -0.027624 0.034059
v 0.033499 -0.026928 0.030950
v 0.033499 -0.025881 0.027939
v 0.038499 -0.020922 0.029071
v 0.038499 -0.021988 0.031877
v 0.038499 -0.022679 0.034798
v 0.038499 -0.022985 0.037783
v 0.038499 -0.022899 0.040784
v 0.038499 -0.022422 0.043746
v 0.038499 0.022422 -0.046501
v 0.038499 0.022899 -0.043535
v 0.038499 0.022985 -0.040535
v 0.038499 0.022680 -0.037550
v 0.038499 0.021988 -0.034630
v 0.038499 0.020923 -0.031823
v 0.038499 0.020923 0.029071
v 0.038499 0.021988 0.031877
v 0.038499 0.022680 0.034798
v 0.038499 0.022985 0.037783
v 0.038499 0.022899 0.040784
v 0.038499 0.022422 0.043746
v 0.033499 0.027558 -0.046329
v 0.033499 0.027944 -0.043167
v 0.033499 0.027965 -0.039980
v 0.033499 0.027625 -0.036811
v 0.033499 0.026928 -0.033702
v 0.033499 0.025882 -0.030693
v 0.033499 0.025882 0.027939
v 0.033499 0.026928 0.030950
v 0.033499 0.027625 0.034059
v 0.033499 0.027965 0.037227
v 0.033499 0.027944 0.040413
v 0.033499 0.027558 0.043579
v 0.029000 -0.025464 0.026978
v 0.029000 -0.026673 0.030103
v 0.029000 -0.027500 0.033353
v 0.029000 -0.027932 0.036677
v 0.029000 -0.027965 0.040029
v 0.029000 -0.027596 0.043359
v 0.029000 0.025879 -0.030686
v 0.029000 0.026924 -0.033688
v 0.029000 0.027622 -0.036787
v 0.029000 0.027963 -0.039946
v 0.029000 0.027946 -0.043129
v 0.029000 0.027567 -0.046281
v -0.029000 0.025879 -0.030686
v -0.029000 0.026924 -0.033688
v -0.029000 0.027622 -0.036787
v -0.029000 0.027963 -0.039946
v -0.029000 0.027946 -0.043129
v -0.029000 0.027567 -0.046281
vn -0.0000 -0.9620 0.2732
vn -0.0000 -0.9847 0.1740
vn -0.0000 -0.9962 0.0876
vn -0.0000 -0.9292 0.3695
vn -0.0000 -0.8869 0.4619
vn -0.0000 -0.8354 0.5496
vn -0.0000 -0.7753 0.6316
vn -0.0000 -0.7076 0.7066
vn -0.0000 -1.0000 0.0003
vn 0.7074 -0.7068 -0.0013
vn 0.7072 -0.7070 -0.0006
vn 0.7071 -0.7072 -0.0002
vn 0.7072 -0.7070 -0.0000
vn 0.7077 -0.7065 0.0001
vn 0.7044 -0.7098 0.0007
vn -0.0000 -1.0000 -0.0000
vn -0.7044 -0.7098 0.0007
vn -0.7072 -0.7070 -0.0006
vn -0.7077 -0.7065 0.0001
vn -0.7072 -0.7070 -0.0000
vn -0.7074 -0.7068 -0.0013
vn -0.7071 -0.7072 -0.0002
vn -0.0000 0.9620 0.2732
vn -0.0000 0.9847 0.1741
vn -0.0000 0.9962 0.0876
vn -0.0000 0.9292 0.3695
vn -0.0000 0.8869 0.4619
vn -0.0000 0.8354 0.5496
vn -0.0000 0.7753 0.6316
vn -0.0000 0.7076 0.7066
vn -0.0000 1.0000 0.0003
vn -0.7074 0.7068 -0.0013
vn -0.7072 0.7070 -0.0006
vn -0.7071 0.7072 -0.0002
vn -0.7072 0.7070 -0.0000
vn -0.7077 0.7065 0.0001
vn -0.7044 0.7098 0.0007
vn -0.0000 1.0000 -0.0000
vn 0.7044 0.7098 0.0007
vn 0.7072 0.7070 -0.0006
vn 0.7077 0.7065 0.0001
vn 0.7072 0.7070 -0.0000
vn 0.7074 0.7068 -0.0013
vn 0.7071 0.7072 -0.0002
vn 0.4428 0.4225 0.7909
vn 0.4456 0.4324 0.7839
vn 0.4498 0.4256 0.7852
vn 0.4494 0.4276 0.7844
vn 0.4527 0.4218 0.7856
vn 0.4473 0.4189 0.7902
vn 0.4501 0.4133 0.7916
vn 0.4455 0.4157 0.7929
vn 0.4464 0.4048 0.7980
vn 0.4369 0.4141 0.7985
vn -0.4497 0.4279 0.7840
vn -0.4502 0.4371 0.7787
vn -0.4473 0.4316 0.7833
vn -0.4543 0.4432 0.7728
vn -0.4425 -0.4222 0.7912
vn -0.4461 -0.4318 0.7839
vn -0.4505 -0.4250 0.7851
vn -0.4513 -0.4266 0.7838
vn -0.4529 -0.4216 0.7856
vn -0.4471 -0.4187 0.7904
vn -0.4501 -0.4133 0.7916
vn -0.4454 -0.4155 0.7931
vn -0.4464 -0.4048 0.7980
vn -0.4369 -0.4139 0.7986
vn 0.4493 -0.4280 0.7842
vn 0.4487 -0.4385 0.7787
vn 0.4463 -0.4318 0.7838
vn 0.4529 -0.4453 0.7724
vn 0.7071 -0.0000 0.7071
vn 0.4429 -0.4225 0.7908
vn 0.4473 -0.4189 0.7902
vn 0.4526 -0.4217 0.7857
vn 0.4501 -0.4133 0.7916
vn 0.4454 -0.4156 0.7930
vn 0.4464 -0.4048 0.7980
vn 0.4370 -0.4141 0.7985
vn -0.0000 0.3831 0.9237
vn -0.0000 -0.5815 0.8136
vn -0.0002 -0.5816 0.8135
vn -0.0001 -0.5820 0.8132
vn -0.0002 -0.5819 0.8133
vn -0.0000 -0.5823 0.8129
vn 0.6991 -0.0000 0.7150
vn 0.7016 -0.0000 0.7126
vn 0.7042 0.0001 0.7100
vn 0.7068 -0.0000 0.7074
vn 0.7072 -0.0001 0.7070
vn 0.7077 -0.0000 0.7065
vn -0.0000 -0.3832 0.9237
vn 0.7072 0.0001 0.7070
vn 0.7042 -0.0001 0.7100
vn 0.0001 -0.5820 0.8132
vn 0.0002 -0.5816 0.8135
vn 0.0002 -0.5819 0.8133
vn -0.4594 -0.4288 0.7779
vn -0.4478 -0.4309 0.7834
vn -0.4525 -0.4320 0.7802
vn -0.6961 -0.0000 0.7179
vn -0.7014 -0.0000 0.7128
vn -0.7071 -0.0000 0.7071
vn -0.4427 0.4221 0.7911
vn -0.4471 0.4186 0.7905
vn -0.4525 0.4214 0.7859
vn -0.4501 0.4133 0.7916
vn -0.4454 0.4155 0.7931
vn -0.4464 0.4048 0.7980
vn -0.4369 0.4139 0.7986
vn -0.0000 0.5823 0.8129
vn 0.0001 0.5820 0.8132
vn 0.0002 0.5819 0.8133
vn 0.0002 0.5816 0.8135
vn -0.0000 0.5815 0.8136
vn -0.7067 -0.0000 0.7075
vn -0.7016 -0.0000 0.7126
vn -0.7056 -0.0001 0.7086
vn -0.6991 -0.0000 0.7150
vn -0.7056 0.0001 0.7086
vn -0.0002 0.5819 0.8133
vn -0.0001 0.5820 0.8132
vn -0.0002 0.5816 0.8135
vn 0.4581 0.4308 0.7776
vn 0.4457 0.4311 0.7845
vn 0.4515 0.4338 0.7797
vn -0.0003 -0.9525 0.3046
vn -0.0007 -0.9583 0.2858
vn -0.0005 -0.9568 0.2907
vn -0.0001 -0.9842 0.1772
vn 0.0001 -0.9856 0.1692
vn 0.0001 -0.9979 0.0640
vn 0.0001 -0.9987 0.0502
vn 0.0001 -0.9987 -0.0502
vn -0.0000 -0.9976 -0.0696
vn -0.0003 -0.9866 -0.1629
vn -0.0002 -0.9822 -0.1880
vn -0.0002 -0.9617 -0.2739
vn -0.0001 -0.9526 -0.3043
vn -0.0001 -0.9244 -0.3815
vn -0.0000 -0.9093 -0.4160
vn -0.0000 -0.8746 -0.4848
vn 0.0002 -0.8528 -0.5222
vn -0.0000 -0.8524 -0.5230
vn -0.0000 -0.9597 0.2811
vn -0.7070 -0.6771 0.2041
vn -0.7072 -0.6761 0.2070
vn -0.7071 -0.6893 0.1575
vn -0.7069 -0.6705 0.2251
vn -0.7056 -0.6614 0.2545
vn -0.7024 -0.6573 0.2731
vn -0.7071 -0.6959 0.1254
vn -0.7071 -0.7040 0.0665
vn -0.7072 -0.7056 0.0453
vn -0.7071 -0.7066 -0.0259
vn -0.7070 -0.7063 -0.0357
vn -0.7071 -0.6973 -0.1177
vn -0.7071 -0.6977 -0.1150
vn -0.7071 -0.6801 -0.1937
vn -0.7072 -0.6759 -0.2074
vn -0.7072 -0.6536 -0.2697
vn -0.7072 -0.6432 -0.2936
vn -0.7072 -0.6187 -0.3422
vn -0.7072 -0.5995 -0.3748
vn -1.0000 -0.0000 -0.0000
vn -0.7024 0.6573 0.2731
vn -0.7069 0.6705 0.2251
vn -0.7056 0.6614 0.2545
vn -0.7071 0.6894 0.1575
vn -0.7072 0.6764 0.2060
vn -0.7071 0.6959 0.1254
vn -0.7075 0.6768 0.2035
vn -0.7072 0.7039 0.0665
vn -0.7072 0.7056 0.0453
vn -0.7072 0.7066 -0.0259
vn -0.7071 0.7062 -0.0355
vn -0.7071 0.6972 -0.1176
vn -0.7071 0.6977 -0.1150
vn -0.7071 0.6801 -0.1937
vn -0.7072 0.6759 -0.2074
vn -0.7072 0.6536 -0.2697
vn -0.7072 0.6432 -0.2936
vn -0.7072 0.6187 -0.3422
vn -0.7072 0.5995 -0.3748
vn -0.0000 0.9597 0.2812
vn -0.0003 0.9525 0.3046
vn -0.0007 0.9583 0.2858
vn -0.0005 0.9568 0.2907
vn -0.0001 0.9842 0.1772
vn 0.0001 0.9856 0.1692
vn 0.0001 0.9979 0.0640
vn 0.0001 0.9987 0.0502
vn 0.0001 0.9987 -0.0502
vn -0.0001 0.9976 -0.0696
vn -0.0003 0.9866 -0.1629
vn -0.0003 0.9822 -0.1880
vn -0.0002 0.9617 -0.2739
vn -0.0001 0.9526 -0.3043
vn -0.0001 0.9244 -0.3815
vn -0.0000 0.9093 -0.4160
vn -0.0000 0.8746 -0.4849
vn 0.0002 0.8528 -0.5222
vn -0.0000 0.8524 -0.5229
vn 1.0000 -0.0000 -0.0000
vn -0.0000 0.7063 0.7080
vn -0.0000 0.7049 0.7093
vn -0.0000 -0.0000 1.0000
vn 0.4500 0.4278 -0.7839
vn 0.4529 0.4324 -0.7797
vn 0.4483 0.4295 -0.7839
vn 0.4565 0.4379 -0.7745
vn 0.4424 -0.4222 -0.7912
vn 0.4471 -0.4307 -0.7839
vn 0.4482 -0.4274 -0.7852
vn 0.4466 -0.4304 -0.7844
vn 0.4531 -0.4222 -0.7852
vn 0.4466 -0.4192 -0.7905
vn 0.4504 -0.4144 -0.7908
vn 0.4452 -0.4163 -0.7928
vn 0.4472 -0.4048 -0.7976
vn 0.4382 -0.4139 -0.7979
vn -0.4502 -0.4277 -0.7838
vn -0.4543 -0.4310 -0.7797
vn -0.4492 -0.4294 -0.7835
vn -0.4572 -0.4357 -0.7753
vn -0.4421 0.4219 -0.7916
vn -0.4476 0.4302 -0.7840
vn -0.4487 0.4269 -0.7851
vn -0.4485 0.4295 -0.7838
vn -0.4533 0.4221 -0.7851
vn -0.4465 0.4189 -0.7907
vn -0.4503 0.4144 -0.7908
vn -0.4451 0.4160 -0.7930
vn -0.4472 0.4048 -0.7976
vn -0.4382 0.4137 -0.7980
vn -0.0000 0.5830 -0.8125
vn 0.0006 0.5825 -0.8128
vn 0.0003 0.5812 -0.8138
vn 0.0007 0.5815 -0.8135
vn -0.0000 0.5798 -0.8148
vn -0.0000 -0.5798 -0.8148
vn 0.0007 -0.5815 -0.8135
vn 0.0003 -0.5812 -0.8138
vn 0.0006 -0.5825 -0.8128
vn -0.0000 -0.5830 -0.8125
vn -0.0000 0.3831 -0.9237
vn 0.7077 -0.0000 -0.7065
vn 0.7072 -0.0001 -0.7070
vn 0.7075 -0.0000 -0.7067
vn 0.7125 -0.0000 -0.7017
vn 0.7148 -0.0000 -0.6993
vn -0.0000 -0.3832 -0.9237
vn -0.0003 0.5812 -0.8138
vn -0.0006 0.5825 -0.8128
vn -0.0007 0.5815 -0.8135
vn -0.4625 0.4230 -0.7792
vn -0.4531 0.4264 -0.7828
vn -0.4558 0.4258 -0.7816
vn -0.7080 -0.0000 -0.7062
vn -0.7018 -0.0000 -0.7124
vn -0.6961 -0.0000 -0.7179
vn -0.4418 -0.4220 -0.7917
vn -0.4465 -0.4194 -0.7904
vn -0.4538 -0.4224 -0.7846
vn -0.4503 -0.4144 -0.7909
vn -0.4451 -0.4160 -0.7930
vn -0.4472 -0.4048 -0.7976
vn -0.4382 -0.4137 -0.7980
vn -0.0003 -0.5812 -0.8138
vn -0.0007 -0.5815 -0.8135
vn -0.0006 -0.5825 -0.8128
vn 0.7072 0.0001 -0.7070
vn -0.7148 -0.0000 -0.6993
vn -0.7086 0.0001 -0.7056
vn -0.7125 -0.0000 -0.7017
vn -0.7075 -0.0000 -0.7067
vn -0.7071 -0.0000 -0.7071
vn -0.7086 -0.0001 -0.7056
vn 0.4612 -0.4247 -0.7790
vn 0.4511 -0.4267 -0.7838
vn 0.4549 -0.4276 -0.7812
vn 0.7071 -0.0000 -0.7071
vn 0.7080 -0.0000 -0.7062
vn 0.4419 0.4223 -0.7914
vn 0.4462 0.4199 -0.7903
vn 0.4539 0.4228 -0.7844
vn 0.4503 0.4144 -0.7908
vn 0.4452 0.4163 -0.7928
vn 0.4472 0.4048 -0.7976
vn 0.4382 0.4139 -0.7979
vn -0.7073 0.6766 -0.2047
vn -0.7078 0.6743 -0.2105
vn -0.7071 0.6893 -0.1575
vn -0.7068 0.6706 -0.2250
vn -0.7058 0.6611 -0.2547
vn -0.7026 0.6569 -0.2735
vn -0.7071 0.6959 -0.1253
vn -0.7071 0.7040 -0.0664
vn -0.7071 0.7056 -0.0453
vn -0.7072 0.7066 0.0259
vn -0.7071 0.7062 0.0356
vn -0.7071 0.6973 0.1177
vn -0.7071 0.6977 0.1155
vn -0.7071 0.6801 0.1937
vn -0.7072 0.6759 0.2074
vn -0.7071 0.6537 0.2697
vn -0.7071 0.6432 0.2936
vn -0.7072 0.6188 0.3420
vn -0.7072 0.5995 0.3748
vn -0.7026 -0.6569 -0.2735
vn -0.7068 -0.6706 -0.2250
vn -0.7058 -0.6611 -0.2547
vn -0.7071 -0.6894 -0.1575
vn -0.7077 -0.6759 -0.2057
vn -0.7071 -0.6959 -0.1255
vn -0.7089 -0.6755 -0.2030
vn -0.7071 -0.7040 -0.0664
vn -0.7071 -0.7056 -0.0453
vn -0.7072 -0.7066 0.0259
vn -0.7071 -0.7062 0.0355
vn -0.7071 -0.6972 0.1176
vn -0.7071 -0.6977 0.1150
vn -0.7071 -0.6801 0.1937
vn -0.7071 -0.6760 0.2074
vn -0.7071 -0.6537 0.2697
vn -0.7071 -0.6432 0.2936
vn -0.7072 -0.6188 0.3420
vn -0.7072 -0.5995 0.3748
vn -0.0000 -0.9597 -0.2811
vn -0.0002 -0.9562 -0.2928
vn -0.0005 -0.9584 -0.2855
vn 0.0001 -0.9579 -0.2870
vn -0.0006 -0.9842 -0.1773
vn -0.0003 -0.9845 -0.1755
vn -0.0004 -0.9979 -0.0640
vn 0.0003 -0.9981 -0.0624
vn -0.0002 -0.9987 0.0502
vn -0.0001 -0.9987 0.0512
vn -0.0004 -0.9866 0.1629
vn -0.0000 -0.9865 0.1638
vn 0.0002 -0.9617 0.2741
vn 0.0002 -0.9615 0.2748
vn -0.0001 -0.9244 0.3814
vn -0.0001 -0.9243 0.3816
vn -0.0001 -0.8752 0.4837
vn -0.0000 -0.8752 0.4838
vn -0.0000 -0.7071 -0.7071
vn -0.0000 -0.7070 -0.7072
vn -0.0000 -0.9561 -0.2931
vn 0.0003 -0.9595 -0.2816
vn -0.0002 -0.9579 -0.2871
vn 0.0006 -0.9584 -0.2854
vn 0.0006 -0.9842 -0.1773
vn 0.0002 -0.9845 -0.1755
vn 0.0004 -0.9979 -0.0640
vn -0.0003 -0.9981 -0.0624
vn 0.0002 -0.9987 0.0502
vn 0.0001 -0.9987 0.0512
vn 0.0004 -0.9866 0.1629
vn -0.0002 -0.9617 0.2741
vn -0.0002 -0.9615 0.2748
vn 0.0001 -0.9244 0.3814
vn 0.0001 -0.9243 0.3816
vn 0.0001 -0.8752 0.4837
vn -0.0000 -0.0000 -1.0000
vn 0.7065 -0.6611 -0.2526
vn 0.7071 -0.6623 -0.2477
vn 0.7071 -0.6703 -0.2252
vn 0.7071 -0.6893 -0.1575
vn 0.7068 -0.6768 -0.2058
vn 0.7070 -0.6960 -0.1252
vn 0.7064 -0.6779 -0.2036
vn 0.7071 -0.7040 -0.0664
vn 0.7071 -0.7056 -0.0453
vn 0.7072 -0.7066 0.0259
vn 0.7070 -0.7063 0.0357
vn 0.7071 -0.6972 0.1176
vn 0.7071 -0.6977 0.1150
vn 0.7071 -0.6800 0.1938
vn 0.7071 -0.6760 0.2074
vn 0.7071 -0.6536 0.2697
vn 0.7071 -0.6432 0.2936
vn 0.7072 -0.6188 0.3420
vn 0.7072 -0.5995 0.3748
vn 0.7050 -0.6792 0.2041
vn 0.7070 -0.6960 0.1252
vn 0.7063 -0.6773 0.2061
vn 0.7071 -0.6893 0.1575
vn 0.7071 -0.6702 0.2253
vn 0.7069 -0.6626 0.2474
vn 0.7063 -0.6615 0.2521
vn 0.7071 -0.7040 0.0665
vn 0.7072 -0.7056 0.0453
vn 0.7071 -0.7066 -0.0259
vn 0.7071 -0.7062 -0.0355
vn 0.7071 -0.6973 -0.1177
vn 0.7071 -0.6977 -0.1150
vn 0.7071 -0.6801 -0.1936
vn 0.7072 -0.6759 -0.2074
vn 0.7071 -0.6536 -0.2697
vn 0.7072 -0.6432 -0.2936
vn 0.7072 -0.6187 -0.3422
vn 0.7072 -0.5995 -0.3748
vn 0.7064 0.6779 -0.2036
vn 0.7070 0.6960 -0.1253
vn 0.7068 0.6768 -0.2058
vn 0.7071 0.6893 -0.1575
vn 0.7071 0.6703 -0.2252
vn 0.7071 0.6623 -0.2477
vn 0.7065 0.6611 -0.2526
vn 0.7071 0.7040 -0.0664
vn 0.7071 0.7056 -0.0453
vn 0.7072 0.7066 0.0259
vn 0.7071 0.7062 0.0355
vn 0.7071 0.6972 0.1176
vn 0.7071 0.6977 0.1155
vn 0.7071 0.6800 0.1938
vn 0.7071 0.6760 0.2074
vn 0.7071 0.6536 0.2697
vn 0.7071 0.6432 0.2936
vn 0.7072 0.6188 0.3420
vn 0.7072 0.5995 0.3748
vn 0.7063 0.6615 0.2522
vn 0.7069 0.6626 0.2474
vn 0.7071 0.6702 0.2253
vn 0.7071 0.6893 0.1575
vn 0.7063 0.6773 0.2061
vn 0.7070 0.6960 0.1252
vn 0.7050 0.6792 0.2041
vn 0.7072 0.7039 0.0665
vn 0.7071 0.7056 0.0452
vn 0.7071 0.7066 -0.0259
vn 0.7070 0.7063 -0.0357
vn 0.7071 0.6973 -0.1177
vn 0.7071 0.6977 -0.1155
vn 0.7071 0.6800 -0.1937
vn 0.7072 0.6759 -0.2074
vn 0.7071 0.6536 -0.2697
vn 0.7072 0.6432 -0.2936
vn 0.7072 0.6187 -0.3422
vn 0.7072 0.5995 -0.3748
vn -0.0000 0.9523 0.3051
vn 0.0006 0.9594 0.2822
vn 0.0004 0.9568 0.2906
vn 0.0009 0.9583 0.2857
vn 0.0001 0.9842 0.1772
vn -0.0001 0.9856 0.1692
vn -0.0001 0.9979 0.0640
vn -0.0001 0.9987 0.0502
vn -0.0001 0.9987 -0.0502
vn 0.0001 0.9976 -0.0696
vn 0.0003 0.9866 -0.1629
vn 0.0003 0.9822 -0.1880
vn 0.0002 0.9617 -0.2739
vn 0.0001 0.9526 -0.3043
vn 0.0002 0.9244 -0.3815
vn -0.0000 0.8746 -0.4848
vn -0.0002 0.8528 -0.5222
vn -0.0000 -0.9597 0.2809
vn 0.0003 -0.9525 0.3046
vn 0.0007 -0.9583 0.2858
vn 0.0005 -0.9568 0.2907
vn 0.0001 -0.9842 0.1772
vn -0.0001 -0.9856 0.1692
vn -0.0001 -0.9979 0.0640
vn -0.0001 -0.9987 0.0502
vn -0.0001 -0.9987 -0.0502
vn 0.0003 -0.9866 -0.1629
vn 0.0003 -0.9822 -0.1880
vn 0.0002 -0.9617 -0.2739
vn 0.0001 -0.9526 -0.3043
vn 0.0002 -0.9244 -0.3815
vn -0.0002 -0.8528 -0.5222
vn -0.0000 -0.8524 -0.5229
vn -0.0000 0.9597 -0.2812
vn 0.0002 0.9562 -0.2928
vn 0.0005 0.9584 -0.2855
vn -0.0002 0.9579 -0.2871
vn 0.0006 0.9842 -0.1773
vn 0.0002 0.9845 -0.1755
vn 0.0004 0.9979 -0.0640
vn -0.0003 0.9981 -0.0624
vn 0.0002 0.9987 0.0502
vn 0.0001 0.9987 0.0512
vn 0.0004 0.9866 0.1629
vn -0.0000 0.9865 0.1638
vn -0.0002 0.9617 0.2741
vn -0.0002 0.9615 0.2748
vn 0.0001 0.9244 0.3814
vn 0.0001 0.9243 0.3816
vn 0.0001 0.8752 0.4837
vn -0.0000 0.8752 0.4838
vn -0.0000 0.7078 -0.7064
vn -0.0000 0.7075 -0.7067
vn -0.0000 0.7070 -0.7072
vn -0.0005 0.9584 -0.2855
vn -0.0002 0.9562 -0.2928
vn 0.0002 0.9579 -0.2871
vn -0.0001 0.9842 -0.1773
vn -0.0002 0.9845 -0.1755
vn -0.0004 0.9979 -0.0640
vn 0.0003 0.9981 -0.0624
vn -0.0002 0.9987 0.0502
vn -0.0001 0.9987 0.0512
vn -0.0004 0.9866 0.1629
vn 0.0002 0.9617 0.2741
vn 0.0002 0.9615 0.2748
vn -0.0001 0.9244 0.3814
vn -0.0001 0.9243 0.3816
vn -0.0001 0.8752 0.4837
vn -0.0000 -0.7058 0.7084
vn -0.0000 -0.7042 0.7100
vt 0.888005 0.460543
vt 0.563654 0.438373
vt 0.888005 0.438373
vt 0.914026 0.418977
vt 0.916586 0.438373
vt 0.563654 0.460543
vt 0.888005 0.482081
vt 0.563654 0.482081
vt 0.888005 0.502764
vt 0.563654 0.502764
vt 0.888005 0.522379
vt 0.563654 0.522379
vt 0.888005 0.540722
vt 0.563654 0.540722
vt 0.888005 0.557604
vt 0.563654 0.557604
vt 0.535073 0.438373
vt 0.537633 0.418977
vt 0.538489 0.399431
vt 0.913171 0.399431
vt 0.913171 0.444243
vt 0.941132 0.451843
vt 0.941132 0.140872
vt 0.913171 0.148472
vt 0.888005 0.148472
vt 0.563654 0.148472
vt 0.538489 0.148472
vt 0.563654 0.100628
vt 0.888005 0.100628
vt 0.510527 0.140872
vt 0.538489 0.444243
vt 0.510527 0.451843
vt 0.101543 0.130935
vt 0.426432 0.153141
vt 0.101543 0.153141
vt 0.075480 0.172570
vt 0.072915 0.153141
vt 0.426432 0.130935
vt 0.101543 0.109361
vt 0.426432 0.109361
vt 0.101543 0.088644
vt 0.426432 0.088644
vt 0.101543 0.068996
vt 0.426432 0.068996
vt 0.101543 0.050623
vt 0.426432 0.050623
vt 0.101543 0.033713
vt 0.426432 0.033713
vt 0.455060 0.153141
vt 0.452495 0.172570
vt 0.451638 0.192148
vt 0.076337 0.192148
vt 0.076337 0.147262
vt 0.048329 0.139649
vt 0.048329 0.451135
vt 0.076337 0.443521
vt 0.101543 0.443521
vt 0.426432 0.443521
vt 0.451638 0.443521
vt 0.426432 0.491445
vt 0.101543 0.491445
vt 0.479646 0.451135
vt 0.451638 0.147262
vt 0.479646 0.139649
vt 0.466822 0.026161
vt 0.453517 0.026220
vt 0.451004 0.020763
vt 0.449568 0.021942
vt 0.446767 0.015316
vt 0.460783 0.020741
vt 0.457961 0.015316
vt 0.465472 0.020728
vt 0.468443 0.015316
vt 0.479215 0.026088
vt 0.078407 0.021942
vt 0.076790 0.025916
vt 0.074459 0.026220
vt 0.869219 0.711020
vt 0.870522 0.718702
vt 0.869219 0.718076
vt 0.523330 0.565144
vt 0.536614 0.565085
vt 0.539122 0.570533
vt 0.540556 0.569355
vt 0.543352 0.575971
vt 0.529360 0.570555
vt 0.532177 0.575971
vt 0.524678 0.570568
vt 0.521712 0.575971
vt 0.510958 0.565216
vt 0.911104 0.569355
vt 0.912718 0.565388
vt 0.915046 0.565085
vt 0.042360 0.971427
vt 0.042360 0.795058
vt 0.050863 0.978831
vt 0.050863 0.787654
vt 0.051203 0.978594
vt 0.051203 0.787891
vt 0.928329 0.565144
vt 0.922300 0.570555
vt 0.908308 0.575971
vt 0.919483 0.575971
vt 0.926981 0.570568
vt 0.929948 0.575971
vt 0.940702 0.565216
vt 0.098262 0.023238
vt 0.090340 0.015316
vt 0.429713 0.023238
vt 0.437634 0.015316
vt 0.899190 0.575971
vt 0.888607 0.565388
vt 0.885961 0.710498
vt 0.885992 0.710355
vt 0.900379 0.710498
vt 0.831205 0.654823
vt 0.833858 0.604321
vt 0.833858 0.656874
vt 0.900930 0.709719
vt 0.888481 0.707839
vt 0.904141 0.707839
vt 0.552470 0.575971
vt 0.891281 0.568062
vt 0.560378 0.568062
vt 0.913849 0.714318
vt 0.929509 0.714318
vt 0.917060 0.716199
vt 0.931998 0.716835
vt 0.917611 0.716978
vt 0.932029 0.716978
vt 0.563052 0.565388
vt 0.538942 0.565388
vt 0.539104 0.567218
vt 0.880838 0.665327
vt 0.881679 0.665511
vt 0.879997 0.665511
vt 0.879997 0.664847
vt 0.880119 0.664788
vt 0.951236 0.968937
vt 0.951236 0.784282
vt 0.951566 0.969166
vt 0.951566 0.784054
vt 0.959799 0.961998
vt 0.959799 0.791222
vt 0.061153 0.026161
vt 0.067192 0.020741
vt 0.081208 0.015316
vt 0.070014 0.015316
vt 0.062503 0.020728
vt 0.059532 0.015316
vt 0.048760 0.026088
vt 0.100941 0.025916
vt 0.935690 0.667355
vt 0.931019 0.670091
vt 0.912907 0.667355
vt 0.909286 0.671016
vt 0.930218 0.671224
vt 0.909242 0.671224
vt 0.896482 0.710498
vt 0.882063 0.710498
vt 0.896451 0.710355
vt 0.881513 0.709719
vt 0.893962 0.707839
vt 0.878302 0.707839
vt 0.451185 0.025916
vt 0.427034 0.025916
vt 0.451022 0.024083
vt 0.451638 0.026228
vt 0.538489 0.565077
vt 0.563654 0.564786
vt 0.538489 0.547746
vt 0.563654 0.546535
vt 0.538489 0.530057
vt 0.563654 0.527903
vt 0.538489 0.512237
vt 0.563654 0.509159
vt 0.538489 0.494519
vt 0.563654 0.490571
vt 0.538489 0.477132
vt 0.563654 0.472405
vt 0.538489 0.460300
vt 0.563654 0.454923
vt 0.882072 0.648765
vt 0.887970 0.648765
vt 0.888081 0.648844
vt 0.510527 0.548701
vt 0.510527 0.564786
vt 0.510527 0.532128
vt 0.510527 0.515350
vt 0.510527 0.498651
vt 0.510527 0.482316
vt 0.510527 0.466625
vt 0.864764 0.960101
vt 0.864764 0.793119
vt 0.970633 0.682129
vt 0.943003 0.684952
vt 0.946620 0.683007
vt 0.944982 0.677833
vt 0.928742 0.677239
vt 0.948917 0.676659
vt 0.924903 0.675781
vt 0.921287 0.673836
vt 0.932738 0.678185
vt 0.940927 0.678485
vt 0.936823 0.678603
vt 0.626677 0.960101
vt 0.626677 0.793119
vt 0.540204 0.784282
vt 0.912094 0.713870
vt 0.893102 0.711930
vt 0.909608 0.712533
vt 0.906969 0.711531
vt 0.895807 0.711123
vt 0.904223 0.710881
vt 0.898594 0.710675
vt 0.901415 0.710594
vt 0.540204 0.968937
vt 0.882733 0.657657
vt 0.910363 0.654834
vt 0.906747 0.656779
vt 0.902908 0.658238
vt 0.886668 0.658831
vt 0.898912 0.659183
vt 0.890722 0.659483
vt 0.894827 0.659601
vt 0.950458 0.681549
vt 0.966698 0.680955
vt 0.954454 0.680603
vt 0.962644 0.680303
vt 0.958539 0.680185
vt 0.048329 0.026519
vt 0.048329 0.042631
vt 0.076337 0.043587
vt 0.076337 0.026228
vt 0.048329 0.059231
vt 0.076337 0.061306
vt 0.048329 0.076037
vt 0.076337 0.079155
vt 0.048329 0.092764
vt 0.076337 0.096902
vt 0.076337 0.114318
vt 0.048329 0.109125
vt 0.076337 0.131178
vt 0.048329 0.124843
vt 0.872362 0.666062
vt 0.866463 0.666062
vt 0.872473 0.665983
vt 0.101543 0.026519
vt 0.101543 0.044801
vt 0.101543 0.063463
vt 0.101543 0.082238
vt 0.101543 0.100857
vt 0.101543 0.119053
vt 0.101543 0.136564
vt 0.698513 0.604321
vt 0.696830 0.610083
vt 0.654073 0.628677
vt 0.693724 0.623164
vt 0.691962 0.636492
vt 0.657044 0.639350
vt 0.691563 0.649930
vt 0.661269 0.649591
vt 0.666688 0.659254
vt 0.692531 0.663339
vt 0.673222 0.668200
vt 0.680779 0.676301
vt 0.694855 0.676581
vt 0.689249 0.683441
vt 0.698513 0.689518
vt 0.426432 0.026519
vt 0.743057 0.689518
vt 0.698617 0.665162
vt 0.741374 0.683756
vt 0.738268 0.670675
vt 0.736506 0.657347
vt 0.701588 0.654489
vt 0.736107 0.643909
vt 0.705813 0.644248
vt 0.711232 0.634585
vt 0.737075 0.630500
vt 0.717766 0.625639
vt 0.725323 0.617538
vt 0.739399 0.617258
vt 0.733794 0.610398
vt 0.743057 0.604321
vt 0.262580 0.661778
vt 0.262580 0.708720
vt 0.068555 0.661778
vt 0.068555 0.708720
vt 0.051343 0.622839
vt 0.051343 0.747659
vt 0.057199 0.754078
vt 0.068555 0.760835
vt 0.910484 0.712809
vt 0.908453 0.716221
vt 0.908453 0.714688
vt 0.262580 0.609663
vt 0.273935 0.616421
vt 0.279791 0.622839
vt 0.279791 0.747659
vt 0.912111 0.647643
vt 0.912111 0.649874
vt 0.909156 0.652608
vt 0.273935 0.754078
vt 0.262580 0.760835
vt 0.905066 0.689719
vt 0.908020 0.694683
vt 0.905066 0.691950
vt 0.057199 0.616421
vt 0.068555 0.609663
vt 0.927719 0.688372
vt 0.924765 0.683408
vt 0.927719 0.686142
vt 0.449568 0.568841
vt 0.451185 0.564867
vt 0.453517 0.564563
vt 0.669950 0.050128
vt 0.662308 0.050163
vt 0.660865 0.047028
vt 0.660039 0.047705
vt 0.658431 0.043899
vt 0.912538 0.022182
vt 0.908308 0.016744
vt 0.922300 0.022160
vt 0.919483 0.016744
vt 0.926981 0.022148
vt 0.929948 0.016744
vt 0.940702 0.027499
vt 0.928329 0.027571
vt 0.540556 0.023360
vt 0.538942 0.027327
vt 0.536614 0.027630
vt 0.061153 0.564623
vt 0.074459 0.564563
vt 0.076971 0.570021
vt 0.078407 0.568841
vt 0.081208 0.575467
vt 0.067192 0.570043
vt 0.070014 0.575467
vt 0.062503 0.570055
vt 0.059532 0.575467
vt 0.048760 0.564695
vt 0.446767 0.575467
vt 0.437634 0.575467
vt 0.427034 0.564867
vt 0.660968 0.049988
vt 0.647097 0.049988
vt 0.653185 0.043899
vt 0.090340 0.575467
vt 0.429713 0.567546
vt 0.098262 0.567546
vt 0.930887 0.671224
vt 0.908104 0.671224
vt 0.926216 0.668488
vt 0.904483 0.667563
vt 0.925415 0.667355
vt 0.904438 0.667355
vt 0.560378 0.024653
vt 0.552470 0.016744
vt 0.891281 0.024653
vt 0.899190 0.016744
vt 0.100941 0.564867
vt 0.076790 0.564867
vt 0.076953 0.566700
vt 0.531641 0.961998
vt 0.531641 0.791222
vt 0.539875 0.969166
vt 0.539875 0.784054
vt 0.941945 0.714420
vt 0.901290 0.714420
vt 0.941895 0.714318
vt 0.901340 0.714318
vt 0.523330 0.027571
vt 0.529360 0.022160
vt 0.543352 0.016744
vt 0.532177 0.016744
vt 0.524678 0.022148
vt 0.521712 0.016744
vt 0.510958 0.027499
vt 0.563052 0.027327
vt 0.893180 0.707839
vt 0.893150 0.707982
vt 0.878762 0.707839
vt 0.878211 0.708618
vt 0.890660 0.710498
vt 0.875001 0.710498
vt 0.889263 0.707839
vt 0.903681 0.707839
vt 0.889293 0.707982
vt 0.904232 0.708618
vt 0.891782 0.710498
vt 0.907442 0.710498
vt 0.839509 0.753412
vt 0.832899 0.742128
vt 0.839509 0.698371
vt 0.830663 0.689622
vt 0.830161 0.740192
vt 0.907088 0.676386
vt 0.886156 0.676177
vt 0.907132 0.676177
vt 0.008959 5.127621
vt 0.122952 5.180443
vt 0.061476 5.167025
vt 0.000000 5.180443
vt 0.000000 5.131926
vt 0.661229 0.050167
vt 0.660875 0.048935
vt 0.894888 0.667355
vt 0.953889 0.667355
vt 0.894815 0.667504
vt 0.953962 0.667504
vt 0.476040 0.978831
vt 0.476040 0.787654
vt 0.484543 0.971427
vt 0.484543 0.795058
vt 0.466822 0.564623
vt 0.460783 0.570043
vt 0.457961 0.575467
vt 0.465472 0.570055
vt 0.468443 0.575467
vt 0.479215 0.564695
vt 0.076337 0.564556
vt 0.048329 0.548153
vt 0.048329 0.564264
vt 0.875160 0.661830
vt 0.879589 0.660759
vt 0.875309 0.661911
vt 0.076337 0.547196
vt 0.048329 0.531552
vt 0.076337 0.529477
vt 0.048329 0.514746
vt 0.076337 0.511629
vt 0.048329 0.498020
vt 0.076337 0.493882
vt 0.076337 0.476465
vt 0.048329 0.481659
vt 0.076337 0.459606
vt 0.048329 0.465941
vt 0.890918 0.652916
vt 0.895198 0.654069
vt 0.890769 0.652997
vt 0.510527 0.027929
vt 0.510527 0.044014
vt 0.538489 0.044969
vt 0.538489 0.027638
vt 0.510527 0.060587
vt 0.538489 0.062658
vt 0.510527 0.077365
vt 0.538489 0.080478
vt 0.510527 0.094064
vt 0.538489 0.098196
vt 0.538489 0.115583
vt 0.510527 0.110398
vt 0.538489 0.132415
vt 0.510527 0.126090
vt 0.887970 0.671270
vt 0.882072 0.671270
vt 0.888081 0.671191
vt 0.881925 0.671117
vt 0.563654 0.027929
vt 0.563654 0.045225
vt 0.563654 0.062875
vt 0.563654 0.080651
vt 0.563654 0.098324
vt 0.563654 0.115666
vt 0.563654 0.132455
vt 0.743057 0.689622
vt 0.728453 0.748605
vt 0.699661 0.715794
vt 0.702864 0.725800
vt 0.707179 0.735379
vt 0.712553 0.744406
vt 0.718915 0.752767
vt 0.726184 0.760352
vt 0.734266 0.767065
vt 0.743057 0.772819
vt 0.888005 0.027929
vt 0.786556 0.772819
vt 0.743161 0.746647
vt 0.771953 0.713836
vt 0.746363 0.736641
vt 0.750679 0.727062
vt 0.756053 0.718035
vt 0.762415 0.709674
vt 0.769684 0.702089
vt 0.777766 0.695376
vt 0.786556 0.689622
vt -0.010758 -3.575692
vt -0.441900 -3.575692
vt -0.000000 -3.586925
vt -0.450000 -3.581496
vt 0.646750 0.050334
vt 0.661229 0.060138
vt 0.646750 0.060285
vt 0.661229 0.070315
vt 0.646750 0.070440
vt 0.888005 0.062875
vt 0.913171 0.062658
vt 0.913171 0.080478
vt 0.888005 0.080651
vt 0.913171 0.098196
vt 0.888005 0.098324
vt 0.913171 0.115583
vt 0.888005 0.115666
vt 0.913171 0.132415
vt 0.888005 0.132455
vt 0.532380 0.651441
vt 0.532380 0.699371
vt 0.334271 0.651441
vt 0.334271 0.699371
vt 0.316696 0.611682
vt 0.316696 0.739130
vt 0.322676 0.745683
vt 0.334271 0.752584
vt 0.918763 0.652608
vt 0.921717 0.647643
vt 0.921717 0.649874
vt 0.532380 0.598228
vt 0.543975 0.605128
vt 0.549954 0.611682
vt 0.549954 0.739130
vt 0.915056 0.716221
vt 0.915056 0.714688
vt 0.917087 0.712809
vt 0.543975 0.745683
vt 0.532380 0.752584
vt 0.937326 0.688372
vt 0.934371 0.683408
vt 0.937326 0.686142
vt 0.322676 0.605128
vt 0.334271 0.598228
vt 0.914672 0.689719
vt 0.917627 0.694683
vt 0.914672 0.691950
vt 0.900294 0.652916
vt 0.900442 0.652997
vt 0.896013 0.654069
vt 0.941132 0.027929
vt 0.941132 0.044014
vt 0.915046 0.027630
vt 0.677316 0.059588
vt 0.941132 0.060587
vt 0.913171 0.044969
vt 0.941132 0.077365
vt 0.941132 0.094064
vt 0.941132 0.110398
vt 0.941132 0.126090
vt 0.913171 0.565077
vt 0.913171 0.547746
vt 0.941132 0.548701
vt 0.941132 0.564786
vt 0.941132 0.532128
vt 0.913171 0.530057
vt 0.941132 0.515350
vt 0.913171 0.512237
vt 0.941132 0.498651
vt 0.913171 0.494519
vt 0.913171 0.477132
vt 0.941132 0.482316
vt 0.913171 0.460300
vt 0.941132 0.466625
vt 0.140508 0.969468
vt 0.891410 0.717602
vt 0.902573 0.718010
vt 0.888706 0.718409
vt 0.905211 0.719012
vt 0.907697 0.720349
vt 0.899826 0.717360
vt 0.894197 0.717154
vt 0.897018 0.717073
vt 0.140508 0.797017
vt 0.386395 0.797017
vt 0.386395 0.969468
vt 0.475700 0.787891
vt 0.475700 0.978594
vt 0.451638 0.564556
vt 0.451638 0.547196
vt 0.479646 0.548153
vt 0.479646 0.564264
vt 0.880404 0.660759
vt 0.884834 0.661830
vt 0.884685 0.661911
vt 0.479646 0.531552
vt 0.451638 0.529477
vt 0.479646 0.514746
vt 0.451638 0.511629
vt 0.479646 0.498020
vt 0.451638 0.493882
vt 0.451638 0.476465
vt 0.479646 0.481659
vt 0.451638 0.459606
vt 0.479646 0.465941
vt 0.479646 0.026519
vt 0.479646 0.042631
vt 0.451638 0.043587
vt 0.479646 0.059231
vt 0.451638 0.061306
vt 0.479646 0.076037
vt 0.451638 0.079155
vt 0.479646 0.092764
vt 0.451638 0.096902
vt 0.451638 0.114318
vt 0.479646 0.109125
vt 0.451638 0.131178
vt 0.479646 0.124843
vt 0.426432 0.044801
vt 0.426432 0.063463
vt 0.426432 0.082238
vt 0.426432 0.100857
vt 0.426432 0.119053
vt 0.426432 0.136564
vt 0.698513 0.774819
vt 0.654073 0.750463
vt 0.696830 0.769057
vt 0.693724 0.755976
vt 0.691962 0.742648
vt 0.657044 0.739790
vt 0.691563 0.729210
vt 0.661269 0.729549
vt 0.666688 0.719886
vt 0.692531 0.715801
vt 0.673222 0.710940
vt 0.680779 0.702839
vt 0.694855 0.702559
vt 0.689249 0.695699
vt 0.698513 0.689622
vt 0.787601 0.604321
vt 0.785918 0.610083
vt 0.743161 0.628677
vt 0.782812 0.623164
vt 0.781050 0.636492
vt 0.746132 0.639350
vt 0.780651 0.649930
vt 0.750357 0.649591
vt 0.755776 0.659254
vt 0.781619 0.663339
vt 0.762310 0.668200
vt 0.769867 0.676301
vt 0.783943 0.676581
vt 0.778338 0.683441
vt 0.787601 0.689518
vt 0.889560 0.648765
vt 0.895458 0.648765
vt 0.889449 0.648844
vt 0.888005 0.564786
vt 0.888005 0.546535
vt 0.888005 0.527903
vt 0.888005 0.509159
vt 0.888005 0.490571
vt 0.888005 0.472405
vt 0.888005 0.454923
vt 0.830056 0.689622
vt 0.815453 0.748605
vt 0.786661 0.715794
vt 0.789863 0.725800
vt 0.794179 0.735379
vt 0.799553 0.744406
vt 0.805915 0.752767
vt 0.813184 0.760352
vt 0.821265 0.767065
vt 0.830056 0.772819
vt 0.873951 0.643557
vt 0.879850 0.643557
vt 0.873841 0.643636
vt 0.879997 0.643710
vt 0.426432 0.564264
vt 0.426432 0.546940
vt 0.426432 0.529261
vt 0.426432 0.511455
vt 0.426432 0.493753
vt 0.426432 0.476382
vt 0.426432 0.459566
vt 0.101543 0.564264
vt 0.872362 0.643557
vt 0.872473 0.643636
vt 0.866463 0.643557
vt 0.866316 0.643710
vt 0.101543 0.546940
vt 0.101543 0.529261
vt 0.101543 0.511455
vt 0.101543 0.493753
vt 0.101543 0.476382
vt 0.101543 0.459566
vt 0.831100 0.687517
vt 0.787705 0.661346
vt 0.816497 0.628535
vt 0.790907 0.651340
vt 0.795223 0.641761
vt 0.800597 0.632733
vt 0.806959 0.624373
vt 0.814228 0.616787
vt 0.822310 0.610074
vt 0.831100 0.604321
s 1
usemtl mat_car_rc_body_futur
f 2/1/1 14/2/2 1/3/2
f 1/3/2 14/2/2 19/4/3
f 1/3/2 19/4/3 20/5/2
f 14/2/2 2/1/1 13/6/1
f 13/6/1 2/1/1 3/7/4
f 13/6/1 3/7/4 12/8/4
f 12/8/4 3/7/4 4/9/5
f 12/8/4 4/9/5 11/10/5
f 11/10/5 4/9/5 5/11/6
f 11/10/5 5/11/6 10/12/6
f 10/12/6 5/11/6 6/13/7
f 10/12/6 6/13/7 9/14/7
f 9/14/7 6/13/7 7/15/8
f 9/14/7 7/15/8 8/16/8
f 15/17/2 16/18/3 14/2/2
f 14/2/2 16/18/3 19/4/3
f 17/19/9 18/20/9 16/18/3
f 16/18/3 18/20/9 19/4/3
f 21/21/10 20/5/11 24/22/12
f 24/22/12 20/5/11 23/23/13
f 23/23/13 20/5/11 18/20/14
f 23/23/13 18/20/14 22/24/13
f 20/5/11 19/4/15 18/20/14
f 22/24/16 18/20/9 29/25/16
f 29/25/16 18/20/9 17/19/9
f 29/25/16 17/19/9 26/26/16
f 26/26/16 17/19/9 25/27/16
f 27/28/16 28/29/16 26/26/16
f 26/26/16 28/29/16 29/25/16
f 16/18/17 15/17/18 17/19/19
f 17/19/19 15/17/18 32/30/20
f 17/19/19 32/30/20 25/27/20
f 30/31/21 31/32/22 15/17/18
f 15/17/18 31/32/22 32/30/20
f 34/33/23 46/34/24 33/35/24
f 33/35/24 46/34/24 51/36/25
f 33/35/24 51/36/25 52/37/24
f 46/34/24 34/33/23 45/38/23
f 45/38/23 34/33/23 35/39/26
f 45/38/23 35/39/26 44/40/26
f 44/40/26 35/39/26 36/41/27
f 44/40/26 36/41/27 43/42/27
f 43/42/27 36/41/27 37/43/28
f 43/42/27 37/43/28 42/44/28
f 42/44/28 37/43/28 38/45/29
f 42/44/28 38/45/29 41/46/29
f 41/46/29 38/45/29 39/47/30
f 41/46/29 39/47/30 40/48/30
f 47/49/24 48/50/25 46/34/24
f 46/34/24 48/50/25 51/36/25
f 49/51/31 50/52/31 48/50/25
f 48/50/25 50/52/31 51/36/25
f 53/53/32 52/37/33 56/54/34
f 56/54/34 52/37/33 55/55/35
f 55/55/35 52/37/33 50/52/36
f 55/55/35 50/52/36 54/56/35
f 52/37/33 51/36/37 50/52/36
f 54/56/38 50/52/31 61/57/38
f 61/57/38 50/52/31 49/51/31
f 61/57/38 49/51/31 58/58/38
f 58/58/38 49/51/31 57/59/38
f 59/60/38 60/61/38 58/58/38
f 58/58/38 60/61/38 61/57/38
f 48/50/39 47/49/40 49/51/41
f 49/51/41 47/49/40 64/62/42
f 49/51/41 64/62/42 57/59/42
f 62/63/43 63/64/44 47/49/40
f 47/49/40 63/64/44 64/62/42
f 71/65/45 65/66/46 72/67/47
f 72/67/47 65/66/46 66/68/48
f 72/67/47 66/68/48 67/69/49
f 72/67/47 67/69/49 74/70/50
f 74/70/50 67/69/49 68/71/51
f 74/70/50 68/71/51 73/72/52
f 73/72/52 68/71/51 69/73/53
f 73/72/52 69/73/53 70/74/54
f 70/74/54 71/65/45 73/72/52
f 73/72/52 71/65/45 74/70/50
f 74/70/50 71/65/45 72/67/47
f 76/75/55 77/76/56 75/77/57
f 75/78/57 77/79/56 78/80/58
f 85/81/59 79/82/60 86/83/61
f 86/83/61 79/82/60 80/84/62
f 86/83/61 80/84/62 81/85/63
f 86/83/61 81/85/63 88/86/64
f 88/86/64 81/85/63 82/87/65
f 88/86/64 82/87/65 87/88/66
f 87/88/66 82/87/65 83/89/67
f 87/88/66 83/89/67 84/90/68
f 84/90/68 85/81/59 87/88/66
f 87/88/66 85/81/59 88/86/64
f 88/86/64 85/81/59 86/83/61
f 90/91/69 91/92/70 89/93/71
f 89/78/71 91/79/70 92/80/72
f 69/94/73 93/95/73 70/96/73
f 70/96/73 93/95/73 94/97/73
f 70/96/73 94/97/73 96/98/73
f 96/98/73 94/97/73 95/99/73
f 89/93/71 97/100/74 90/91/69
f 90/91/69 97/100/74 100/101/75
f 90/91/69 100/101/75 99/102/76
f 99/102/76 100/101/75 98/103/77
f 98/103/77 100/101/75 101/104/78
f 98/103/77 101/104/78 93/105/79
f 93/105/79 101/104/78 94/106/80
f 94/106/80 101/104/78 97/100/74
f 97/100/74 101/104/78 100/101/75
f 103/107/81 104/108/81 102/109/81
f 102/109/81 104/108/81 105/110/81
f 99/102/82 106/111/83 90/91/84
f 90/91/84 106/111/83 107/112/85
f 90/91/84 107/112/85 91/92/86
f 109/113/87 110/114/88 108/115/89
f 108/116/89 110/117/88 103/118/90
f 103/119/90 110/114/88 111/120/91
f 103/119/90 111/120/91 104/121/92
f 112/111/93 113/122/93 115/123/93
f 115/123/93 113/122/93 114/124/93
f 113/125/92 116/126/94 114/127/90
f 114/127/90 116/126/94 117/128/88
f 114/127/90 117/128/88 119/129/95
f 119/129/95 117/128/88 118/130/87
f 81/85/82 80/84/96 116/122/97
f 116/122/97 80/84/96 117/131/98
f 117/131/98 80/84/96 120/132/86
f 120/132/99 80/84/62 122/133/100
f 122/134/100 80/135/62 79/136/60
f 122/134/100 79/136/60 121/137/101
f 121/137/101 120/138/99 122/134/100
f 123/139/102 124/140/102 126/141/103
f 126/141/103 124/140/102 84/142/103
f 126/141/103 84/142/103 125/143/104
f 125/143/104 84/142/103 83/144/104
f 75/77/57 127/145/105 76/75/55
f 76/75/55 127/145/105 130/146/106
f 76/75/55 130/146/106 129/147/107
f 129/147/107 130/146/106 128/148/108
f 128/148/108 130/146/106 131/149/109
f 128/148/108 131/149/109 125/150/110
f 125/150/110 131/149/109 126/151/111
f 126/151/111 131/149/109 127/145/105
f 127/145/105 131/149/109 130/146/106
f 77/76/112 76/75/113 110/152/114
f 110/152/114 76/75/113 111/108/115
f 111/108/115 76/75/113 129/147/116
f 112/153/104 115/154/117 106/155/104
f 106/155/104 115/154/117 107/156/118
f 107/156/118 115/154/117 132/157/119
f 107/156/118 132/157/119 133/158/120
f 134/159/120 135/160/121 137/161/118
f 137/161/118 135/160/121 102/162/117
f 137/161/118 102/162/117 136/163/104
f 136/163/104 102/162/117 105/164/104
f 138/165/112 137/166/122 66/68/123
f 66/68/123 137/166/122 136/110/124
f 66/68/123 136/110/124 67/69/116
f 138/138/125 66/135/48 140/134/126
f 140/134/126 66/135/48 65/136/46
f 140/167/126 65/66/46 139/168/127
f 139/137/127 138/138/125 140/134/126
f 117/131/128 121/169/129 118/170/130
f 118/170/130 121/169/129 141/171/131
f 118/170/130 141/171/131 152/172/132
f 152/172/132 141/171/131 142/173/133
f 152/172/132 142/173/133 151/174/134
f 151/174/134 142/173/133 143/175/135
f 151/174/134 143/175/135 150/176/136
f 150/176/136 143/175/135 144/177/137
f 150/176/136 144/177/137 149/178/138
f 149/178/138 144/177/137 145/179/139
f 149/178/138 145/179/139 148/180/140
f 148/180/140 145/179/139 146/181/141
f 148/180/140 146/181/141 147/182/142
f 147/182/142 146/181/141 30/31/143
f 147/182/142 30/31/143 14/2/144
f 14/2/144 30/31/143 15/17/145
f 117/183/128 120/184/146 121/185/129
f 121/169/147 79/82/148 153/186/149
f 153/186/149 79/82/148 85/81/150
f 153/186/149 85/81/150 124/187/151
f 124/187/151 85/81/150 84/90/152
f 121/169/147 153/186/149 141/171/153
f 141/171/153 153/186/149 154/188/154
f 141/171/153 154/188/154 142/173/155
f 142/173/155 154/188/154 155/189/156
f 142/173/155 155/189/156 143/175/157
f 143/175/157 155/189/156 156/190/158
f 143/175/157 156/190/158 144/177/159
f 144/177/159 156/190/158 145/179/160
f 145/179/160 156/190/158 157/191/161
f 145/179/160 157/191/161 146/181/162
f 146/181/162 157/191/161 158/192/163
f 146/181/162 158/192/163 30/31/164
f 30/31/164 158/192/163 31/32/165
f 123/139/166 56/193/166 124/140/166
f 124/140/166 56/193/166 31/194/166
f 124/195/166 31/196/166 158/197/166
f 159/198/166 163/199/166 123/200/166
f 123/200/166 163/199/166 164/201/166
f 123/200/166 164/201/166 56/202/166
f 163/199/166 159/198/166 162/203/166
f 162/203/166 159/198/166 160/204/166
f 162/203/166 160/204/166 161/205/166
f 56/193/166 55/206/166 31/194/166
f 31/194/166 55/206/166 32/207/166
f 32/207/166 55/206/166 172/208/166
f 32/209/166 172/210/166 178/211/166
f 178/211/166 172/210/166 177/212/166
f 177/212/166 172/210/166 173/213/166
f 177/212/166 173/213/166 176/214/166
f 176/214/166 173/213/166 174/215/166
f 176/214/166 174/215/166 175/216/166
f 172/208/166 55/206/166 171/217/166
f 171/218/166 55/219/166 165/220/166
f 171/218/166 165/220/166 166/221/166
f 171/218/166 166/221/166 170/222/166
f 170/222/166 166/221/166 167/223/166
f 170/222/166 167/223/166 169/224/166
f 169/224/166 167/223/166 168/225/166
f 158/197/166 157/226/166 124/195/166
f 124/195/166 157/226/166 153/227/166
f 153/227/166 157/226/166 156/228/166
f 153/227/166 156/228/166 154/229/166
f 154/229/166 156/228/166 155/230/166
f 126/151/167 127/145/168 123/231/169
f 123/231/169 127/145/168 159/232/170
f 159/232/170 127/145/168 75/77/171
f 159/232/170 75/77/171 179/233/172
f 179/233/172 75/77/171 78/234/173
f 159/232/170 179/233/172 160/235/174
f 160/235/174 179/233/172 180/236/175
f 160/235/174 180/236/175 161/237/176
f 161/237/176 180/236/175 181/238/177
f 161/237/176 181/238/177 162/239/178
f 162/239/178 181/238/177 182/240/179
f 162/239/178 182/240/179 183/241/180
f 162/239/178 183/241/180 163/242/181
f 163/242/181 183/241/180 184/243/182
f 163/242/181 184/243/182 164/244/183
f 164/244/183 184/243/182 53/53/184
f 164/244/183 53/53/184 56/54/185
f 77/245/186 110/246/187 78/247/188
f 78/234/188 110/152/187 109/248/189
f 78/234/188 109/248/189 179/233/190
f 179/233/190 109/248/189 185/249/191
f 179/233/190 185/249/191 180/236/192
f 180/236/192 185/249/191 186/250/193
f 180/236/192 186/250/193 181/238/194
f 181/238/194 186/250/193 187/251/195
f 181/238/194 187/251/195 182/240/196
f 182/240/196 187/251/195 188/252/197
f 182/240/196 188/252/197 183/241/198
f 183/241/198 188/252/197 189/253/199
f 183/241/198 189/253/199 184/243/200
f 184/243/200 189/253/199 190/254/201
f 184/243/200 190/254/201 53/53/202
f 53/53/202 190/254/201 33/35/203
f 53/53/202 33/35/203 52/37/204
f 108/255/205 39/256/205 109/257/205
f 109/257/205 39/256/205 38/258/205
f 109/257/205 38/258/205 37/259/205
f 109/257/205 37/259/205 185/260/205
f 185/260/205 37/259/205 36/261/205
f 185/260/205 36/261/205 186/262/205
f 186/262/205 36/261/205 187/263/205
f 187/263/205 36/261/205 35/264/205
f 187/263/205 35/264/205 188/265/205
f 188/265/205 35/264/205 189/266/205
f 189/266/205 35/264/205 34/267/205
f 189/266/205 34/267/205 190/268/205
f 190/268/205 34/267/205 33/269/205
f 40/48/30 39/47/30 135/270/206
f 135/270/206 39/47/30 108/248/206
f 135/270/206 108/248/206 102/109/207
f 102/109/207 108/248/206 103/107/207
f 135/271/166 134/272/166 40/273/166
f 40/273/166 134/272/166 41/274/166
f 41/274/166 134/272/166 42/275/166
f 42/275/166 134/272/166 191/276/166
f 42/275/166 191/276/166 43/277/166
f 43/277/166 191/276/166 192/278/166
f 43/277/166 192/278/166 193/279/166
f 43/277/166 193/279/166 44/280/166
f 44/280/166 193/279/166 194/281/166
f 44/280/166 194/281/166 195/282/166
f 44/280/166 195/282/166 45/283/166
f 45/283/166 195/282/166 196/284/166
f 45/283/166 196/284/166 46/285/166
f 112/286/208 105/287/208 113/288/208
f 113/288/208 105/287/208 104/289/208
f 113/288/208 104/289/208 83/290/208
f 83/290/208 104/289/208 125/291/208
f 125/291/208 104/289/208 128/292/208
f 128/292/208 104/289/208 111/293/208
f 128/294/208 111/295/208 129/296/208
f 106/297/208 98/298/208 112/286/208
f 112/286/208 98/298/208 93/299/208
f 112/286/208 93/299/208 69/300/208
f 106/301/208 99/302/208 98/303/208
f 112/286/208 69/300/208 105/287/208
f 105/287/208 69/300/208 68/304/208
f 105/287/208 68/304/208 136/305/208
f 136/306/208 68/307/208 67/308/208
f 83/290/208 82/309/208 113/288/208
f 113/288/208 82/309/208 116/310/208
f 116/311/208 82/312/208 81/313/208
f 198/314/209 199/315/210 197/316/211
f 197/78/211 199/79/210 200/80/212
f 207/317/213 201/318/214 208/319/215
f 208/319/215 201/318/214 202/320/216
f 208/319/215 202/320/216 203/321/217
f 208/322/215 203/323/217 210/324/218
f 210/324/218 203/323/217 204/325/219
f 210/324/218 204/325/219 209/326/220
f 209/326/220 204/325/219 205/327/221
f 209/326/220 205/327/221 206/328/222
f 206/328/222 207/329/213 209/326/220
f 209/326/220 207/329/213 210/324/218
f 210/324/218 207/329/213 208/322/215
f 212/330/223 213/331/224 211/332/225
f 211/78/225 213/79/224 214/80/226
f 221/333/227 215/334/228 222/335/229
f 222/335/229 215/334/228 216/336/230
f 222/335/229 216/336/230 217/337/231
f 222/335/229 217/337/231 224/338/232
f 224/338/232 217/337/231 218/339/233
f 224/338/232 218/339/233 223/340/234
f 223/340/234 218/339/233 219/341/235
f 223/340/234 219/341/235 220/342/236
f 220/342/236 221/333/227 223/340/234
f 223/340/234 221/333/227 224/338/232
f 224/338/232 221/333/227 222/335/229
f 225/343/237 226/344/238 198/314/239
f 198/314/239 226/344/238 227/345/240
f 198/314/239 227/345/240 199/315/241
f 228/346/242 229/347/243 202/320/244
f 202/320/244 229/347/243 230/348/245
f 202/320/244 230/348/245 203/321/246
f 231/344/247 232/349/247 234/350/247
f 234/350/247 232/349/247 233/351/247
f 232/352/248 235/353/249 233/354/250
f 233/354/250 235/353/249 236/355/251
f 233/354/250 236/355/251 238/356/249
f 238/356/249 236/355/251 237/357/252
f 240/358/253 241/359/253 239/360/253
f 239/360/253 241/359/253 242/361/253
f 217/337/237 216/336/254 235/349/255
f 235/349/255 216/336/254 236/362/256
f 236/362/256 216/336/254 243/363/241
f 243/138/257 216/135/230 245/134/258
f 245/364/258 216/336/230 215/334/228
f 245/134/258 215/136/228 244/137/259
f 244/137/259 243/138/257 245/134/258
f 219/365/260 246/366/260 220/367/261
f 220/367/261 246/366/260 247/368/261
f 220/369/261 247/370/261 171/371/262
f 171/371/262 247/370/261 172/372/262
f 211/332/225 248/373/263 212/330/223
f 212/330/223 248/373/263 251/374/264
f 212/330/223 251/374/264 250/375/265
f 250/375/265 251/374/264 249/376/266
f 249/376/266 251/374/264 252/377/267
f 249/376/266 252/377/267 246/378/268
f 246/378/268 252/377/267 247/379/269
f 247/379/269 252/377/267 248/373/263
f 248/373/263 252/377/267 251/374/264
f 213/331/242 212/330/270 253/380/271
f 253/380/271 212/330/270 254/359/272
f 254/359/272 212/330/270 250/375/246
f 256/381/252 253/382/251 255/383/273
f 255/383/273 253/382/251 240/384/250
f 240/384/250 253/382/251 254/385/273
f 240/384/250 254/385/273 241/386/248
f 257/387/274 258/388/275 229/389/276
f 229/389/276 258/388/275 239/390/277
f 229/389/276 239/390/277 230/391/278
f 230/391/278 239/390/277 242/392/278
f 231/393/278 234/394/277 226/395/278
f 226/395/278 234/394/277 227/396/276
f 227/396/276 234/394/277 259/397/279
f 227/398/276 259/399/279 260/400/274
f 228/401/280 202/402/216 262/403/281
f 262/403/281 202/402/216 201/404/214
f 262/403/281 201/404/214 261/405/282
f 261/406/282 228/346/280 262/407/281
f 263/408/283 264/409/283 266/410/250
f 266/410/250 264/409/283 206/411/250
f 266/412/250 206/413/250 265/414/284
f 265/414/284 206/413/250 205/415/284
f 197/316/211 267/416/285 198/314/209
f 198/314/209 267/416/285 269/417/286
f 198/314/209 269/417/286 225/343/287
f 225/343/287 269/417/286 268/418/288
f 268/418/288 269/417/286 270/419/289
f 268/418/288 270/419/289 265/420/290
f 265/420/290 270/419/289 266/421/291
f 266/421/291 270/419/289 267/416/285
f 267/416/285 270/419/289 269/417/286
f 244/422/292 215/334/293 170/423/294
f 170/423/294 215/334/293 221/333/295
f 170/423/294 221/333/295 171/424/296
f 171/425/296 221/426/295 220/427/297
f 244/422/292 170/423/294 276/428/298
f 276/428/298 170/423/294 169/429/299
f 276/428/298 169/429/299 275/430/300
f 275/430/300 169/429/299 168/431/301
f 275/430/300 168/431/301 274/432/302
f 274/432/302 168/431/301 167/433/303
f 274/432/302 167/433/303 273/434/304
f 273/434/304 167/433/303 272/435/305
f 272/435/305 167/433/303 166/436/306
f 272/435/305 166/436/306 271/437/307
f 271/437/307 166/436/306 165/438/308
f 271/437/307 165/438/308 54/56/309
f 54/56/309 165/438/308 55/55/310
f 247/439/311 248/440/312 172/441/313
f 172/442/313 248/373/312 173/443/314
f 173/443/314 248/373/312 211/332/315
f 173/443/314 211/332/315 277/444/316
f 277/444/316 211/332/315 214/445/317
f 173/443/314 277/444/316 174/446/318
f 174/446/318 277/444/316 278/447/319
f 174/446/318 278/447/319 175/448/320
f 175/448/320 278/447/319 279/449/321
f 175/448/320 279/449/321 176/450/322
f 176/450/322 279/449/321 280/451/323
f 176/450/322 280/451/323 281/452/324
f 176/450/322 281/452/324 177/453/325
f 177/453/325 281/452/324 282/454/326
f 177/453/325 282/454/326 178/455/327
f 178/455/327 282/454/326 25/27/328
f 178/455/327 25/27/328 32/30/329
f 213/456/330 253/457/331 214/458/332
f 214/458/332 253/457/331 256/459/333
f 214/445/332 256/460/333 277/444/334
f 277/444/334 256/460/333 283/461/335
f 277/444/334 283/461/335 278/447/336
f 278/447/336 283/461/335 284/462/337
f 278/447/336 284/462/337 279/449/338
f 279/449/338 284/462/337 285/463/339
f 279/449/338 285/463/339 280/451/340
f 280/451/340 285/463/339 286/464/341
f 280/451/340 286/464/341 281/452/342
f 281/452/342 286/464/341 287/465/343
f 281/452/342 287/465/343 282/454/344
f 282/454/344 287/465/343 288/466/345
f 282/454/344 288/466/345 25/27/346
f 25/27/346 288/466/345 26/26/347
f 255/467/205 27/468/205 256/469/205
f 256/469/205 27/468/205 283/470/205
f 283/470/205 27/468/205 284/471/205
f 284/471/205 27/468/205 285/472/205
f 285/472/205 27/468/205 286/473/205
f 286/473/205 27/468/205 287/474/205
f 287/474/205 27/468/205 288/475/205
f 288/475/205 27/468/205 26/476/205
f 240/358/348 239/360/348 255/460/348
f 255/460/348 239/360/348 258/477/348
f 255/460/348 258/477/348 27/28/349
f 27/28/349 258/477/348 28/29/349
f 258/478/166 257/479/166 28/480/166
f 28/480/166 257/479/166 289/481/166
f 28/480/166 289/481/166 290/482/166
f 290/482/166 291/483/166 28/480/166
f 28/480/166 291/483/166 292/484/166
f 28/480/166 292/484/166 293/485/166
f 293/485/166 294/486/166 28/480/166
f 28/480/166 294/486/166 29/487/166
f 229/488/350 228/489/351 257/490/352
f 257/490/352 228/489/351 261/491/353
f 257/492/352 261/406/353 295/493/354
f 257/492/352 295/493/354 289/494/355
f 289/494/355 295/493/354 296/495/356
f 289/494/355 296/495/356 290/496/357
f 290/497/357 296/498/356 297/499/358
f 290/497/357 297/499/358 291/500/359
f 291/500/359 297/499/358 298/501/360
f 291/500/359 298/501/360 292/502/341
f 292/502/341 298/501/360 299/503/361
f 292/502/341 299/503/361 293/504/362
f 293/504/362 299/503/361 300/505/363
f 293/504/362 300/505/363 294/506/364
f 294/506/364 300/505/363 22/24/365
f 294/506/364 22/24/365 29/25/347
f 241/507/366 232/508/366 242/509/366
f 242/509/366 232/508/366 231/510/366
f 242/509/366 231/510/366 205/511/366
f 205/511/366 231/510/366 265/512/366
f 265/512/366 231/510/366 268/513/366
f 268/513/366 231/510/366 226/514/366
f 268/515/366 226/516/366 225/517/366
f 254/518/366 249/519/366 241/507/366
f 241/507/366 249/519/366 246/520/366
f 241/507/366 246/520/366 219/521/366
f 254/522/366 250/523/366 249/524/366
f 241/507/366 219/521/366 232/508/366
f 232/508/366 219/521/366 218/525/366
f 232/508/366 218/525/366 235/526/366
f 235/527/366 218/528/366 217/529/366
f 205/511/366 204/530/366 242/509/366
f 242/509/366 204/530/366 230/531/366
f 230/532/366 204/533/366 203/534/366
f 206/535/367 264/536/368 207/537/369
f 207/329/369 264/538/368 301/539/370
f 207/329/369 301/539/370 201/540/371
f 201/318/371 301/541/370 295/493/372
f 201/318/371 295/493/372 261/406/373
f 301/539/370 302/542/374 295/543/372
f 295/543/372 302/542/374 296/498/375
f 296/498/375 302/542/374 303/544/376
f 296/498/375 303/544/376 297/499/377
f 297/499/377 303/544/376 304/545/378
f 297/499/377 304/545/378 298/501/379
f 298/501/379 304/545/378 299/503/380
f 299/503/380 304/545/378 305/546/381
f 299/503/380 305/546/381 300/505/382
f 300/505/382 305/546/381 306/547/383
f 300/505/382 306/547/383 22/24/384
f 22/24/384 306/547/383 23/23/385
f 92/548/386 307/549/387 89/93/388
f 89/93/388 307/549/387 318/550/389
f 89/93/388 318/550/389 97/100/390
f 97/100/390 318/550/389 95/551/391
f 97/100/390 95/551/391 94/106/392
f 318/550/389 307/549/387 317/552/393
f 317/552/393 307/549/387 308/553/394
f 317/552/393 308/553/394 316/554/395
f 316/554/395 308/553/394 309/555/396
f 316/554/395 309/555/396 315/556/397
f 315/556/397 309/555/396 310/557/398
f 315/556/397 310/557/398 311/558/399
f 315/556/397 311/558/399 314/559/400
f 314/559/400 311/558/399 312/560/401
f 314/559/400 312/560/401 313/561/402
f 313/561/402 312/560/401 21/21/403
f 313/561/402 21/21/403 24/22/404
f 95/99/205 63/562/205 96/98/205
f 96/218/205 63/219/205 325/220/205
f 96/218/205 325/220/205 326/221/205
f 318/563/205 314/564/205 95/565/205
f 95/565/205 314/564/205 313/566/205
f 95/565/205 313/566/205 24/567/205
f 314/564/205 318/563/205 315/568/205
f 315/568/205 318/563/205 317/569/205
f 315/568/205 317/569/205 316/570/205
f 95/99/205 24/571/205 63/562/205
f 63/562/205 24/571/205 23/572/205
f 63/562/205 23/572/205 64/573/205
f 64/573/205 23/572/205 264/574/205
f 64/573/205 264/574/205 263/575/205
f 23/196/205 306/197/205 264/195/205
f 264/195/205 306/197/205 305/226/205
f 264/195/205 305/226/205 301/227/205
f 301/227/205 305/226/205 304/228/205
f 301/227/205 304/228/205 302/229/205
f 302/229/205 304/228/205 303/230/205
f 319/198/205 323/199/205 263/200/205
f 263/200/205 323/199/205 324/201/205
f 263/200/205 324/201/205 64/202/205
f 323/199/205 319/198/205 322/203/205
f 322/203/205 319/198/205 320/204/205
f 322/203/205 320/204/205 321/205/205
f 96/218/205 326/221/205 330/222/205
f 330/222/205 326/221/205 327/223/205
f 330/222/205 327/223/205 329/224/205
f 329/224/205 327/223/205 328/225/205
f 200/576/405 331/577/406 197/316/407
f 197/316/407 331/577/406 319/578/408
f 197/316/407 319/578/408 267/416/409
f 267/416/409 319/578/408 263/579/410
f 267/580/409 263/581/410 266/582/411
f 319/578/408 331/577/406 320/583/412
f 320/583/412 331/577/406 332/584/413
f 320/583/412 332/584/413 321/585/414
f 321/585/414 332/584/413 333/586/415
f 321/585/414 333/586/415 322/587/416
f 322/587/416 333/586/415 334/588/417
f 322/587/416 334/588/417 335/589/418
f 322/587/416 335/589/418 323/590/419
f 323/590/419 335/589/418 336/591/420
f 323/590/419 336/591/420 324/592/421
f 324/592/421 336/591/420 57/59/422
f 324/592/421 57/59/422 64/62/423
f 70/74/424 96/593/425 71/65/426
f 71/65/426 96/593/425 330/594/427
f 71/65/426 330/594/427 65/66/428
f 65/66/428 330/594/427 342/595/429
f 65/66/428 342/595/429 139/168/430
f 330/594/427 329/596/431 342/595/429
f 342/595/429 329/596/431 341/597/432
f 341/597/432 329/596/431 328/598/433
f 341/597/432 328/598/433 340/599/434
f 340/599/434 328/598/433 327/600/435
f 340/599/434 327/600/435 339/601/436
f 339/601/436 327/600/435 338/602/437
f 338/602/437 327/600/435 326/603/438
f 338/602/437 326/603/438 337/604/439
f 337/604/439 326/603/438 325/605/440
f 337/604/439 325/605/440 62/63/441
f 62/63/441 325/605/440 63/64/442
f 137/166/443 138/165/444 134/270/445
f 134/270/445 138/165/444 139/168/446
f 134/270/445 139/168/446 342/595/447
f 134/270/445 342/595/447 191/606/448
f 191/606/448 342/595/447 341/597/449
f 191/606/448 341/597/449 192/607/450
f 192/607/450 341/597/449 340/599/451
f 192/607/450 340/599/451 193/608/452
f 193/608/452 340/599/451 339/601/453
f 193/608/452 339/601/453 194/609/454
f 194/609/454 339/601/453 338/602/455
f 194/609/454 338/602/455 195/610/456
f 195/610/456 338/602/455 337/604/457
f 195/610/456 337/604/457 196/611/201
f 196/611/201 337/604/457 62/63/458
f 196/611/201 62/63/458 46/34/459
f 46/34/459 62/63/458 47/49/204
f 119/612/205 118/613/205 8/614/205
f 8/614/205 118/613/205 9/615/205
f 9/615/205 118/613/205 10/616/205
f 10/616/205 118/613/205 152/617/205
f 10/616/205 152/617/205 11/618/205
f 11/618/205 152/617/205 151/619/205
f 11/618/205 151/619/205 150/620/205
f 11/618/205 150/620/205 12/621/205
f 12/621/205 150/620/205 149/622/205
f 12/621/205 149/622/205 148/623/205
f 12/621/205 148/623/205 13/624/205
f 13/624/205 148/623/205 147/625/205
f 13/624/205 147/625/205 14/626/205
f 132/627/166 7/628/166 133/629/166
f 133/629/166 7/628/166 6/630/166
f 133/629/166 6/630/166 5/631/166
f 133/629/166 5/631/166 348/632/166
f 348/632/166 5/631/166 4/633/166
f 348/632/166 4/633/166 347/634/166
f 347/634/166 4/633/166 346/635/166
f 346/635/166 4/633/166 3/636/166
f 346/635/166 3/636/166 345/637/166
f 345/637/166 3/636/166 344/638/166
f 344/638/166 3/636/166 2/639/166
f 344/638/166 2/639/166 343/640/166
f 343/640/166 2/639/166 1/641/166
f 91/642/460 107/643/461 92/644/462
f 92/548/462 107/112/461 133/645/463
f 92/548/462 133/645/463 307/549/464
f 307/549/464 133/645/463 348/646/465
f 307/549/464 348/646/465 308/553/466
f 308/553/466 348/646/465 347/647/467
f 308/553/466 347/647/467 309/555/468
f 309/555/468 347/647/467 346/648/136
f 309/555/468 346/648/136 310/557/469
f 310/557/469 346/648/136 345/649/470
f 310/557/469 345/649/470 311/558/471
f 311/558/471 345/649/470 344/650/472
f 311/558/471 344/650/472 312/560/473
f 312/560/473 344/650/472 343/651/142
f 312/560/473 343/651/142 21/21/143
f 21/21/143 343/651/142 1/3/474
f 21/21/143 1/3/474 20/5/475
f 259/652/166 59/653/166 260/654/166
f 260/654/166 59/653/166 354/655/166
f 354/655/166 59/653/166 353/656/166
f 353/656/166 59/653/166 352/657/166
f 352/657/166 59/653/166 351/658/166
f 351/658/166 59/653/166 350/659/166
f 350/659/166 59/653/166 349/660/166
f 349/660/166 59/653/166 58/661/166
f 199/662/476 227/663/477 200/664/478
f 200/664/478 227/663/477 260/665/479
f 200/576/478 260/666/479 331/577/480
f 331/577/480 260/666/479 354/667/481
f 331/577/480 354/667/481 332/584/482
f 332/584/482 354/667/481 353/668/483
f 332/584/482 353/668/483 333/586/484
f 333/586/484 353/668/483 352/669/485
f 333/586/484 352/669/485 334/588/486
f 334/588/486 352/669/485 351/670/487
f 334/588/486 351/670/487 335/589/488
f 335/589/488 351/670/487 350/671/489
f 335/589/488 350/671/489 336/591/490
f 336/591/490 350/671/489 349/672/491
f 336/591/490 349/672/491 57/59/492
f 57/59/492 349/672/491 58/58/493
f 234/350/494 233/351/494 259/666/495
f 259/666/495 233/351/494 238/673/495
f 259/666/495 238/673/495 59/60/496
f 59/60/496 238/673/495 60/61/496
f 243/674/476 244/675/497 236/676/498
f 236/676/498 244/675/497 237/677/499
f 237/673/499 244/422/497 276/428/500
f 237/673/499 276/428/500 360/678/501
f 360/678/501 276/428/500 275/430/502
f 360/678/501 275/430/502 359/679/503
f 359/679/503 275/430/502 274/432/504
f 359/679/503 274/432/504 358/680/505
f 358/680/505 274/432/504 273/434/506
f 358/680/505 273/434/506 357/681/487
f 357/681/487 273/434/506 272/435/507
f 357/681/487 272/435/507 356/682/508
f 356/682/508 272/435/507 271/437/509
f 356/682/508 271/437/509 355/683/510
f 355/683/510 271/437/509 54/56/511
f 355/683/510 54/56/511 61/57/493
f 238/684/205 237/685/205 60/686/205
f 60/686/205 237/685/205 360/687/205
f 60/686/205 360/687/205 359/688/205
f 359/688/205 358/689/205 60/686/205
f 60/686/205 358/689/205 357/690/205
f 60/686/205 357/690/205 356/691/205
f 356/691/205 355/692/205 60/686/205
f 60/686/205 355/692/205 61/693/205
f 8/16/8 7/15/8 119/170/512
f 119/170/512 7/15/8 132/645/512
f 119/170/512 132/645/512 114/124/513
f 114/124/513 132/645/512 115/123/513
